<?xml version="1.0" standalone="no"?><!DOCTYPE svg PUBLIC "-//W3C//DTD SVG 1.1//EN" "http://www.w3.org/Graphics/SVG/1.1/DTD/svg11.dtd"><svg class="icon" width="200px" height="200.00px" viewBox="0 0 1024 1024" version="1.1" xmlns="http://www.w3.org/2000/svg"><path d="M818.9 544c0 190.9-147.2 259.8-328.8 259.8S161.2 734.9 161.2 544 428 136.4 487.3 136.4c58.6 0 331.6 216.7 331.6 407.6z" fill="#A44400" /><path d="M490 808.3c-47.3 0-90.7-4.7-129.1-13.9-41.2-9.9-76.9-25.1-106.1-45.2-65.2-45-98.3-114.1-98.3-205.2 0-45.1 14.5-94.3 43.2-146.4 23.9-43.5 58.1-89.2 98.9-132.1 34.8-36.6 73.9-70.7 110-96 34.8-24.3 62.7-37.7 78.6-37.7 9.1 0 31.6 4.9 79.1 37.6 36.8 25.3 76.5 59.4 111.9 96 41.6 43 76.5 88.7 100.9 132.1 29.3 52.1 44.1 101.4 44.1 146.5 0 91.2-33.1 160.2-98.3 205.2-29.2 20.1-64.8 35.3-106.1 45.2-38 9.3-81.5 13.9-128.8 13.9z m-2.7-667.4c-13.6 0-41.1 13.5-73.4 36-35.7 24.9-74.2 58.6-108.6 94.8C183.9 399.6 165.7 497.2 165.7 544c0 88 31.7 154.5 94.4 197.7 28.2 19.5 62.9 34.2 103 43.9 37.7 9 80.4 13.6 126.9 13.6s89.3-4.6 126.9-13.6c40.1-9.6 74.8-24.4 103-43.9 62.6-43.2 94.4-109.7 94.4-197.7 0-46.7-18.5-144.2-142.5-272.2-35-36.1-74.2-69.8-110.5-94.8-32.8-22.6-60.5-36.1-74-36.1z"  /><path d="M774.7 548.8c0 191-99.7 257.2-281.3 257.2s-328.8-68.8-328.8-259.8 266.8-407.6 326.1-407.6c42.4 0 284 219.3 284 410.2z" fill="#B45110" /><path d="M818.9 544c0 190.9-147.2 259.8-328.8 259.8S161.2 734.9 161.2 544c0-31 147.2 128.1 328.8 128.1S818.9 529 818.9 544z" fill="#DF7624" /><path d="M776.3 575.7c0 160.1-228.5 222-287 222.6C328 799.8 167.6 737.6 167 546.1c-0.1-26.4 141.4 126.2 323 126 170.7-0.2 286.3-100.5 286.3-96.4z" fill="#F39148" /><path d="M192.5 585.6a3.2 5.1 0 1 0 6.4 0 3.2 5.1 0 1 0-6.4 0Z" fill="#C26C4D" /><path d="M223.001401 599.043071a5.1 3.2 82.393 1 0 6.343676-0.847216 5.1 3.2 82.393 1 0-6.343676 0.847216Z" fill="#C26C4D" /><path d="M174.2 564.8a3.2 5.1 0 1 0 6.4 0 3.2 5.1 0 1 0-6.4 0Z" fill="#C26C4D" /><path d="M186.1 608.5a3.2 5.1 0 1 0 6.4 0 3.2 5.1 0 1 0-6.4 0Z" fill="#C26C4D" /><path d="M247.1 661.8a3.2 5.1 0 1 0 6.4 0 3.2 5.1 0 1 0-6.4 0Z" fill="#C26C4D" /><path d="M274.3 649.9a3.2 5.1 0 1 0 6.4 0 3.2 5.1 0 1 0-6.4 0Z" fill="#C26C4D" /><path d="M224.2 687.5a3.2 5.1 0 1 0 6.4 0 3.2 5.1 0 1 0-6.4 0Z" fill="#C26C4D" /><path d="M471.6 734.7a3.2 5.1 0 1 0 6.4 0 3.2 5.1 0 1 0-6.4 0Z" fill="#C26C4D" /><path d="M454.9 752.2a3.2 5.1 0 1 0 6.4 0 3.2 5.1 0 1 0-6.4 0Z" fill="#C26C4D" /><path d="M493.2 781.4a3.2 5.1 0 1 0 6.4 0 3.2 5.1 0 1 0-6.4 0Z" fill="#C26C4D" /><path d="M544.8 783.4a3.2 5.1 0 1 0 6.4 0 3.2 5.1 0 1 0-6.4 0Z" fill="#C26C4D" /><path d="M525.3 764.2a3.2 5.1 0 1 0 6.4 0 3.2 5.1 0 1 0-6.4 0Z" fill="#C26C4D" /><path d="M514.3 783.4a3.2 5.1 0 1 0 6.4 0 3.2 5.1 0 1 0-6.4 0Z" fill="#C26C4D" /><path d="M533.4 710.4a3.2 5.1 0 1 0 6.4 0 3.2 5.1 0 1 0-6.4 0Z" fill="#C26C4D" /><path d="M506.1 682.4a3.2 5.1 0 1 0 6.4 0 3.2 5.1 0 1 0-6.4 0Z" fill="#C26C4D" /><path d="M604.8 743.8a3.2 5.1 0 1 0 6.4 0 3.2 5.1 0 1 0-6.4 0Z" fill="#C26C4D" /><path d="M575.1 735.9a3.2 5.1 0 1 0 6.4 0 3.2 5.1 0 1 0-6.4 0Z" fill="#C26C4D" /><path d="M568.8 761a3.2 5.1 0 1 0 6.4 0 3.2 5.1 0 1 0-6.4 0Z" fill="#C26C4D" /><path d="M596.9 774.4a3.2 5.1 0 1 0 6.4 0 3.2 5.1 0 1 0-6.4 0Z" fill="#C26C4D" /><path d="M596.9 705.6a3.2 5.1 0 1 0 6.4 0 3.2 5.1 0 1 0-6.4 0Z" fill="#C26C4D" /><path d="M600.1 677.3a3.2 5.1 0 1 0 6.4 0 3.2 5.1 0 1 0-6.4 0Z" fill="#C26C4D" /><path d="M628.2 662a3.2 5.1 0 1 0 6.4 0 3.2 5.1 0 1 0-6.4 0Z" fill="#C26C4D" /><path d="M625 685a3.2 5.1 0 1 0 6.4 0 3.2 5.1 0 1 0-6.4 0Z" fill="#C26C4D" /><path d="M611.2 713.2a3.2 5.1 0 1 0 6.4 0 3.2 5.1 0 1 0-6.4 0Z" fill="#C26C4D" /><path d="M577.2 710.7a3.2 5.1 0 1 0 6.4 0 3.2 5.1 0 1 0-6.4 0Z" fill="#C26C4D" /><path d="M647.9 651.9a3.2 5.1 0 1 0 6.4 0 3.2 5.1 0 1 0-6.4 0Z" fill="#C26C4D" /><path d="M647.9 686a3.2 5.1 0 1 0 6.4 0 3.2 5.1 0 1 0-6.4 0Z" fill="#C26C4D" /><path d="M637.4 715.5a3.2 5.1 0 1 0 6.4 0 3.2 5.1 0 1 0-6.4 0Z" fill="#C26C4D" /><path d="M644.8 743.5a3.2 5.1 0 1 0 6.4 0 3.2 5.1 0 1 0-6.4 0Z" fill="#C26C4D" /><path d="M679.1 748.9a3.2 5.1 0 1 0 6.4 0 3.2 5.1 0 1 0-6.4 0Z" fill="#C26C4D" /><path d="M640.6 766.1a3.2 5.1 0 1 0 6.4 0 3.2 5.1 0 1 0-6.4 0Z" fill="#C26C4D" /><path d="M670.6 713.2a3.2 5.1 0 1 0 6.4 0 3.2 5.1 0 1 0-6.4 0Z" fill="#C26C4D" /><path d="M682.2 672.2a3.2 5.1 0 1 0 6.4 0 3.2 5.1 0 1 0-6.4 0Z" fill="#C26C4D" /><path d="M657 700.2a3.2 5.1 0 1 0 6.4 0 3.2 5.1 0 1 0-6.4 0Z" fill="#C26C4D" /><path d="MNaN NaNaNaN NaN NaN 1 0 NaN NaN NaN NaN NaN 1 0 NaN NaNZ" fill="#C26C4D" /><path d="MNaN NaNaNaN NaN NaN 1 0 NaN NaN NaN NaN NaN 1 0 NaN NaNZ" fill="#C26C4D" /><path d="MNaN NaNaNaN NaN NaN 1 0 NaN NaN NaN NaN NaN 1 0 NaN NaNZ" fill="#C26C4D" /><path d="MNaN NaNaNaN NaN NaN 1 0 NaN NaN NaN NaN NaN 1 0 NaN NaNZ" fill="#C26C4D" /><path d="MNaN NaNaNaN NaN NaN 1 0 NaN NaN NaN NaN NaN 1 0 NaN NaNZ" fill="#C26C4D" /><path d="MNaN NaNaNaN NaN NaN 1 0 NaN NaN NaN NaN NaN 1 0 NaN NaNZ" fill="#C26C4D" /><path d="MNaN NaNaNaN NaN NaN 1 0 NaN NaN NaN NaN NaN 1 0 NaN NaNZ" fill="#C26C4D" /><path d="MNaN NaNaNaN NaN NaN 1 0 NaN NaN NaN NaN NaN 1 0 NaN NaNZ" fill="#C26C4D" /><path d="M733.473601 662.291831a3.199936 5.099898 3.418 1 0 0.608111-10.181652 3.199936 5.099898 3.418 1 0-0.608111 10.181652Z" fill="#C26C4D" /><path d="M720.465548 677.259306a3.199936 5.099898 3.418 1 0 0.608111-10.181652 3.199936 5.099898 3.418 1 0-0.608111 10.181652Z" fill="#C26C4D" /><path d="M698.982436 695.197133a3.199936 5.099898 3.418 1 0 0.608111-10.181652 3.199936 5.099898 3.418 1 0-0.608111 10.181652Z" fill="#C26C4D" /><path d="M712.855263 718.349048a3.199936 5.099898 3.418 1 0 0.608112-10.181652 3.199936 5.099898 3.418 1 0-0.608112 10.181652Z" fill="#C26C4D" /><path d="M733.516744 701.250408a3.199936 5.099898 3.418 1 0 0.608112-10.181652 3.199936 5.099898 3.418 1 0-0.608112 10.181652Z" fill="#C26C4D" /><path d="M758.037667 680.94273a3.199936 5.099898 3.418 1 0 0.608111-10.181652 3.199936 5.099898 3.418 1 0-0.608111 10.181652Z" fill="#C26C4D" /><path d="M753.845696 639.796342a3.199936 5.099898 3.418 1 0 0.608112-10.181652 3.199936 5.099898 3.418 1 0-0.608112 10.181652Z" fill="#C26C4D" /><path d="M776.02818 626.673957a3.199936 5.099898 3.418 1 0 0.608111-10.181652 3.199936 5.099898 3.418 1 0-0.608111 10.181652Z" fill="#C26C4D" /><path d="M798.005875 589.698008a3.199936 5.099898 3.418 1 0 0.608112-10.181652 3.199936 5.099898 3.418 1 0-0.608112 10.181652Z" fill="#C26C4D" /><path d="M795.821574 626.667365a3.199936 5.099898 3.418 1 0 0.608111-10.181652 3.199936 5.099898 3.418 1 0-0.608111 10.181652Z" fill="#C26C4D" /><path d="M785.405116 599.517131a3.199936 5.099898 3.418 1 0 0.608112-10.181652 3.199936 5.099898 3.418 1 0-0.608112 10.181652Z" fill="#C26C4D" /><path d="M798.942209 574.126284a3.199936 5.099898 3.418 1 0 0.608112-10.181652 3.199936 5.099898 3.418 1 0-0.608112 10.181652Z" fill="#C26C4D" /><path d="M719.381141 734.650984a3.199936 5.099898 3.418 1 0 0.608112-10.181652 3.199936 5.099898 3.418 1 0-0.608112 10.181652Z" fill="#C26C4D" /><path d="MNaN NaNaNaN NaN NaN 1 0 NaN NaN NaN NaN NaN 1 0 NaN NaNZ" fill="#C26C4D" /><path d="M486.8 697.6a3.2 5.1 0 1 0 6.4 0 3.2 5.1 0 1 0-6.4 0Z" fill="#C26C4D" /><path d="M274.3 733.6a3.2 5.1 0 1 0 6.4 0 3.2 5.1 0 1 0-6.4 0Z" fill="#C26C4D" /><path d="M298.7 651.9a3.2 5.1 0 1 0 6.4 0 3.2 5.1 0 1 0-6.4 0Z" fill="#C26C4D" /><path d="M531.6 686a3.2 5.1 0 1 0 6.4 0 3.2 5.1 0 1 0-6.4 0Z" fill="#C26C4D" /><path d="M280.7 674.8a3.2 5.1 0 1 0 6.4 0 3.2 5.1 0 1 0-6.4 0Z" fill="#C26C4D" /><path d="M261.8 697.6a3.2 5.1 0 1 0 6.4 0 3.2 5.1 0 1 0-6.4 0Z" fill="#C26C4D" /><path d="M244 687.5a3.2 5.1 0 1 0 6.4 0 3.2 5.1 0 1 0-6.4 0Z" fill="#C26C4D" /><path d="M240.8 715.5a3.2 5.1 0 1 0 6.4 0 3.2 5.1 0 1 0-6.4 0Z" fill="#C26C4D" /><path d="M205.8 625.1a3.2 5.1 0 1 0 6.4 0 3.2 5.1 0 1 0-6.4 0Z" fill="#C26C4D" /><path d="M244 627.4a3.2 5.1 0 1 0 6.4 0 3.2 5.1 0 1 0-6.4 0Z" fill="#C26C4D" /><path d="M226.2 646.8a3.2 5.1 0 1 0 6.4 0 3.2 5.1 0 1 0-6.4 0Z" fill="#C26C4D" /><path d="M306.9 743.5a3.2 5.1 0 1 0 6.4 0 3.2 5.1 0 1 0-6.4 0Z" fill="#C26C4D" /><path d="M310.1 682.4a3.2 5.1 0 1 0 6.4 0 3.2 5.1 0 1 0-6.4 0Z" fill="#C26C4D" /><path d="M326.6 696.2a3.2 5.1 0 1 0 6.4 0 3.2 5.1 0 1 0-6.4 0Z" fill="#C26C4D" /><path d="M335.9 729.6a3.2 5.1 0 1 0 6.4 0 3.2 5.1 0 1 0-6.4 0Z" fill="#C26C4D" /><path d="M351.7 697.6a3.2 5.1 0 1 0 6.4 0 3.2 5.1 0 1 0-6.4 0Z" fill="#C26C4D" /><path d="M377.4 674.8a3.2 5.1 0 1 0 6.4 0 3.2 5.1 0 1 0-6.4 0Z" fill="#C26C4D" /><path d="M335.9 651.9a3.2 5.1 0 1 0 6.4 0 3.2 5.1 0 1 0-6.4 0Z" fill="#C26C4D" /><path d="M398.8 771.2a3.2 5.1 0 1 0 6.4 0 3.2 5.1 0 1 0-6.4 0Z" fill="#C26C4D" /><path d="M448.6 776.3a3.2 5.1 0 1 0 6.4 0 3.2 5.1 0 1 0-6.4 0Z" fill="#C26C4D" /><path d="M422.4 748.9a3.2 5.1 0 1 0 6.4 0 3.2 5.1 0 1 0-6.4 0Z" fill="#C26C4D" /><path d="M571.9 679.9a3.2 5.1 0 1 0 6.4 0 3.2 5.1 0 1 0-6.4 0Z" fill="#C26C4D" /><path d="M557.6 705.6a3.2 5.1 0 1 0 6.4 0 3.2 5.1 0 1 0-6.4 0Z" fill="#C26C4D" /><path d="M548 682.4a3.2 5.1 0 1 0 6.4 0 3.2 5.1 0 1 0-6.4 0Z" fill="#C26C4D" /><path d="M534.8 739.8a3.2 5.1 0 1 0 6.4 0 3.2 5.1 0 1 0-6.4 0Z" fill="#C26C4D" /><path d="M364.7 743.8a3.2 5.1 0 1 0 6.4 0 3.2 5.1 0 1 0-6.4 0Z" fill="#C26C4D" /><path d="M353.3 766.1a3.2 5.1 0 1 0 6.4 0 3.2 5.1 0 1 0-6.4 0Z" fill="#C26C4D" /><path d="M445.4 696.2a3.2 5.1 0 1 0 6.4 0 3.2 5.1 0 1 0-6.4 0Z" fill="#C26C4D" /><path d="M471.6 680.9a3.2 5.1 0 1 0 6.4 0 3.2 5.1 0 1 0-6.4 0Z" fill="#C26C4D" /><path d="M445.4 730.8a3.2 5.1 0 1 0 6.4 0 3.2 5.1 0 1 0-6.4 0Z" fill="#C26C4D" /><path d="M402 691.1a3.2 5.1 0 1 0 6.4 0 3.2 5.1 0 1 0-6.4 0Z" fill="#C26C4D" /><path d="M405.1 734.7a3.2 5.1 0 1 0 6.4 0 3.2 5.1 0 1 0-6.4 0Z" fill="#C26C4D" /><path d="M386 723.4a3.2 5.1 0 1 0 6.4 0 3.2 5.1 0 1 0-6.4 0Z" fill="#C26C4D" /><path d="M425.5 710.7a3.2 5.1 0 1 0 6.4 0 3.2 5.1 0 1 0-6.4 0Z" fill="#C26C4D" /><path d="M413.9 677.3a3.2 5.1 0 1 0 6.4 0 3.2 5.1 0 1 0-6.4 0Z" fill="#C26C4D" /><path d="M509.2 718.3a3.2 5.1 0 1 0 6.4 0 3.2 5.1 0 1 0-6.4 0Z" fill="#C26C4D" /><path d="M500.2 748.9a3.2 5.1 0 1 0 6.4 0 3.2 5.1 0 1 0-6.4 0Z" fill="#C26C4D" /><path d="M303.8 705.3a3.2 5.1 0 1 0 6.4 0 3.2 5.1 0 1 0-6.4 0Z" fill="#C26C4D" /><path d="M261.8 620a3.2 5.1 0 1 0 6.4 0 3.2 5.1 0 1 0-6.4 0Z" fill="#C26C4D" /><path d="MNaN NaNaNaN NaN NaN 1 0 NaN NaN NaN NaN NaN 1 0 NaN NaNZ" fill="#C26C4D" /><path d="M324.788622 765.794029a3.2 5.1 21.624 1 0 3.758842-9.482147 3.2 5.1 21.624 1 0-3.758842 9.482147Z" fill="#C26C4D" /><path d="MNaN NaNaNaN NaN NaN 1 0 NaN NaN NaN NaN NaN 1 0 NaN NaNZ" fill="#C26C4D" /><path d="M315.263302 643.264779a5.1 3.2 79.618 1 0 6.29522-1.153345 5.1 3.2 79.618 1 0-6.29522 1.153345Z" fill="#C26C4D" /><path d="M467.2 135.7c0-0.2-1.7-19.8-54-27.8-2.5-0.4-4.2-2.7-3.8-5.2 0.4-2.5 2.7-4.2 5.2-3.8 25 3.8 42.8 10.8 53.1 20.6 8.4 8 8.6 15.2 8.6 16h-9.1v0.2zM507.8 132.8v-0.1h-9.1c0-0.8 0.2-8 8.6-16 10.3-9.9 28.2-16.8 53.1-20.6 2.5-0.4 4.8 1.3 5.2 3.8 0.4 2.5-1.3 4.8-3.8 5.2-52.2 7.9-53.9 27.5-54 27.7zM486.9 137.2c-1.8 0-3.6-1.1-4.3-3-0.2-0.5-4.5-12.2-3.9-26.2 0.8-19.3 10.2-33.6 27.3-41.6 2.3-1.1 5-0.1 6 2.2 1.1 2.3 0.1 5-2.2 6-13.9 6.5-21.3 17.7-22 33.5-0.6 12.3 3.3 22.9 3.3 23 0.9 2.4-0.3 5-2.7 5.8-0.4 0.2-0.9 0.3-1.5 0.3z"  /><path d="M395.6 581.6a13.3 22.2 0 1 0 26.6 0 13.3 22.2 0 1 0-26.6 0Z" fill="#DD2A00" /><path d="M408.9 608.3c-10 0-17.9-11.7-17.9-26.7s7.9-26.7 17.9-26.7c10 0 17.9 11.7 17.9 26.7s-7.9 26.7-17.9 26.7z m0-44.3c-4.1 0-8.8 7.5-8.8 17.6 0 10.1 4.6 17.6 8.8 17.6 4.1 0 8.8-7.5 8.8-17.6 0-10.1-4.7-17.6-8.8-17.6zM358.3 440.7c-3.4 0-7.8-0.8-13.4-3.2-5.6-2.4-33.7-4.3-88 0.4-2.5 0.2-4.7-1.6-4.9-4.1-0.2-2.5 1.6-4.7 4.1-4.9 7.8-0.7 76.8-6.3 92.4 0.4 9.6 4.1 13.1 1.9 13.1 1.9 1.3-2.2 4-2.9 6.2-1.6 2.2 1.3 2.9 4.1 1.6 6.2-0.4 0.5-3.3 4.9-11.1 4.9z"  /><path d="M346.3 450c-4.1 11.9-11.3 20-26.8 20-15.4 0-26.6-7.7-29.1-20-4.5-22-43.7-11.7-28.5-13.9 56.2-8 99.8 0.7 90.7 2.1-3.8 0.6-4.2 5.8-6.3 11.8zM553 441.9c-3.4 0-7.8-0.8-13.4-3.2-5.6-2.4-33.7-4.3-88 0.4-2.5 0.2-4.7-1.6-4.9-4.1-0.2-2.5 1.6-4.7 4.1-4.9 7.8-0.7 76.8-6.3 92.4 0.4 9.6 4.1 13.1 1.9 13.1 1.9 1.3-2.2 4.1-2.9 6.2-1.6 2.2 1.3 2.9 4.1 1.6 6.2-0.4 0.5-3.3 4.9-11.1 4.9z"  /><path d="M541 451.2c-4.1 11.9-11.3 20-26.8 20-15.4 0-26.6-7.7-29.1-20-4.5-22-43.7-11.7-28.5-13.9 56.2-8 99.8 0.7 90.7 2.1-3.9 0.6-4.2 5.8-6.3 11.8zM344.6 367.7c-2.5 0-4.5-2-4.5-4.5s2-4.5 4.5-4.5c6.1 0 10.5-3 13.5-9.2 2.4-5 2.9-10.2 2.9-10.2 0.2-2.5 2.4-4.4 4.9-4.2 2.5 0.2 4.4 2.4 4.2 4.9-0.9 9.5-7.2 27.7-25.5 27.7zM459.7 363.4c-6.5 0-11.8-1.7-15.9-5.2-8.5-7-8.2-18.4-8.2-18.9 0.1-2.5 2.2-4.5 4.7-4.4 2.5 0.1 4.5 2.2 4.4 4.7 0 0.2 0 7.5 5 11.7 3.9 3.2 10 3.8 18.1 2 2.5-0.5 4.9 1 5.4 3.5s-1 4.9-3.5 5.4c-3.6 0.8-6.9 1.2-10 1.2zM432.2 517.3c-2.4 0-4.4-1.9-4.5-4.4-0.7-17.9-23.5-20-23.8-20-2.7-0.2-11.1 8.2-18 19.3-1.3 2.1-4.1 2.8-6.3 1.5-2.1-1.3-2.8-4.1-1.5-6.3 3.5-5.6 15.4-23.7 25.8-23.7h0.7c2.4 0.2 11 1.3 19 6.4 8.2 5.3 12.7 13 13.1 22.3 0.1 2.5-1.9 4.6-4.4 4.7 0.1 0.2 0 0.2-0.1 0.2z"  /><path d="M162.8 611.8c-21.1 0-35.2-5.1-42.6-15.3-10.6-14.7-6-38.4 13.6-70.6 14.1-23 30.7-41.8 31.4-42.6 1.7-1.9 4.5-2.1 6.4-0.4 1.9 1.7 2.1 4.5 0.4 6.4-18.1 20.4-61.3 78.4-44.4 101.8 8.8 12.2 34.2 14.7 73.4 7.4 50-9.4 123.1-34.7 217.4-75.4 2.3-1 5 0.1 6 2.4s-0.1 5-2.4 6c-94.9 40.9-168.7 66.5-219.3 76-15.3 2.9-28.6 4.3-39.9 4.3z"  /><path d="M400 537.8c-0.4 0-0.9 0-1.3-0.1-4.8-1-13-9.8-19.2-17-1.6-1.9-1.4-4.8 0.5-6.4 1.9-1.6 4.8-1.4 6.4 0.5 4.1 4.9 8.7 9.5 11.6 12.1 0.2-1.1 0.3-2.2 0.5-3.2 0.9-6.1 1.9-13.7 5.7-19.2 1.4-2.1 4.3-2.6 6.3-1.1 2.1 1.4 2.6 4.3 1.1 6.3-2.5 3.6-3.4 10.1-4.2 15.2-0.8 5.9-1.4 9.8-4.3 11.9-0.8 0.6-1.9 1-3.1 1z"  /><path d="M714.2 439.9c-2.3-0.9-5 0.2-5.9 2.5l-73.1 182.3-39.7 18.5c-2.3 1.1-3.3 3.8-2.2 6 0.8 1.7 2.4 2.6 4.1 2.6 0.6 0 1.3-0.1 1.9-0.4l31-14.5-21.6 44.3c-1.1 2.3-0.2 5 2.1 6.1 0.6 0.3 1.3 0.5 2 0.5 1.7 0 3.3-0.9 4.1-2.6l19.4-39.8 0.9 34.4c0.1 2.5 2.1 4.5 4.7 4.4 2.5-0.1 4.5-2.2 4.4-4.7l-1.3-53c0-0.4-0.1-0.9-0.2-1.3l72-179.6c0.8-2.1-0.3-4.8-2.6-5.7zM458.8 934.4c-0.4 0-0.8 0-1.2-0.2-51.1-13.7-81.3-35.1-89.8-63.8-4.7-16-2.4-34.3 6.7-52.8 6.8-13.8 14.9-22.9 15.2-23.2 1.7-1.9 4.6-2 6.4-0.3 1.9 1.7 2 4.6 0.3 6.4-0.1 0.1-7.7 8.7-13.9 21.4-8.1 16.6-10.2 32.1-6 46 7.6 25.4 35.6 44.8 83.4 57.6 2.4 0.6 3.9 3.1 3.2 5.6-0.4 2-2.3 3.3-4.3 3.3zM612.4 945.7c-0.7 0-1.4-0.2-2-0.5-36.9-18.4-57.2-41.3-60.1-68-2.1-19.4 5.2-40.9 21.2-62.1 11.9-15.8 24.3-25.9 24.8-26.3 2-1.6 4.8-1.3 6.4 0.7 1.6 2 1.3 4.8-0.7 6.4-0.5 0.4-47.3 38.8-42.7 80.4 2.6 23.5 21.1 43.9 55.1 60.8 2.2 1.1 3.2 3.8 2 6.1-0.8 1.6-2.4 2.5-4 2.5z"  /></svg>