<?xml version="1.0" standalone="no"?><!DOCTYPE svg PUBLIC "-//W3C//DTD SVG 1.1//EN" "http://www.w3.org/Graphics/SVG/1.1/DTD/svg11.dtd"><svg class="icon" width="200px" height="200.00px" viewBox="0 0 1024 1024" version="1.1" xmlns="http://www.w3.org/2000/svg"><path d="M724.6 498.2c-1.2 0-2.3-0.5-3.2-1.5-1.5-1.7-1.3-4.4 0.5-5.9 36.1-30.8 65.2-63.7 86.5-97.9 17-27.3 29.2-55.4 36.1-83.5 11.7-47.7 4.3-79.2 4.3-79.5-0.5-2.2 0.8-4.5 3.1-5 2.2-0.5 4.5 0.8 5 3.1 0.3 1.4 7.9 33.8-4.3 83.4-7.1 29-19.6 57.9-37.1 85.9-21.8 34.9-51.4 68.5-88.2 99.8-0.8 0.8-1.8 1.1-2.7 1.1zM72.9 562c-3.4 0-6.2-1-8.4-3-10.5-9.1-2.9-35.6 3.7-54.8 7.3-21 16.5-40.5 16.6-40.7 1-2.1 3.5-3 5.5-2 2.1 1 3 3.5 2 5.5-0.1 0.2-9.2 19.4-16.3 39.9-12.6 36.4-7.8 44.2-6.1 45.7 3 2.6 11.6-0.3 23-7.9 67.7-44.9 116.3-46.5 118.3-46.5 2.3-0.1 4.2 1.8 4.2 4.1 0.1 2.3-1.8 4.2-4.1 4.2-0.1 0-12.2 0.4-32.1 6.1-18.4 5.3-47.6 16.3-81.8 39.1-10.1 6.9-18.2 10.3-24.5 10.3zM342.7 928.5c-2.2 0-4.1-1.7-4.2-4-0.1-2.3 1.7-4.2 4-4.3 24.6-1 60.9-7.3 64.7-18.1 5.7-16.1-11.9-57.3-19.5-74.8l-0.8-1.8c-1.4-3.3-5.7-13.3 17.3-52.2 11-18.5 23-35 23.1-35.2 1.4-1.8 4-2.2 5.8-0.9 1.9 1.4 2.2 4 0.9 5.8-19.3 26.2-44.3 68.1-39.5 79.2l0.8 1.8c13.8 32 25.7 64 19.7 80.9-3.3 9.2-16.3 15.7-39.8 19.9-16.4 2.9-31.7 3.6-32.3 3.6-0.1 0.1-0.1 0.1-0.2 0.1zM582.9 915.2c-11.3 0-21.5-3.8-29.9-11.2-20.4-17.7-49.2-50.3-70.9-104.7-12.9-32.5-17.1-57.1-17.3-58.1-0.4-2.3 1.2-4.4 3.4-4.8 2.3-0.4 4.4 1.1 4.8 3.4 0 0.2 4.3 24.9 16.9 56.6 11.6 29.1 33 70.3 68.6 101.3 23.5 20.5 54.5-0.1 54.8-0.3 1.9-1.3 4.5-0.8 5.8 1.1 1.3 1.9 0.8 4.5-1.1 5.8-0.4 0.2-9.2 6.2-21.5 9.1-4.8 1.2-9.3 1.8-13.6 1.8z"  /><path d="M747.8 434.3c0-30.9-17.1-57.8-42.3-71.9 25.2-14.1 42.3-41 42.3-71.9 0-45.4-36.8-82.3-82.3-82.3-28.3 0-53.2 14.3-67.9 35.9-14.8-21.7-39.8-35.9-67.9-35.9-27.9 0-52.5 13.9-67.4 35.1-14.9-21.2-39.5-35.1-67.4-35.1-30.4 0-56.7 16.4-71 40.9-14.3-24.4-40.7-40.9-71-40.9-45.4 0-82.3 36.8-82.3 82.3 0 30.9 17.1 57.8 42.3 71.9-25.2 14.1-42.3 41-42.3 71.9 0 27.9 13.9 52.5 35.1 67.4-21.2 14.9-35.1 39.5-35.1 67.4 0 29.7 15.7 55.6 39.2 70-23.5 14.4-39.2 40.4-39.2 70 0 45.4 36.8 82.3 82.3 82.3 30.4 0 56.7-16.4 71-40.9 14.3 24.4 40.7 40.9 71 40.9 27.9 0 52.5-13.9 67.4-35.1 14.9 21.2 39.5 35.1 67.4 35.1 28.3 0 53.2-14.3 67.9-35.9 14.8 21.7 39.8 35.9 67.9 35.9 45.4 0 82.3-36.8 82.3-82.3 0-29.7-15.7-55.6-39.2-70 23.5-14.4 39.2-40.4 39.2-70 0-27.9-13.9-52.5-35.1-67.4 21.2-14.8 35.1-39.4 35.1-67.4z" fill="#FFCF83" /><path d="M292.6 212.9c-2-1.1-4.1-2.1-6.2-3 1.5 2 2.8 4.2 4.1 6.3l2.1-3.3zM429.2 210.2l-0.6-0.3c0.1 0.2 0.3 0.4 0.4 0.6 0-0.1 0.1-0.2 0.2-0.3zM564.8 210.6c-0.5-0.2-1-0.4-1.4-0.6 0.3 0.4 0.6 0.9 0.9 1.3 0.2-0.3 0.4-0.5 0.5-0.7zM748.5 429c0-30.9-17.1-57.8-42.3-71.9 25.2-14.1 42.3-41 42.3-71.9 0-33.6-20.2-62.6-49.2-75.3 9.6 13.5 15.2 29.9 15.2 47.7 0 30.9-17.1 57.8-42.3 71.9 25.2 14.1 42.3 41 42.3 71.9 0 27.9-13.9 52.5-35.1 67.4 21.2 14.9 35.1 39.5 35.1 67.4 0 29.7-15.7 55.6-39.2 70 23.5 14.4 39.2 40.4 39.2 70 0 45.5-36.9 82.3-82.3 82.3-11.8 0-22.9-2.5-33.1-7 14.9 20.9 39.4 34.6 67 34.6 45.4 0 82.3-36.8 82.3-82.3 0-29.7-15.7-55.6-39.2-70 23.5-14.4 39.2-40.4 39.2-70 0-27.9-13.9-52.5-35.1-67.4 21.3-14.9 35.2-39.5 35.2-67.4zM564.3 722.6c-14.8 21.7-39.7 35.9-67.9 35.9-11.8 0-23-2.5-33.1-6.9 14.9 20.9 39.3 34.6 67 34.6 28 0 52.6-14 67.5-35.2-13.6-6.3-25.1-16.2-33.5-28.4zM290.6 717.6c-14.3 24.4-40.6 40.9-71 40.9-11.8 0-23-2.5-33.1-6.9 14.9 20.9 39.4 34.6 67.1 34.6 29 0 54.3-15 68.9-37.6-13.3-7.2-24.3-18-31.9-31zM429 723.4c-14.9 21.2-39.5 35.1-67.4 35.1-11.7 0-22.9-2.5-33-6.9 14.9 20.9 39.3 34.6 66.9 34.6 27.8 0 52.3-13.8 67.2-34.9-13.6-6.1-25.3-15.8-33.7-27.9z" fill="#EAAD75" /><path d="M665.5 795.7c-26.6 0-51.6-12.3-67.9-33.1-16.3 20.8-41.3 33.1-67.9 33.1-26.3 0-51.1-12-67.4-32.4-16.4 20.4-41.2 32.4-67.4 32.4-28.3 0-54.9-14.1-71-37.3-16.1 23.2-42.7 37.3-71 37.3-47.7 0-86.5-38.8-86.5-86.5 0-28.1 13.3-53.8 35.9-70-22.6-16.2-35.9-42-35.9-70 0-26.3 12-51.1 32.4-67.4-20.4-16.4-32.4-41.2-32.4-67.4 0-28.9 14.6-55.9 38.5-71.9-23.9-16-38.5-42.9-38.5-71.9 0-47.7 38.8-86.5 86.5-86.5 28.3 0 54.9 14.1 71 37.3 16.1-23.2 42.7-37.3 71-37.3 26.3 0 51.1 12 67.4 32.4 16.4-20.4 41.2-32.4 67.4-32.4 26.6 0 51.6 12.3 67.9 33.1 16.3-20.8 41.3-33.1 67.9-33.1 47.7 0 86.5 38.8 86.5 86.5 0 28.9-14.6 55.9-38.5 71.9 23.9 16 38.5 42.9 38.5 71.9 0 26.3-12 51.1-32.4 67.4C740 518.2 752 543 752 569.2c0 28.1-13.3 53.8-35.9 70 22.6 16.2 35.9 42 35.9 70 0 47.7-38.8 86.5-86.5 86.5z m-67.9-44.3c1.4 0 2.7 0.7 3.4 1.8 14.6 21.4 38.7 34.1 64.5 34.1 43.1 0 78.1-35.1 78.1-78.1 0-27.3-13.9-52.1-37.3-66.5-1.2-0.8-2-2.1-2-3.5s0.7-2.8 2-3.5c23.3-14.3 37.3-39.2 37.3-66.5 0-25.4-12.5-49.4-33.4-64-1.1-0.8-1.8-2-1.8-3.4s0.7-2.6 1.8-3.4c20.9-14.6 33.4-38.6 33.4-64 0-28.2-15.4-54.4-40.1-68.2-1.3-0.7-2.1-2.1-2.1-3.6s0.8-2.9 2.1-3.6c24.8-13.8 40.1-40 40.1-68.2 0-43.1-35.1-78.1-78.1-78.1-25.8 0-49.9 12.8-64.5 34.1-0.8 1.1-2.1 1.8-3.4 1.8s-2.7-0.7-3.4-1.8c-14.6-21.4-38.7-34.1-64.5-34.1-25.4 0-49.4 12.5-64 33.4-0.8 1.1-2 1.8-3.4 1.8s-2.6-0.7-3.4-1.8c-14.6-20.9-38.6-33.4-64-33.4-27.6 0-53.4 14.9-67.4 38.8-0.7 1.3-2.1 2.1-3.6 2.1s-2.8-0.8-3.6-2.1c-14-23.9-39.8-38.8-67.4-38.8-43.1 0-78.1 35.1-78.1 78.1 0 28.2 15.4 54.4 40.1 68.2 1.3 0.7 2.1 2.1 2.1 3.6s-0.8 2.9-2.1 3.6c-24.8 13.8-40.1 40-40.1 68.2 0 25.4 12.5 49.4 33.4 64 1.1 0.8 1.8 2 1.8 3.4s-0.7 2.6-1.8 3.4c-20.9 14.6-33.4 38.6-33.4 64 0 27.3 13.9 52.1 37.3 66.5 1.2 0.8 2 2.1 2 3.5s-0.7 2.8-2 3.5c-23.3 14.3-37.3 39.2-37.3 66.5 0 43.1 35.1 78.1 78.1 78.1 27.6 0 53.4-14.9 67.4-38.8 0.7-1.3 2.1-2.1 3.6-2.1s2.8 0.8 3.6 2.1c14 23.9 39.8 38.8 67.4 38.8 25.4 0 49.4-12.5 64-33.4 0.8-1.1 2-1.8 3.4-1.8s2.6 0.7 3.4 1.8c14.6 20.9 38.6 33.4 64 33.4 25.8 0 49.9-12.8 64.5-34.1 0.7-1.1 2-1.8 3.4-1.8z"  /><path d="M292.8 361.6c0 16.3 13.2 29.5 29.5 29.5s29.5-13.2 29.5-29.5-13.2-29.5-29.5-29.5-29.5 13.1-29.5 29.5c0-0.1 0-0.1 0 0zM432 361.6c0 16.3 13.2 29.5 29.5 29.5s29.5-13.2 29.5-29.5-13.2-29.5-29.5-29.5c-16.3-0.1-29.5 13.1-29.5 29.5 0-0.1 0-0.1 0 0zM566.5 361.6c0 16.3 13.2 29.5 29.5 29.5s29.5-13.2 29.5-29.5-13.2-29.5-29.5-29.5c-16.2-0.1-29.4 13.1-29.5 29.5 0-0.1 0-0.1 0 0zM292.8 500.8c0 16.3 13.2 29.5 29.5 29.5s29.5-13.2 29.5-29.5-13.2-29.5-29.5-29.5-29.5 13.2-29.5 29.5zM432 500.8c0 16.3 13.2 29.5 29.5 29.5s29.5-13.2 29.5-29.5-13.2-29.5-29.5-29.5-29.5 13.2-29.5 29.5zM566.5 500.8c0 16.3 13.2 29.5 29.5 29.5s29.5-13.2 29.5-29.5-13.2-29.5-29.5-29.5c-16.2 0-29.4 13.2-29.5 29.5zM292.8 638.3c0 16.3 13.2 29.5 29.5 29.5s29.5-13.2 29.5-29.5-13.2-29.5-29.5-29.5-29.5 13.2-29.5 29.5zM432 638.3c0 16.3 13.2 29.5 29.5 29.5s29.5-13.2 29.5-29.5-13.2-29.5-29.5-29.5S432 622 432 638.3zM566.5 638.3c0 16.3 13.2 29.5 29.5 29.5s29.5-13.2 29.5-29.5-13.2-29.5-29.5-29.5c-16.2 0-29.4 13.2-29.5 29.5z" fill="#FFFFFF" opacity=".5" /><path d="M420.1 404.2c-3.7 0-7.1-1.6-8.7-3.6-3.2-3.9-4.3-7.8-5.3-10.9-1.6-5.2-2.4-8-12.5-10.2-18.4-4-26.3 9.1-26.4 9.2-1.2 2-3.7 2.6-5.7 1.5-2-1.2-2.6-3.7-1.5-5.7 3.8-6.4 16-17.3 35.3-13.1 13.8 3 16.6 8.8 18.7 16 0.8 2.7 1.6 5.3 3.7 7.9 0.6 0.4 2.4 0.9 3.7 0.4 1.4-0.6 1.9-2.6 2-4.3 0.2-2.3 2.2-4 4.5-3.8 2.3 0.2 4 2.2 3.8 4.5-0.7 8.1-5.4 10.8-8.1 11.6-1.1 0.3-2.3 0.5-3.5 0.5z m-2.4-9M542.6 421.3c-3.7 0-7.1-1.6-8.7-3.6-3.2-3.9-4.3-7.8-5.3-10.9-1.6-5.2-2.4-8-12.5-10.2-18.4-4-26.3 9.1-26.4 9.2-1.2 2-3.7 2.6-5.7 1.5-2-1.2-2.6-3.7-1.5-5.7 3.8-6.4 16-17.3 35.3-13.1 13.8 3 16.6 8.8 18.7 16 0.8 2.7 1.6 5.3 3.7 7.9 0.6 0.4 2.4 0.9 3.7 0.4 1.4-0.6 1.9-2.6 2-4.3 0.2-2.3 2.2-4 4.5-3.8 2.3 0.2 4 2.2 3.8 4.5-0.7 8.1-5.4 10.8-8.1 11.6-1.2 0.3-2.3 0.5-3.5 0.5z m-2.4-9"  /><path d="M634.6 497.2c-2.5 11.6-13.6 26.3-23.4 32.5-10.9 6.9-24.7 8.4-39.1 5.3-27.2-5.9-41.3-34.6-36-59.2 1.8-8.4 8.7-18 14.6-23.7 11.4-11 26.4-14 44.3-10.1 27.3 6 44.9 30.7 39.6 55.2zM350.5 449.1c-2.5 11.6-13.2 26.4-22.5 32.6-10.4 7-20.1 4.7-33.7 1.7-25.7-5.6-42.2-30.1-36.8-54.6 1.8-8.4 8.4-18 14.1-23.8 11-11.1 25.2-14.2 42.1-10.6 25.7 5.7 42.2 30.1 36.8 54.7z" fill="#FF6666" /><path d="M306 484.4c-1-8.7 0.3-17.5 4-25.4 6.3-13.4 20.1-33 46.2-26.8 38.8 9.2 46.6 40 84.1 48.2s58.2-20.1 93.6-8.7c35.3 11.4 31.9 40.4 30 49.5s-34.8 92.8-141.7 65.9C332 564.2 309.5 513.7 306 484.4z" fill="#FFFFFF" /><path d="M462.3 596.4c-12.9 0-26.7-1.8-41.1-5.5-99.2-25-116.5-82.5-119.3-106-1.1-9.5 0.4-19.1 4.4-27.7 15.1-32.3 38.4-32.1 51-29.1 20.4 4.8 32.5 15.3 44.3 25.4 11.3 9.7 22 18.9 39.7 22.8 17.1 3.7 30.3-0.5 44.2-5 14.9-4.8 30.3-9.8 49.8-3.6 38.7 12.4 34.8 44.7 32.7 54.3-1.5 6.8-14.4 38.7-46 58.3-17.5 10.7-37.4 16.1-59.7 16.1zM346.7 435.1c-17.1 0-27.2 13.4-32.9 25.6-3.3 7.2-4.6 15.2-3.6 23.2 2.6 21.8 18.8 75.2 113.1 99 37.1 9.4 68.9 6.1 94.4-9.7 32.8-20.3 42.2-52.7 42.2-53 2.2-10.1 4-34.6-27.2-44.6-16.9-5.4-30.4-1.1-44.7 3.6-14.4 4.7-29.2 9.5-48.5 5.3-19.8-4.3-31.8-14.6-43.4-24.6-11.5-9.9-22.4-19.2-40.8-23.6-3.1-0.8-5.9-1.2-8.6-1.2z"  /><path d="M499.8 551.4c-1 0-1.9-0.6-2.3-1.6-0.5-1.3 0.1-2.7 1.4-3.2 20.2-8 29.4-20.1 33-26.7 0.7-1.2 2.2-1.6 3.4-1 1.2 0.7 1.6 2.2 1 3.4-4 7.1-13.9 20.4-35.6 28.9-0.3 0.1-0.6 0.2-0.9 0.2zM458.6 558.6c-10.3 0-21.3-1.1-32.7-3.2-15-2.8-29.6-8.4-43.2-16.5-1.2-0.7-1.6-2.2-0.9-3.4 0.7-1.2 2.2-1.6 3.4-0.9 13.1 7.8 27.1 13.1 41.5 15.8 14.8 2.8 28.7 3.7 41.4 2.8 1.4-0.1 2.6 0.9 2.7 2.3 0.1 1.4-0.9 2.6-2.3 2.7-3.3 0.2-6.6 0.4-9.9 0.4zM365.7 527.9c-0.6 0-1.2-0.2-1.7-0.7-1.7-1.5-3.5-3.1-5.2-4.6-4.3-3.8-8.7-7.7-11.7-11.1-9.4-11-11.9-19.1-12.1-19.4-0.4-1.3 0.3-2.7 1.6-3.1 1.3-0.4 2.7 0.3 3.1 1.6 0 0.1 2.5 7.5 11.1 17.7 2.7 3.2 7 6.9 11.2 10.6 1.8 1.6 3.6 3.2 5.3 4.7 1 0.9 1.1 2.5 0.2 3.5-0.4 0.5-1.1 0.8-1.8 0.8z"  /><path d="M344.8 527.7c-1.2 0-2.3-0.9-2.5-2.2-2.1-15 10.6-36.2 11.2-37.1 0.7-1.2 2.2-1.6 3.4-0.8 1.2 0.7 1.6 2.2 0.8 3.4-0.1 0.2-12.4 20.6-10.5 33.8 0.2 1.4-0.8 2.6-2.1 2.8-0.1 0.1-0.2 0.1-0.3 0.1zM422.3 566.4c-0.3 0-0.5 0-0.8-0.1-1.3-0.4-2-1.9-1.6-3.2 1.8-5.4 4.8-29.9 5.8-38.9 0.2-1.4 1.4-2.4 2.8-2.2 1.4 0.2 2.4 1.4 2.2 2.8-0.1 1.3-3.7 33-6 40-0.4 0.9-1.4 1.6-2.4 1.6zM518.5 557c-0.4 0-0.8-0.1-1.1-0.3-1.2-0.6-1.7-2.1-1.1-3.4 3.6-7.2 1.7-28.9 0.7-36.7-0.2-1.4 0.8-2.6 2.1-2.8 1.4-0.2 2.6 0.8 2.8 2.1 0 0.3 1 7.4 1.3 15.8 0.5 11.5-0.4 19.5-2.5 23.8-0.4 1-1.3 1.5-2.2 1.5z"  /></svg>