<?xml version="1.0" standalone="no"?><!DOCTYPE svg PUBLIC "-//W3C//DTD SVG 1.1//EN" "http://www.w3.org/Graphics/SVG/1.1/DTD/svg11.dtd"><svg class="icon" width="200px" height="200.00px" viewBox="0 0 1024 1024" version="1.1" xmlns="http://www.w3.org/2000/svg"><path d="M767.5 457.6c0 160.4-73.2 296-173.5 339.8-22.2 9.7-45.7 42.1-70.1 42.1-30.9 0-60.4-35.6-87.6-50.8-91.3-51.2-156.1-180.2-156.1-331.1 0-146.9 61.4-273 148.8-326.9 29.2-18 61.2-59.5 94.8-59.5 25.5 0 50.1 37.3 73.2 47.9 98.8 45.2 170.5 179.7 170.5 338.5z" fill="#C17F44" /><path d="M523.8 844c-22.1 0-42.5-16.1-62.2-31.7-9.6-7.6-18.7-14.8-27.5-19.7-46.2-25.9-85.7-70.9-114.1-130.1-28.9-60.3-44.2-131.1-44.2-204.9 0-71.7 14.5-141 42-200.2 26.9-58 64.6-103.2 108.9-130.4 9.3-5.7 19-14 29.2-22.7 21.5-18.4 43.8-37.4 68-37.4 17 0 32.6 14 47.8 27.6 9.6 8.6 18.6 16.7 27.3 20.7 24.9 11.4 48.4 28.4 69.7 50.6 20.9 21.8 39.4 48.1 54.7 78.1 31.8 62.2 48.7 136.1 48.7 213.8 0 78.5-17.2 153.1-49.6 215.7-15.7 30.2-34.4 56.5-55.7 78.2-21.7 22.1-45.5 38.9-70.9 50-8.2 3.6-16.8 10.6-25.9 18.1-14.8 11.9-29.8 24.3-46.2 24.3z m0-768.3c-20.9 0-41.9 17.9-62.2 35.3-10.5 9-20.4 17.4-30.3 23.5-42.8 26.4-79.3 70.2-105.5 126.6-27 58.1-41.2 126-41.2 196.5 0 72.4 15 142 43.4 201.1 27.6 57.5 65.8 101.2 110.4 126.2 9.4 5.3 18.8 12.7 28.7 20.5 18.6 14.7 37.8 29.8 56.8 29.8 13.2 0 27-11.4 40.4-22.4 9.6-7.9 18.6-15.3 28-19.4 24.3-10.6 47.2-26.8 68.1-48.1 20.7-21.1 38.9-46.7 54.2-76.1 31.8-61.3 48.6-134.5 48.6-211.6 0-76.3-16.5-148.9-47.7-209.8-15-29.2-32.9-54.8-53.2-76-20.5-21.4-43.1-37.7-67-48.7-9.8-4.5-19.4-13.1-29.5-22.1-14-12.5-28.4-25.3-42-25.3z"  /><path d="M736.2 457.3c0 139.8-63.8 258-151.3 296.2-19.4 8.5-39.9 36.7-61.1 36.7-26.9 0-52.7-31-76.4-44.3-79.6-44.7-136-157-136-288.6 0-128.1 53.5-238 129.7-284.9 25.4-15.6 53.3-51.8 82.7-51.8 22.2 0 43.7 32.5 63.8 41.7 86.1 39.4 148.6 156.6 148.6 295z" fill="#FCECCF" /><path d="M523.8 794.7c-19.4 0-37.3-14.1-54.6-27.8-8.4-6.6-16.3-12.8-23.9-17.1-40.4-22.7-74.9-62-99.7-113.7-25.2-52.6-38.6-114.4-38.6-178.8 0-126.1 51.7-239.4 131.8-288.7 8.1-5 16.5-12.1 25.4-19.7 18.9-16.1 38.3-32.8 59.6-32.8 15 0 28.7 12.3 42 24.2 8.3 7.5 16.2 14.5 23.6 17.9 21.8 10 42.3 24.9 60.9 44.2 18.3 19 34.4 42 47.8 68.2 27.8 54.3 42.5 118.8 42.5 186.7 0 68.6-15 133.7-43.3 188.3-13.7 26.4-30.1 49.3-48.7 68.3-19 19.3-39.8 34-61.9 43.7-7.1 3.1-14.5 9.2-22.4 15.7-12.8 10.5-26 21.4-40.5 21.4z m0-669.7c-18 0-36.3 15.6-53.9 30.6-9.2 7.8-17.8 15.2-26.5 20.5-37.2 22.9-69 61-91.8 110.1-23.5 50.6-35.9 109.7-35.9 171 0 63.1 13.1 123.6 37.7 175 24 50 57.2 88 96 109.8 8.2 4.6 16.4 11.1 25.1 17.9 16.1 12.7 32.8 25.9 49.1 25.9 11.3 0 23.3-9.9 34.8-19.4 8.4-6.9 16.3-13.4 24.5-17 41.9-18.3 79.7-56.7 106.3-108 27.7-53.4 42.3-117 42.3-184.2 0-66.4-14.4-129.6-41.5-182.6-26.1-51-63.2-89.5-104.5-108.4-8.7-4-17-11.5-25.8-19.4-11.8-10.7-24.2-21.8-35.9-21.8z"  /><path d="M658 481.6c0-171.6-86.2-311.8-194.7-320.4-6.8 5.7-13.3 10.9-19.9 14.9-37.2 22.9-69 61-91.8 110.1-23.5 50.6-35.9 109.7-35.9 171 0 63.1 13.1 123.6 37.7 175 24 50 57.2 88 96 109.8 8.2 4.6 16.4 11.1 25.1 17.9 14.5 11.4 29.4 23.2 44.2 25.5 81.1-43 139.3-162.7 139.3-303.8z" fill="#FFF9E1" /><path d="M767.5 457.6c0 160.4-73.2 296-173.5 339.8-22.2 9.7-45.7 42.1-70.1 42.1-30.9 0-57.6-38.5-84.8-53.7-57.1-32-93.1-62.7-120.1-141.9-4.4-12.8 32.7-2.5 87.6 8.1 34 6.6 74-31.1 112.5-26 40.8 5.4 80 53.1 109.9 47.5 24.7-4.6 16.2-89 36.1-112.6 33.2-39.3 68.8-65.7-3.4-152.7-18.9-22.8 2.5-68.4 6.7-94.5 7.3-45.1-28.7-98.5-69.1-126.5C543 148 495.6 179.6 455 172.6c-15.3-2.6-23.5-25.5-29.4-28.8-5.9-3.4-5.7-7.5 3.4-13 29.2-18 61.2-59.5 94.8-59.5 25.5 0 50.1 37.3 73.2 47.9 98.8 45.1 170.5 179.6 170.5 338.4z" fill="#DB8E67" /><path d="M452.4 171.9c31.1-53.9 57.6-90.3 58.5-98.8-4.5 1.3-8.9 3.2-13.4 5.5-14.3 12.2-38.1 38.7-63.9 75.4 4.8 7 10.7 15.3 18.8 17.9zM441.6 787.3c20.6 12.6 41 37.4 63.2 47.7-19.3-25.7-79.2-92.7-117.7-186.9-13.6-2.8-25.6-5.3-35.7-7.1 24.7 60.7 59.4 110.8 90.2 146.3z" fill="#A5541E" opacity=".43" /><path d="M472.5 173.6c10.1-0.4 20.5-2.1 31.4-3.6 7.6-54 12.9-89.4 8.2-97.1-2.9 0.8-5.7 1.8-8.5 3-8.8 11.9-20.5 46.7-31.1 97.7zM513.7 838.2c2-24.9-13.7-103.7-24.2-209.2-10.9 3.1-21.7 7.8-32.4 12.2 11 91 27.9 160.9 41 190.2 5.1 3.1 10.3 5.5 15.6 6.8z" fill="#A5541E" opacity=".43" /><path d="M532.1 167.2c9.9-0.3 20 0.5 30.6 3-19.3-54.7-39.4-90.4-49.6-97.6-2 0.5-3.9 1.1-5.9 1.8-1.3 10 10.6 43.2 24.9 92.8zM518.8 839.2c17.1-21.4 47.5-88.1 68.8-179.5-9.8-6-20-12.9-30.5-19-19.1 96.5-45.7 169.4-49.6 195.4 3.7 1.6 7.5 2.6 11.3 3.1z" fill="#A5541E" opacity=".43" /><path d="M753.5 457.6c0-203.7-204.1-369.6-239.8-385.2-1.5 0.3-3 0.8-4.5 1.2 7.3 12.2 74.6 69.3 131 153 5.4 7.2 10.3 14.8 14.5 22.6 35.9 58.7 64.2 128.4 64.2 204 0 186.9-173.5 347.3-205.4 385 3.4 0.9 6.8 1.4 10.3 1.4h0.2c54-34.7 229.5-193 229.5-382z" fill="#A5541E" opacity=".43" /><path d="M523.8 841.8c-20.6 0-39.1-16.1-56.9-31.7-10-8.7-19.4-16.9-29-22.3-59.3-33.3-94.3-64.5-121.1-143.1-1-3.1-0.1-5 0.8-6.1 4.9-5.6 22.3-2.3 61.1 5.6 8.5 1.7 18.2 3.7 28.2 5.6 16.2 3.1 34.1-4.3 53-12.2 19.4-8.1 39.4-16.5 59.4-13.8 20 2.6 39.1 14.8 57.5 26.6 19 12.2 37 23.6 51.7 20.9 11.9-2.2 15.5-28.6 19-54.1 3.1-22.9 6.4-46.5 15.8-57.7 2.6-3.1 5.3-6.1 7.8-9.1 30.2-34.7 54.1-62.1-11.2-140.8-14.8-17.8-6.2-48.5 0.6-73.2 2.4-8.5 4.6-16.5 5.6-23.1 7.3-45-29.7-97.7-68.2-124.4-36.3-25.2-69.3-20.4-98.5-16.1-15.8 2.3-30.7 4.5-45 2-11-1.9-18.4-13-23.8-21.1-2.4-3.6-4.7-7.1-6.3-8-3.3-1.9-5.1-4.2-5.1-6.8-0.1-3.3 2.6-6.5 8.4-10.1 9.5-5.8 19.2-14.1 29.5-22.9C478.5 87.8 500.5 69 523.8 69c16.2 0 31.5 13.7 46.3 27 9.7 8.7 18.9 16.9 27.8 21 24.7 11.3 47.9 28.2 69 50.1 20.8 21.6 39.1 47.7 54.3 77.5 31.7 61.9 48.4 135.5 48.4 212.8 0 78.2-17.1 152.4-49.4 214.7-15.6 30-34.2 56.1-55.3 77.7-21.5 21.9-45.1 38.6-70.2 49.5-8.5 3.7-17.2 10.9-26.4 18.4-14.2 11.9-28.9 24.1-44.5 24.1zM327 640.2c-3.1 0-5.2 0.4-6 1.3-0.3 0.3-0.3 0.9 0 1.7 26.3 77.2 60.8 108 119.1 140.7 10 5.6 19.6 14 29.7 22.8 17.2 15 35 30.6 54 30.6 13.9 0 28.1-11.6 41.8-22.9 9.5-7.8 18.4-15.1 27.4-19.1 24.5-10.7 47.7-27.1 68.8-48.6 20.8-21.3 39.2-47 54.6-76.6 32-61.6 48.9-135.1 48.9-212.6 0-76.7-16.6-149.6-47.9-210.8-15.1-29.4-33.1-55.2-53.6-76.5-20.7-21.6-43.5-38.1-67.7-49.2-9.5-4.4-19-12.8-28.9-21.8-14.2-12.7-28.9-25.9-43.3-25.9-21.7 0-43.1 18.2-63.7 35.8-10.4 8.9-20.2 17.3-30 23.3-5.7 3.5-6.3 5.5-6.3 6.2 0 0.9 1 1.9 2.9 3 2.5 1.4 4.8 4.9 7.8 9.4 5 7.4 11.7 17.6 20.9 19.2 13.6 2.4 28.2 0.2 43.6-2 30-4.4 64-9.3 101.6 16.9 20.8 14.4 40.1 35.4 53 57.6 14.6 25 20.4 49.6 17 71.1-1.1 6.9-3.4 15-5.8 23.6-6.6 23.7-14.7 53.2-1.5 69.2 67.7 81.6 41.5 111.7 11.1 146.6-2.5 2.9-5.2 5.9-7.8 9-8.6 10.2-11.8 33.2-14.8 55.5-3.9 28.3-7.5 55-22.5 57.8-16.5 3.1-35.1-8.9-54.9-21.5-18-11.5-36.7-23.5-55.7-26-18.8-2.5-38.2 5.7-57.1 13.5-19.5 8.2-38 15.9-55.5 12.5-10.1-1.9-19.7-3.9-28.3-5.7-20.9-4-41-8.1-50.9-8.1z"  /><path d="M459.8 363.1s-0.1 0 0 0c-2.5 0-4.5-2.1-4.4-4.5 0.1-6.8-2.6-13.4-7.5-18.5-5.5-5.7-13.4-9-21.6-9.1h-0.5c-16.1 0-29.3 11.9-29.6 26.8 0 2.4-2 4.4-4.4 4.4h-0.1c-2.4 0-4.4-2.1-4.4-4.5 0.3-19.7 17.5-35.5 38.4-35.5h0.6c10.6 0.1 20.7 4.4 27.9 11.8 6.6 6.8 10.2 15.6 10 24.8 0 2.3-2 4.3-4.4 4.3zM583.3 364.9s-0.1 0 0 0c-2.5 0-4.5-2.1-4.4-4.5 0.1-6.8-2.6-13.4-7.5-18.5-5.5-5.7-13.4-9-21.6-9.1-16.3-0.2-29.8 11.8-30 26.8 0 2.4-2 4.4-4.4 4.4h-0.1c-2.4 0-4.4-2.1-4.4-4.5 0.3-19.7 17.5-35.5 38.4-35.5h0.6c10.6 0.1 20.7 4.4 27.9 11.8 6.6 6.8 10.2 15.6 10 24.8-0.1 2.3-2.1 4.3-4.5 4.3zM481.2 455.7h-0.6c-10.6-0.2-20.7-4.4-27.9-11.8-6.6-6.8-10.2-15.6-10-24.8 0-2.4 2-4.4 4.4-4.4h0.1c2.4 0 4.4 2.1 4.4 4.5-0.1 6.8 2.6 13.4 7.5 18.5 5.5 5.7 13.4 9 21.6 9.1 16.3 0.2 29.8-11.8 30-26.8 0-2.4 2.1-4.4 4.5-4.4s4.4 2.1 4.4 4.5c-0.2 19.7-17.4 35.6-38.4 35.6z" fill="#000333" /><path d="M589.86958 419.118862a29.899402 19.799604 0.715 1 0 0.494149-39.596124 29.899402 19.799604 0.715 1 0-0.494149 39.596124Z" fill="#FF6666" /><path d="M379.722231 419.066664a29.899402 19.799604 0.715 1 0 0.49415-39.596124 29.899402 19.799604 0.715 1 0-0.49415 39.596124Z" fill="#FF6666" /><path d="M429.6 947.4c-1.1 0-2.2-0.4-3.1-1.3-25.4-24.8-34.5-61.5-26.2-106 6.2-33.2 19.6-58.7 20.1-59.8 1.1-2.2 3.8-3 6-1.8 2.2 1.1 3 3.8 1.8 6-0.1 0.3-13.4 25.6-19.3 57.5-7.8 42 0.2 74.9 23.7 97.9 1.7 1.7 1.8 4.5 0.1 6.3-0.8 0.7-1.9 1.2-3.1 1.2zM640.2 888.7c-26 0-42.5-6.8-49.1-20.3-15.9-32.1 32.3-89.1 34.3-91.5 1.6-1.9 4.4-2.1 6.2-0.5 1.9 1.6 2.1 4.4 0.5 6.2-13 15.2-44.2 59.5-33.1 81.8 5.7 11.5 22.4 16.6 49.7 15.2 2.4-0.1 4.5 1.7 4.7 4.2 0.1 2.4-1.7 4.5-4.2 4.7-3.1 0.1-6.1 0.2-9 0.2zM208.5 461.7h-2.1c-44.7-1.3-75.3-44.2-76.6-46-1.4-2-0.9-4.8 1.1-6.2 2-1.4 4.8-0.9 6.2 1.1 0.3 0.4 29.4 41.1 69.7 42.3 24.8 0.7 49-13.6 71.9-42.5 1.5-1.9 4.3-2.2 6.2-0.7 1.9 1.5 2.2 4.3 0.7 6.2-24.2 30.4-50.1 45.8-77.1 45.8zM824.2 455.7h-2.1c-44.7-1.3-75.3-44.2-76.6-46-1.4-2-0.9-4.8 1.1-6.2 2-1.4 4.8-0.9 6.2 1.1 0.3 0.4 29.4 41.1 69.7 42.3 24.8 0.7 49-13.6 71.9-42.5 1.5-1.9 4.3-2.2 6.2-0.7 1.9 1.5 2.2 4.3 0.7 6.2-24.2 30.3-50.1 45.8-77.1 45.8z"  /></svg>