<?xml version="1.0" standalone="no"?><!DOCTYPE svg PUBLIC "-//W3C//DTD SVG 1.1//EN" "http://www.w3.org/Graphics/SVG/1.1/DTD/svg11.dtd"><svg class="icon" width="200px" height="200.00px" viewBox="0 0 1024 1024" version="1.1" xmlns="http://www.w3.org/2000/svg"><path d="M86.8 603.3c-1.4 0-2.9-0.7-3.7-2-1.3-2-0.7-4.7 1.4-6 60.2-38 110.6-39.7 142.4-34.5 34.6 5.7 54.8 20.3 55.6 21 1.9 1.4 2.3 4.2 0.9 6.1-1.4 1.9-4.2 2.3-6.1 0.9-0.2-0.1-19.6-14.2-52.3-19.4-19.2-3.1-39.1-2.6-59.3 1.5-25.3 5.1-51.1 15.8-76.5 31.9-0.8 0.3-1.6 0.5-2.4 0.5zM353.4 906.9c-1.8 0-3.4-1.1-4.1-2.8-6.3-16.6 0.4-34.3 21.1-55.9 20.5-21.4 53.4-45.2 85.9-67.6 2-1.4 4.7-0.9 6.1 1.1 1.4 2 0.9 4.7-1.1 6.1-30.6 21.2-64.6 45.6-84.6 66.5-18.1 18.9-24.2 33.7-19.2 46.8 0.9 2.3-0.3 4.8-2.5 5.6-0.5 0.1-1 0.2-1.6 0.2zM659.1 385.2c-1 0-2-0.3-2.8-1-0.1-0.1-11.8-9.9-30.7-14.9-25.1-6.7-50.5-2.2-75.3 13.3-2 1.3-4.7 0.7-6-1.4-1.3-2-0.7-4.7 1.4-6 33.8-21.1 63.6-19.4 82.6-14.2 20.6 5.6 33.2 16.1 33.7 16.6 1.8 1.6 2.1 4.3 0.5 6.2-1 0.9-2.2 1.4-3.4 1.4z"  /><path d="M540.1 390.4a18.3 19.4 0 1 0 36.6 0 18.3 19.4 0 1 0-36.6 0Z"  /><path d="M465.6 380.2c-1 0-2-0.3-2.8-1-0.1-0.1-11.8-9.9-30.7-14.9-25.1-6.7-50.5-2.2-75.3 13.3-2 1.3-4.7 0.7-6-1.4-1.3-2-0.7-4.7 1.4-6 33.8-21.1 63.6-19.4 82.6-14.2 20.6 5.6 33.2 16.1 33.7 16.6 1.8 1.6 2.1 4.3 0.5 6.2-0.9 0.9-2.1 1.4-3.4 1.4z"  /><path d="M346.6 385.4a18.3 19.4 0 1 0 36.6 0 18.3 19.4 0 1 0-36.6 0Z"  /><path d="M504.9 561.5c-0.7 0-1.4-0.2-2-0.5-19.9-10.3-30.3-7.5-35.3-6.2-0.5 0.1-1 0.3-1.4 0.4-4 0.9-14.3 2.5-22-3.3-5-3.8-7.8-9.7-8.3-17.6-0.8-12.7 9.8-18.9 19-22-6.4-5.2-8.8-13.5-10.2-18.2-2.1-7.2-1-26.8 8.4-32.2 3.7-2.1 9.9-2.8 17.9 5.7 14.8 15.8 34.9 9.3 35.7 9 2.3-0.8 4.8 0.5 5.5 2.7 0.8 2.3-0.4 4.7-2.7 5.5-1.1 0.4-26.3 8.7-44.9-11.3-3.1-3.3-5.8-4.9-7.2-4.1-3.4 1.9-6.4 14.8-4.3 22.2 2.3 7.8 5.2 15.6 14.2 16.6 2.1 0.2 6.1 0.7 6.3 4.6 0.2 3.9-3.4 4.7-6.3 5.2-10.8 2.2-23.2 5.9-22.6 15.7 0.3 5.3 1.9 9 4.8 11.2 5.1 3.8 13.2 2.2 14.8 1.8 0.3-0.1 0.7-0.2 1.2-0.3 5.6-1.5 18.6-5 41.5 6.9 2.1 1.1 3 3.7 1.9 5.9-0.9 1.5-2.4 2.3-4 2.3z"  /><path d="M248.9 511a70.5 63.9 0 1 0 141 0 70.5 63.9 0 1 0-141 0Z" fill="#FF6666" opacity=".2" /><path d="M588.6 511a70.5 63.9 0 1 0 141 0 70.5 63.9 0 1 0-141 0Z" fill="#FF6666" opacity=".2" /><path d="M543 182.2c-1.9 0-3.7-1.3-4.2-3.3-0.1-0.6-3.6-14-1.8-34.5 1.7-18.8 8.3-47.3 30.5-76.7 1.5-1.9 4.2-2.3 6.1-0.9 1.9 1.5 2.3 4.2 0.9 6.1-40 53-27.4 103.2-27.2 103.7 0.6 2.3-0.8 4.7-3.1 5.3-0.4 0.3-0.8 0.3-1.2 0.3z"  /><path d="M783 201.7L303.3 194c-1.1-0.6-2.2-1.2-3.2-1.9-51.5 33-88.2 84.3-88.2 163.3 0 195.5 162.6 460.9 327.7 460.9 163.7 0 316.1-283.2 316.1-458.3 0.1-73-29.5-122.7-72.7-156.3z" fill="#E22323" /><path d="M539.7 811.5c-34.5 0-97.8-18.9-145.1-63.1-31-28.9-62.2-63.3-89.5-102.8 23.1 25 60.6 46.8 89.5 62.7 49.2 29.3 83.5 44.8 116 44.8 58 0 133.6-62.5 203.2-150.9 71.3-90.5 96.8-183.4 96.8-261.9 0-55.3-9-96.4-50.3-129.9l21-4C827.6 242.9 851 293.9 851 358c0 43.8-6.1 97.2-27.1 151-19.6 50.1-40.9 105.6-73.6 152.1-32.2 45.9-61.4 80.1-95.9 107.8-36 29-87.1 42.6-114.7 42.6z" fill="#D31813" /><path d="M539.7 820.7c-77.6 0-161.2-58-229.4-159-30.8-45.6-56.5-97.5-74.5-150.3-18.5-54.2-28.2-108.1-28.2-155.9 0-72.5 30.3-128.7 90.2-167l2.5-1.6 2.4 1.7 1.8 1.2 480.1 7.7 1.2 0.9c49.4 38.4 74.4 92.1 74.4 159.8 0 43.2-9.2 94-26.6 146.8-17.2 52.3-41.7 104.3-70.7 150.3-30.8 48.7-66.1 89.4-102 117.6-40.5 31.6-81.3 47.8-121.2 47.8zM300.2 197.3c-55.6 36.6-83.8 89.8-83.8 158.1 0 46.8 9.6 99.7 27.7 153.1 17.7 52 43.1 103.3 73.4 148.2 66.6 98.6 147.6 155.2 222.2 155.2 37.9 0 76.8-15.5 115.7-46.1 35.1-27.6 69.7-67.5 100-115.4 28.7-45.4 52.8-96.7 69.8-148.4 17.1-52 26.1-101.8 26.1-144.1 0-64.3-23.5-115.4-69.9-152l-479.3-7.7-0.9-0.5c-0.3 0-0.7-0.2-1-0.4z"  /><path d="M421.1 195.9L303.3 194c-1.1-0.6-2.2-1.2-3.2-1.9-1 0.7-2.1 1.4-3.1 2l124.1 1.8z" fill="#DA4D33" /><path d="M421.1 195.9L303.3 194c-1.1-0.6-2.2-1.2-3.2-1.9-1 0.7-2.1 1.4-3.1 2l124.1 1.8z" fill="#DA4D33" /><path d="M259.1 372.3c-2.4 0-4.4-2-4.4-4.4v-24.2c0-2.4 2-4.4 4.4-4.4 2.4 0 4.4 2 4.4 4.4v24.2c0 2.5-2 4.4-4.4 4.4zM340.1 312.6c-2.4 0-4.4-2-4.4-4.4V284c0-2.4 2-4.4 4.4-4.4s4.4 2 4.4 4.4v24.2c-0.1 2.4-2 4.4-4.4 4.4zM766.6 468.4c-2.4 0-4.4-2-4.4-4.4v-24.2c0-2.4 2-4.4 4.4-4.4 2.4 0 4.4 2 4.4 4.4V464c0 2.4-2 4.4-4.4 4.4zM727.6 316.6c-2.4 0-4.4-2-4.4-4.4V288c0-2.4 2-4.4 4.4-4.4 2.4 0 4.4 2 4.4 4.4v24.2c0 2.5-2 4.4-4.4 4.4zM797.7 376.4c-2.4 0-4.4-2-4.4-4.4v-24.2c0-2.4 2-4.4 4.4-4.4 2.4 0 4.4 2 4.4 4.4V372c-0.1 2.5-2 4.4-4.4 4.4zM320.4 593.1c-2.4 0-4.4-2-4.4-4.4v-24.2c0-2.4 2-4.4 4.4-4.4 2.4 0 4.4 2 4.4 4.4v24.2c-0.1 2.4-2 4.4-4.4 4.4zM499.8 724.8c-2.4 0-4.4-2-4.4-4.4v-24.2c0-2.4 2-4.4 4.4-4.4 2.4 0 4.4 2 4.4 4.4v24.2c-0.1 2.5-2 4.4-4.4 4.4zM595.7 610.9c-2.4 0-4.4-2-4.4-4.4v-24.2c0-2.4 2-4.4 4.4-4.4 2.4 0 4.4 2 4.4 4.4v24.2c0 2.5-2 4.4-4.4 4.4zM611.5 712.7c-2.4 0-4.4-2-4.4-4.4v-24.2c0-2.4 2-4.4 4.4-4.4 2.4 0 4.4 2 4.4 4.4v24.2c0 2.5-2 4.4-4.4 4.4zM698.6 647.2c-2.4 0-4.4-2-4.4-4.4v-24.2c0-2.4 2-4.4 4.4-4.4 2.4 0 4.4 2 4.4 4.4v24.2c-0.1 2.4-2 4.4-4.4 4.4z" fill="#CCB429" /><path d="M777.7 178.8l-117.9-18.3c-6.7-1.6-15.4-1.6-23.1 0.2l-85 10.1L447 160.5c-6.7-1.6-15.4-1.6-23.1 0.2l-109 18.8c-16.1 3.7-20.1 12.7-8.8 17.3 0.8 0.3 1.7 0.6 2.7 0.9l93.1 26.2c6.4 1.8 14.9 1.9 22.6 0.4l60-12-35.8 23.8c-4.8 3.2-5.8 7-2.8 10.1l47 47.4c6.9 7 29.9 7 41.5 0.1l74.5-44.4c5.1-3 6.7-6.8 4.1-10L596.9 219l17.8 5c6.4 1.8 14.9 1.9 22.6 0.4l115.3-23 18.6-3.7c18.9-3.9 22.8-14.9 6.5-18.9z" fill="#C1DD3D" /><path d="M511.7 303.2c-9 0-17.5-2-22-6.6l-47-47.4c-2.2-2.2-3.2-5-3-7.7 0.2-2.3 1.5-5.8 6.4-9l17.3-11.5-38.2 7.6c-8.4 1.7-17.6 1.5-24.7-0.5l-93.1-26.2c-1.1-0.3-2.1-0.7-3.1-1-8.8-3.5-9.3-9.1-9.2-11.4 0.5-6.4 7.3-11.6 18.6-14.2h0.2L423 156.4c8.2-1.9 17.4-2 24.7-0.3l103.9 10.2 84.3-10c8.2-1.9 17.4-1.9 24.7-0.2l117.9 18.3h0.2c12.4 3 13.6 9.6 13.5 12.2-0.1 6.9-7.7 12.5-20.3 15.1L638 228.5c-8.4 1.7-17.6 1.5-24.7-0.5l-4.8-1.4 7.7 9.7c1.7 2.2 2.4 4.9 2 7.5-0.4 2.4-2 5.8-7.3 9l-74.5 44.5c-6.1 3.8-15.7 5.9-24.7 5.9z m-6.4-99.5l-54.3 36c-2 1.3-2.5 2.4-2.5 2.7 0 0.1 0.1 0.4 0.5 0.7l47 47.4c5 5.1 25.7 5.7 36.1-0.6l74.5-44.4c2.3-1.4 3.1-2.6 3.2-3 0-0.1-0.1-0.3-0.2-0.5L585 211.1l30.7 8.7c5.7 1.6 13.6 1.7 20.6 0.3l133.9-26.8c10-2 13.3-5.6 13.3-6.7 0-0.3-1.2-2.2-6.7-3.5l-117.9-18.3h-0.2c-6-1.5-14.1-1.4-21.1 0.2l-0.5 0.1-85.5 10.1h-0.5l-105-10.3-0.3-0.1c-6-1.5-14.1-1.4-21.1 0.2h-0.2l-108.9 18.8c-8.8 2.1-11.7 5.4-11.8 6.3 0 0.2 0.6 1.4 3.7 2.6 0.7 0.3 1.4 0.5 2.2 0.8l93.1 26.2c5.7 1.6 13.6 1.7 20.6 0.3l81.9-16.3z"  /><path d="M299.8 188.6l245.4-18.2-182.3 43.2-54.3-15.9c0.1 0-9.9-3.6-8.8-9.1zM786.1 187l-233.7-17.5 154.7 41.4 64.4-15.2c0 0.1 12.3-3.4 14.6-8.7z" fill="#C1DD3D" opacity=".35" /><path d="M549.6 170.4l-73.1 101.5 18.2 22.2s23.8 11.5 46.4-5.2 23.8-14.2 23.8-14.2l-15.3-104.3z" fill="#C1DD3D" opacity=".36" /><path d="M817.7 547c-3.3 0-6.7-0.1-10.2-0.3-33.4-1.9-57.9-12.5-59-13-2.2-1-3.2-3.5-2.2-5.7s3.5-3.2 5.7-2.2c0.2 0.1 24.3 10.5 56.2 12.3 42.4 2.4 77.8-10.7 105.3-38.8 1.7-1.7 4.4-1.8 6.2-0.1 1.7 1.7 1.8 4.4 0.1 6.2-26.7 27.3-61.9 41.6-102.1 41.6zM630.4 887.6c-0.6 0-1.2-0.1-1.8-0.4-52.6-23.2-13.1-132.6-11.4-137.3 0.8-2.3 3.3-3.4 5.6-2.6 2.3 0.8 3.4 3.3 2.6 5.6-0.4 1.1-38.4 106.3 6.8 126.3 2.2 1 3.2 3.6 2.2 5.8-0.7 1.7-2.3 2.6-4 2.6z"  /><path d="M470.3 548s3.2 56.6 32.9 54 25-59.7 25-59.7" fill="#DD2A00" /><path d="M481 543.7l6.8 31.1c0.2 1 1.1 1.7 2.2 1.7h5.3c1.2 0 2.2-1 2.2-2.2l0.5-23 2.4 24.4c0.3 0.9 1.2 1.5 2.2 1.5l7.1 0.1c1.1 0 3-1.9 3.1-3l2.3-35.4-20.1-4.8-14 9.6z" fill="#FFFFFF" /><path d="M469.8 549.9c-9.2 0-16.7-3.1-17-3.2-2.2-0.9-3.3-3.5-2.4-5.7 0.9-2.2 3.5-3.3 5.7-2.4 1 0.4 25 9.9 34.4-10.6 0.6-1.3 1.9-2.3 3.3-2.5 1.5-0.2 2.9 0.3 3.9 1.4 0.7 0.8 18.3 19.6 42.2 6.5 2.1-1.2 4.8-0.4 5.9 1.7 1.2 2.1 0.4 4.8-1.7 5.9-7.5 4.2-14.6 5.7-21 5.7-12.4 0-22.1-5.9-27.4-10.1-5.6 8.5-14.3 13-25.3 13.2-0.2 0.1-0.4 0.1-0.6 0.1z"  /><path d="M502.7 581.3c-8.5 0-16.1 3.6-20.8 9.1 4.8 7.6 11.6 12.9 21.2 12 8.9-0.8 14.7-6.4 18.5-14-4.7-4.3-11.4-7.1-18.9-7.1z" fill="#FF6666" /><path d="M501.2 606.4c-6 0-11.5-2.1-16.2-6.2-16.8-14.5-19-50.5-19.1-52-0.1-2.4 1.7-4.5 4.1-4.6 2.4-0.1 4.5 1.7 4.6 4.1 0 0.3 2.1 33.8 16.1 45.9 3.6 3.1 7.5 4.4 12.1 4 10.1-0.9 16.7-10 19.7-27.1 2.4-13.9 1.3-27.8 1.3-27.9-0.2-2.4 1.6-4.5 4-4.7 2.4-0.2 4.5 1.6 4.7 4 0.2 2.5 4.7 61.6-28.9 64.4-0.9 0.1-1.6 0.1-2.4 0.1z"  /><path d="M409.9 437.9c-5.2-5.5-14.3-4.7-18.3 1.7-6.4 10.2-19.1 23-34.4 19.1-22.3-5.6-4.5-64.6 49-66.8 53.5-2.2 63.5 31 63.5 42.3 0 10.6-4.3 25.2-24.5 25.1-20.7-0.1-27.2-12.8-35.3-21.4z" fill="#FFFFFF" /><path d="M362.6 463.8c-2.2 0-4.4-0.3-6.6-0.8-8.9-2.2-13.7-11-12.5-22.8 2.1-20.9 22.9-51 62.4-52.6 23.6-1 41.7 4.5 54 16.3 10.4 10 14.1 22.6 14.1 30.4 0 6.4-1.4 15.5-8 22-5 5-12.1 7.5-20.9 7.4-19.1-0.1-27.6-10.2-34.5-18.3-1.3-1.6-2.6-3.1-3.9-4.5-1.6-1.7-3.8-2.5-6-2.3-2.3 0.2-4.2 1.4-5.5 3.3-2.4 3.8-7.6 11-15.1 16.1-5.6 3.8-11.6 5.8-17.5 5.8z m48.6-67.6c-1.6 0-3.3 0-4.9 0.1-20 0.8-51.1 15.6-54.1 44.8-0.4 3.5-0.5 11.8 5.9 13.5 3.8 0.9 17.2 2.5 29.7-17.2 2.7-4.2 7-6.9 12-7.4s9.8 1.3 13.2 5c1.5 1.6 2.9 3.2 4.2 4.9 6.5 7.8 12.7 15.1 27.8 15.2h0.2c6.3 0 11.2-1.6 14.5-4.9 4.7-4.7 5.4-11.9 5.4-15.9 0-4.9-2.4-15.5-11.4-24.1-9.5-9.4-23.8-14-42.5-14z"  /><path d="M410.9 408.1c0 4.8-4.3 10.4-9.6 10.4s-9.6-5.6-9.6-10.4 4.3-7.4 9.6-7.4c5.3 0.1 9.6 2.6 9.6 7.4z"  /><path d="M607.5 438.8c-5.2-5.5-14.3-4.7-18.3 1.7-6.4 10.2-19.1 25.8-34.4 22-22.3-5.6-4.5-64.6 49-66.8s63.5 31 63.5 42.3c0 10.6-4.3 25.2-24.5 25.1-20.7-0.2-27.1-15.7-35.3-24.3z" fill="#FFFFFF" /><path d="M643 467.4h-0.3c-18.4-0.1-26.8-11-33.6-19.8-1.7-2.2-3.2-4.2-4.8-5.9-1.6-1.7-3.8-2.5-6-2.3-2.3 0.2-4.2 1.4-5.5 3.3-11.9 18.7-25.8 27.2-39.2 23.9-8.9-2.2-13.7-11-12.5-22.8 2.1-20.9 22.9-51 62.4-52.6 23.6-1 41.7 4.5 54 16.3 10.4 10 14.1 22.6 14.1 30.4 0 6.4-1.4 15.5-8 22-5 5-11.9 7.5-20.6 7.5z m-32.3-31.6c1.9 2 3.6 4.2 5.4 6.5 6.2 8 12.6 16.3 26.7 16.4h0.2c6.3 0 11.2-1.6 14.5-4.9 4.7-4.7 5.4-11.9 5.4-15.9 0-4.9-2.4-15.5-11.4-24.1-10.5-10-26.5-14.7-47.6-13.8-20 0.8-51.1 15.6-54.1 44.8-0.4 3.5-0.5 11.8 5.9 13.5 12.7 3.2 24.1-11.2 29.7-20.1 2.7-4.2 7-6.9 12-7.4 5.1-0.5 9.9 1.3 13.3 5z"  /><path d="M615.2 409.4c0 4.8-4.3 10.4-9.6 10.4s-9.6-5.6-9.6-10.4 4.3-7.4 9.6-7.4 9.6 2.6 9.6 7.4zM446.9 360.3c-0.7 0-1.5-0.1-2.3-0.3-4.8-1.1-7.9-3.7-10.2-5.6-1.6-1.3-2.6-2.1-3.5-2.3-0.5 0.4-1.4 1.6-1.9 2.3-1.7 2.3-3.8 5.2-7.4 5.6-2.2 0.3-4.4-0.5-6.5-2.3-2.4-2-16.9-1.5-30.4 1-2.4 0.4-4.6-1.1-5.1-3.5-0.4-2.4 1.1-4.6 3.5-5.1 9-1.7 30.5-4.9 37.6 0.9 0.4-0.5 0.9-1.2 1.3-1.7 1.8-2.5 4.3-6 8.7-6 4.2 0 6.9 2.3 9.3 4.3 1.9 1.6 3.8 3.2 6.5 3.8 2.4 0.5 5.7-4.9 6.8-8.2 0.8-2.3 3.3-3.5 5.6-2.7 2.3 0.8 3.5 3.3 2.7 5.6-2 5.7-7.1 14.2-14.7 14.2zM583 365.8c-3 0-7.1-1.3-11-6.9-2.3-3.4-3.6-7-3.7-7.1-0.8-2.3 0.4-4.8 2.7-5.6 2.3-0.8 4.8 0.4 5.6 2.7 1.2 3.2 4.4 8.7 6.8 8.2 2.7-0.6 4.5-2.1 6.5-3.8 2.4-2 5.2-4.3 9.3-4.3 4.4 0 6.9 3.4 8.7 6 0.4 0.5 0.9 1.2 1.3 1.7 7-5.8 28.6-2.5 37.6-0.9 2.4 0.4 3.9 2.7 3.5 5.1-0.4 2.4-2.7 3.9-5.1 3.5-13.8-2.6-28-3-30.4-1-2.1 1.8-4.3 2.6-6.5 2.3-3.6-0.4-5.7-3.3-7.4-5.6-0.5-0.7-1.4-1.9-1.9-2.3-0.9 0.1-1.9 0.9-3.5 2.3-2.3 1.9-5.4 4.5-10.2 5.6-0.7 0-1.5 0.1-2.3 0.1z"  /><path d="M349.4 509.2c10.4-8.3 35.1-12.3 57-10.5 24.8 2 39.4 11.3 37.2 21.3-0.8 3.8-3.5 7.6-9 10.7-9.1 5-25.2 7.4-40.4 7-21.2-0.6-41.4-6.7-47.4-15-3.7-5-2.2-9.6 2.6-13.5z" fill="#FF6666" /><path d="M377.5 522.5c-0.6 0-1.2-0.2-1.7-0.7-1.1-1-1.2-2.6-0.2-3.7 1.7-1.9 3.2-3.9 4.5-6 0.8-1.2 2.4-1.6 3.6-0.8 1.2 0.8 1.6 2.4 0.8 3.6-1.5 2.4-3.2 4.6-5 6.7-0.6 0.6-1.3 0.9-2 0.9zM389.6 527.5c-0.5 0-1-0.2-1.5-0.5-1.2-0.8-1.5-2.5-0.7-3.6 3.5-5.1 6.9-10.4 9.9-15.8 0.7-1.3 2.3-1.7 3.6-1 1.3 0.7 1.7 2.3 1 3.6-3.1 5.5-6.5 11-10.2 16.2-0.5 0.7-1.3 1.1-2.1 1.1zM408 522.9c-0.6 0-1.2-0.2-1.7-0.6-1.1-0.9-1.3-2.6-0.3-3.7 1.7-2.1 3.3-4.4 4.5-6.8 0.7-1.3 2.2-1.8 3.5-1.1 1.3 0.7 1.8 2.2 1.1 3.5-1.4 2.8-3.1 5.4-5.1 7.8-0.5 0.6-1.2 0.9-2 0.9z" fill="#FFFFFF" /><path d="M577.1 516.1c10.4-8.3 35.1-12.3 57-10.5 24.8 2 39.4 11.3 37.2 21.3-0.8 3.8-3.5 7.6-9 10.7-9.1 5-25.2 7.4-40.4 7-21.2-0.6-41.4-6.7-47.4-15-3.7-5-2.2-9.7 2.6-13.5z" fill="#FF6666" /><path d="M642 530.6c-0.7 0-1.4-0.3-2-0.9-1.9-2.1-3.6-4.3-5-6.7-0.8-1.2-0.4-2.8 0.8-3.6 1.2-0.8 2.8-0.4 3.6 0.8 1.3 2.1 2.8 4.1 4.5 6 1 1.1 0.9 2.7-0.2 3.7-0.5 0.5-1.1 0.7-1.7 0.7zM629.9 535.7c-0.8 0-1.6-0.4-2.2-1.1-3.6-5.2-7.1-10.7-10.2-16.2-0.7-1.3-0.3-2.9 1-3.6 1.3-0.7 2.9-0.3 3.6 1 3 5.4 6.4 10.7 9.9 15.8 0.8 1.2 0.5 2.8-0.7 3.6-0.4 0.3-0.9 0.5-1.4 0.5zM611.4 531.1c-0.8 0-1.5-0.3-2-0.9-2-2.4-3.7-5-5.1-7.8-0.7-1.3-0.2-2.9 1.1-3.5 1.3-0.7 2.9-0.2 3.5 1.1 1.2 2.4 2.8 4.7 4.5 6.8 0.9 1.1 0.8 2.8-0.3 3.7-0.5 0.4-1.1 0.6-1.7 0.6z" fill="#FFFFFF" /></svg>