<?xml version="1.0" standalone="no"?><!DOCTYPE svg PUBLIC "-//W3C//DTD SVG 1.1//EN" "http://www.w3.org/Graphics/SVG/1.1/DTD/svg11.dtd"><svg class="icon" width="200px" height="200.00px" viewBox="0 0 1024 1024" version="1.1" xmlns="http://www.w3.org/2000/svg"><path d="M685.9 780.4l-392.7-28c-13.4 0-25.5-10.4-26.8-23l-0.3-2.6c-4-39.2-3.1-78.7 2.7-117.7 0.2-1.6 0.4-3 0.6-4.4l7.6-58.9c3.1-23.9 4-47.9 2.7-71.9l-4.1-77.1c-1.2-22.2-4.2-44.2-9-66-6-26.8-12.5-52.5-15.8-78.5-4.6-36.5-15.1-47 4.2-78.8 0.3-0.5 18.7-27.5 19-28 8.1-12.4 23.1-19.1 38.4-17.8l77.6 6.4c30.5 2.5 61.2 2 91.6-1.5l9.5-1.1c31-3.6 62.4-4 93.5-1.3l10.5 0.9c29.7 2.6 59.5 2.3 89.1-0.8l31.7-3.3c10.3-1.1 21 5.3 25.9 11.5 5.5 7.1 7.7 16 6 24.6-3.3 16.5-8.5 47.5-6.1 67.1l3.2 12.1c10.9 41.1 19.1 41.7 13.7 83.8l-17.3 66.4c-1.9 7.2-2.9 14.5-3.1 21.9-0.5 16.9-0.4 36.4 6.3 53.8 4.7 12.3 8.2 25 10.1 38l0.2 1.8c2.1 15.1-0.6 46.8-3.4 75.7-2.8 28.7-8.7 55.1-4.8 85.6 1.3 10.1 2.2 20.2 2.6 30.4l1 27c5.8 18-49.3 53.7-64.3 53.7z" fill="#EBA674" /><path d="M729.5 523.9l-0.2-1.8c-1.8-13-5.3-25.7-10.1-38-6.7-17.4-6.9-37-6.3-53.8 0.2-7.4 1.3-14.7 3.1-21.9l17.3-66.4c5.4-42.1-2.8-42.7-13.7-83.8l-3.2-12.1c-2.4-19.6 2.8-50.6 6.1-67.1 1.7-8.6-0.4-17.6-6-24.6-4.9-6.2-15.6-12.6-25.9-11.5l-31.7 3.3c-29.6 3.1-59.5 3.4-89.1 0.8l-10.5-0.9c-31.1-2.7-62.5-2.2-93.5 1.3l-9.5 1.1c-30.4 3.5-61.1 4-91.6 1.5l-77.6-6.4c-8.6-0.7-11.7 7.2-19 11.1-4.9 7.3-16.6 24.5-16.9 24.8-19.3 31.9-14.3 36.3-9.7 72.8 3.3 25.9 9.8 51.6 15.8 78.5 4.8 21.7 7.9 43.8 9 66l4.1 77.1c1.3 24 0.4 48.1-2.7 71.9l-7.6 58.9c-0.2 1.4-0.4 2.8-0.6 4.4-5.7 39-6.7 78.5-2.7 117.7l0.3 2.6c1.3 12.7 13.3 23 26.8 23l392.7 28c8.1 0 27.9-10.4 43.5-22.9 4.1-5.5 6.1-10.7 4.7-14.9l-1-27c-0.4-10.2-1.3-20.3-2.6-30.4-3.8-30.5 2-56.9 4.8-85.6 2.9-28.9 5.6-60.7 3.5-75.7z" fill="#F6BC7D" /><path d="M685.9 784.9h-0.3l-392.6-28c-15.6-0.1-29.5-12.2-31-27.1l-0.3-2.6c-4-39.3-3.1-79.3 2.7-118.8 0.2-1.5 0.4-3 0.6-4.3l7.6-58.9c3-23.5 3.9-47.5 2.7-71.1l-4.1-77.1c-1.2-21.9-4.2-43.8-8.9-65.2-1.2-5.3-2.4-10.5-3.6-15.7-4.9-21.6-9.6-42.1-12.3-63.1-1.1-8.8-2.6-16.1-3.9-22.6-4.1-20.2-6.8-33.6 8.7-59.1 0.2-0.3 1.5-2.3 13.7-20.2 2.9-4.3 5.2-7.7 5.4-8 9-13.6 25.3-21.2 42.5-19.8l77.6 6.4c30.1 2.5 60.6 2 90.7-1.5l9.5-1.1c31.3-3.6 63-4 94.4-1.3l10.5 0.9c29.3 2.5 59 2.2 88.3-0.8l31.7-3.3c11.9-1.3 24 5.7 29.9 13.2 6.3 8.1 8.8 18.4 6.8 28.3-3.2 16.3-8.3 46.4-6.1 65.4l3.1 11.8c3.1 11.7 6 20.2 8.4 27.1 6.1 17.7 9.4 27.4 5.4 58.5 0 0.2-0.1 0.4-0.1 0.6l-17.3 66.4c-1.8 6.8-2.8 13.9-3 20.9-0.5 17.5-0.2 35.9 6 52.1 5.1 13.2 8.5 26.4 10.3 39l0.3 1.8c2.2 15.5-0.5 47.5-3.4 76.8-0.7 7.1-1.6 14.1-2.4 20.9-2.7 21.2-5.2 41.3-2.4 63.7 1.4 11.4 2.3 21.5 2.6 30.8l1 26.5c1.4 5.2-0.5 11.2-5.4 18-13.7 18.6-50 40.5-63.3 40.5z m-427-609.1c-13.6 22.5-11.5 33.2-7.6 52.7 1.3 6.6 2.8 14.1 4 23.2 2.6 20.6 7.2 40.8 12.1 62.3 1.2 5.2 2.4 10.5 3.6 15.8 4.9 21.9 7.9 44.3 9.1 66.7l4.1 77.1c1.3 24.2 0.4 48.7-2.7 72.8l-7.6 58.9c-0.2 1.4-0.4 2.9-0.6 4.5-5.7 38.8-6.6 78-2.6 116.6l0.3 2.6c1.1 10.3 11.3 19 22.3 19h0.3l392.5 28c10-0.2 43.6-20.1 56-37.1 3.3-4.5 4.7-8.3 3.9-10.7-0.1-0.4-0.2-0.8-0.2-1.2l-1-27c-0.3-9.1-1.2-18.9-2.6-30-2.9-23.6-0.2-45.1 2.4-66 0.8-6.7 1.7-13.7 2.4-20.6 2.8-28.8 5.5-60.1 3.4-74.7l-0.3-1.8c-1.7-12-5-24.5-9.8-37.1-6.8-17.7-7.2-37.2-6.6-55.6 0.2-7.7 1.3-15.4 3.3-22.9l17.2-66.1c3.7-28.7 0.9-36.7-5.1-54.2-2.4-7-5.4-15.7-8.6-27.7l-3.2-12.1c-0.1-0.2-0.1-0.4-0.1-0.6-2.4-20.2 2.8-51.6 6.2-68.5 1.5-7.3-0.4-15-5.1-21-4.3-5.5-13.6-10.7-21.9-9.8l-31.7 3.3c-29.8 3.1-60.1 3.4-90 0.9l-10.5-0.9c-30.8-2.7-61.9-2.2-92.6 1.3l-9.5 1.1c-30.6 3.5-61.7 4-92.4 1.5l-77.6-6.4c-13.8-1.1-27.3 5.1-34.3 15.8-0.1 0.2-1.5 2.2-5.5 8.1-4.7 7-12.7 18.8-13.4 19.8z"  /><path d="M681.3 780.4h-22.6c-16.2 0-32.3-0.7-48.5-2.1l-2.4-0.2c-26.2-2.3-52.6-2.8-78.8-1.3l-66 3.7-64.7 3.2c-16.9 0.8-33.9 0.9-50.8 0.1l-74.2-3.3c-12.7 0-24.2-10.4-25.4-23l-0.3-2.6c-3.8-39.2-2.9-78.7 2.5-117.7 0.2-1.6 0.4-3 0.6-4.4l7.2-58.9c2.9-23.9 3.8-47.9 2.6-71.9l-3.9-77.1c-1.1-22.2-4-44.2-8.6-66-5.7-26.8-11.9-52.5-15-78.5-4.4-36.5 2.9-73.6 21.2-105.4 0.3-0.5 0.6-1 0.9-1.4 7.7-12.4 21.9-19.1 36.5-17.8l73.7 6.4c28.9 2.5 58.1 2 86.9-1.5l9.1-1.1c29.4-3.6 59.2-4 88.7-1.3l10 0.9c28.1 2.6 56.5 2.3 84.6-0.8l30.1-3.3c9.8-1.1 20 5.3 24.6 11.5 5.2 7.1 7.3 16 5.7 24.6-3.1 16.5-8 47.5-5.8 67.1l3 12.1c10.3 41.1 18.1 41.7 13 83.8l-16.4 66.4c-1.8 7.2-2.8 14.5-3 21.9-0.5 16.9-0.3 36.4 6 53.8 4.5 12.3 7.8 25 9.5 38l0.2 1.8c2 15.1-0.5 46.8-3.2 75.7-3 32.3-3.9 64.8-2.8 97.2l1.6 45.8c5.2 17.9-11.6 25.6-25.8 25.6z" fill="#FFD8A9" /><path d="M371.6 788.7c-8.1 0-16.2-0.2-24.3-0.5l-74.1-3.3c-15-0.1-28.3-12.2-29.7-27.1l-0.3-2.6c-3.8-39.3-3-79.3 2.5-118.7 0.2-1.5 0.4-3 0.6-4.3l7.2-58.9c2.9-23.5 3.7-47.5 2.5-71.2l-3.9-77.1c-1.1-21.9-3.9-43.8-8.5-65.3-1.1-5.3-2.3-10.5-3.4-15.7-4.7-21.6-9.1-42.1-11.6-63.1-4.5-37.6 3.2-76 21.8-108.2 0.3-0.5 0.6-1.1 0.9-1.6 8.6-13.7 24.1-21.4 40.6-19.9l73.7 6.4c28.6 2.5 57.5 2 86-1.5l9.1-1.1c29.7-3.6 59.9-4.1 89.7-1.3l10 0.9c27.8 2.5 55.9 2.2 83.7-0.8l30.1-3.3c11.4-1.3 23 5.7 28.6 13.3 5.9 8 8.3 18.3 6.5 28.1-3.1 16.3-7.9 46.5-5.8 65.5l3 11.8c2.9 11.7 5.7 20.2 8 27.1 5.8 17.7 8.9 27.4 5.1 58.4 0 0.2-0.1 0.4-0.1 0.5l-16.4 66.4c-1.7 6.8-2.6 13.9-2.9 21-0.5 17.5-0.2 35.9 5.7 52.2 4.8 13.2 8.1 26.3 9.8 39l0.2 1.8c2 15.4-0.5 47.5-3.2 76.7-3 31.9-3.9 64.4-2.8 96.6l1.6 45.3c2.6 9.3-0.1 15.7-2.9 19.5-6.2 8.4-18.1 11.4-27.2 11.4h-22.6c-16.2 0-32.7-0.7-48.9-2.2l-2.4-0.2c-25.9-2.3-52.2-2.7-78.2-1.3l-66 3.7-64.7 3.2c-9 0.2-18 0.4-27 0.4z m-83.5-628.8c-11.9 0-22.9 5.9-29.1 15.9-0.3 0.4-0.5 0.9-0.8 1.3-17.6 30.5-24.9 67-20.6 102.6 2.5 20.6 6.9 40.9 11.5 62.3 1.1 5.2 2.3 10.5 3.4 15.8 4.6 21.9 7.5 44.3 8.7 66.7l3.9 77.1c1.2 24.2 0.3 48.7-2.6 72.7l-7.2 58.9c-0.2 1.4-0.4 2.9-0.6 4.5-5.4 38.8-6.3 78-2.5 116.6l0.3 2.6c1 10.3 10.6 19 20.9 19h0.2l74.2 3.3c16.7 0.7 33.7 0.7 50.4-0.1l64.7-3.2 66-3.7c26.4-1.5 53.1-1 79.5 1.3l2.4 0.2c15.9 1.4 32.1 2.1 48.1 2.1h22.6c8.6 0 16.5-3 20-7.8 2.4-3.2 2.9-7.2 1.4-12.1-0.1-0.4-0.2-0.7-0.2-1.1l-1.6-45.8c-1.2-32.6-0.2-65.5 2.8-97.8 2.7-28.8 5.2-60.2 3.3-74.7l-0.2-1.8c-1.6-12-4.7-24.5-9.3-37.1-6.4-17.6-6.8-37.1-6.3-55.5 0.2-7.7 1.3-15.4 3.1-22.8l16.3-66.1c3.5-28.8 0.9-36.8-4.8-54.3-2.3-7-5.1-15.7-8.1-27.7l-3-12.1c0-0.2-0.1-0.4-0.1-0.6-2.3-20.2 2.7-51.6 5.8-68.5 1.4-7.4-0.4-15.1-4.9-21.1-4-5.5-12.8-10.6-20.5-9.7l-30.1 3.3c-28.3 3.1-57.1 3.4-85.5 0.9l-10-0.9c-29.2-2.7-58.7-2.2-87.8 1.3l-9.1 1.1c-29.1 3.5-58.6 4-87.8 1.5l-73.7-6.4c-1.1 0-2.1-0.1-3.1-0.1z"  /><path d="M383.4 376.1c-2.4 0.2-9.8-1-9.8-1s-4.6-0.3-6.1-0.5c-1.3-0.2-4.7 0.4-9.7 0.4-4.6 0-4.5-0.8-7.2-0.8-5.9-0.1-7.5 0.6-10 0.6-0.5 0-1.6-0.1-2.2-0.2-0.4-0.1-4.2-0.3-4.5-0.5-2.7-0.8-6.1-4-6.1-8.5l1.2-28.8v-0.8l-3.3-56.4V259v-0.6l2.1-29.9c0-4.7 3.9-9.3 8.5-8.5 1.8 0.3 5.1 1 7.7 0.9 3.5 0 9.6-0.9 13.1-0.9 3.9 0 12.3 2.1 16.2 1.8 3.9-0.3 7.3-1.4 8.8-1.8 9-2 12.9 7.5 12.9 16.7v16.5c0 0.4 0 0.7-0.1 1.1l-2.6 19.1c-0.1 0.6-0.1 1.3 0 1.9l2.6 27c0 0.5 0.1 1 0 1.5l-2 23.2v1.2l2.1 37.3c0 2-1.3 5.1-3 6.5-2.5 2.3-6.2 3.9-8.6 4.1z" fill="#F6BC7D" /><path d="M384.7 220.2s-1.2 21.6-0.4 32.9c0.7 9.6 2.2 31.5 1.7 50.8-0.2 10.5-1.3 41.8-1.3 41.8v28.5h1.8c0.9 0 2-0.1 3.2-0.4 0.8-0.5 1.6-1 2.2-1.5 1.7-1.4 3-4.6 3-6.5 0 0-1.1-26.7-1.2-32.9 0-6.2 0.3-20.4 1.1-25.3 0.3-1.5 0-4.5 0-5l-2.1-21.7c-0.1-0.6-0.3-3.6 0.4-10.1l1.7-16.2c0.7-9 0.1-17.6 0.1-17.6 0-7.5-2.6-15.2-8.4-16.7h-1.8z" fill="#F3AC77" /><path d="M394.9 364.1s-15.1-0.3-20.3-0.2c-4 0-12.6-0.1-16.6 0.2-4.4 0.3-13 1.7-17.4 1.6-3.2-0.1-12.8-1.6-12.8-1.6l-0.1 1.6c0 4.4 3.4 7.6 6.1 8.5 0.3 0.1 4.1 0.4 4.5 0.5 0.5 0.1 1.6 0.2 2.2 0.2 2.5 0 4.1-0.7 10-0.6 2.7 0 2.6 0.8 7.2 0.8 5 0 8.3-0.5 9.7-0.4 1.5 0.2 6.1 0.5 6.1 0.5s7.3 1.2 9.8 1c2.3-0.2 6.1-1.8 8.6-3.9 1.7-1.4 3-4.6 3-6.5v-1.7z" fill="#EBA674" /><path d="M504.2 376.1c-2.4 0.2-9.8-1-9.8-1s-4.6-0.3-6.1-0.5c-1.3-0.2-4.7 0.4-9.7 0.4-4.6 0-4.5-0.8-7.2-0.8-5.9-0.1-7.5 0.6-10 0.6-0.5 0-1.6-0.1-2.2-0.2-0.4-0.1-4.2-0.3-4.5-0.5-2.7-0.8-6.1-4-6.1-8.5l1.2-28.8v-0.8l-3.3-56.4V259v-0.6l2.1-29.9c0-4.7 3.9-9.3 8.5-8.5 1.8 0.3 5.1 1 7.7 0.9 3.5 0 9.6-0.9 13.1-0.9 3.9 0 12.3 2.1 16.2 1.8 3.9-0.3 7.3-1.4 8.8-1.8 9-2 12.9 7.5 12.9 16.7v16.5c0 0.4 0 0.7-0.1 1.1l-2.6 19.1c-0.1 0.6-0.1 1.3 0 1.9l2.6 27c0 0.5 0.1 1 0 1.5l-2 23.2v1.2l2.1 37.3c0 2-1.3 5.1-3 6.5-2.4 2.3-6.2 3.9-8.6 4.1z" fill="#F6BC7D" /><path d="M505.5 220.2s-1.2 21.6-0.4 32.9c0.7 9.6 2.2 31.5 1.7 50.8-0.2 10.5-1.3 41.8-1.3 41.8v28.5h1.8c0.9 0 2-0.1 3.2-0.4 0.8-0.5 1.6-1 2.2-1.5 1.7-1.4 3-4.6 3-6.5 0 0-1.1-26.7-1.2-32.9 0-6.2 0.3-20.4 1.1-25.3 0.3-1.5 0-4.5 0-5l-2.1-21.7c-0.1-0.6-0.3-3.6 0.4-10.1l1.7-16.2c0.7-9 0.1-17.6 0.1-17.6 0-7.5-2.6-15.2-8.4-16.7h-1.8z" fill="#F3AC77" /><path d="M515.7 364.1s-15.1-0.3-20.3-0.2c-4 0-12.6-0.1-16.6 0.2-4.4 0.3-13 1.7-17.4 1.6-3.2-0.1-12.8-1.6-12.8-1.6l-0.1 1.6c0 4.4 3.4 7.6 6.1 8.5 0.3 0.1 4.1 0.4 4.5 0.5 0.5 0.1 1.6 0.2 2.2 0.2 2.5 0 4.1-0.7 10-0.6 2.7 0 2.6 0.8 7.2 0.8 5 0 8.3-0.5 9.7-0.4 1.5 0.2 6.1 0.5 6.1 0.5s7.3 1.2 9.8 1c2.3-0.2 6.1-1.8 8.6-3.9 1.7-1.4 3-4.6 3-6.5v-1.7z" fill="#EBA674" /><path d="M625.3 376.1c-2.4 0.2-9.8-1-9.8-1s-4.6-0.3-6.1-0.5c-1.3-0.2-4.7 0.4-9.7 0.4-4.6 0-4.5-0.8-7.2-0.8-5.9-0.1-7.5 0.6-10 0.6-0.5 0-1.6-0.1-2.2-0.2-0.4-0.1-4.2-0.3-4.5-0.5-2.7-0.8-6.1-4-6.1-8.5l1.2-28.8v-0.8l-3.3-56.4V259v-0.6l2.1-29.9c0-4.7 3.9-9.3 8.5-8.5 1.8 0.3 5.1 1 7.7 0.9 3.5 0 9.6-0.9 13.1-0.9 3.9 0 12.3 2.1 16.2 1.8 3.9-0.3 7.3-1.4 8.8-1.8 9-2 12.9 7.5 12.9 16.7v16.5c0 0.4 0 0.7-0.1 1.1l-2.6 19.1c-0.1 0.6-0.1 1.3 0 1.9l2.6 27c0 0.5 0.1 1 0 1.5l-2 23.2v1.2l2.1 37.3c0 2-1.3 5.1-3 6.5-2.5 2.3-6.3 3.9-8.6 4.1z" fill="#F6BC7D" /><path d="M626.6 220.2s-1.2 21.6-0.4 32.9c0.7 9.6 2.2 31.5 1.7 50.8-0.2 10.5-1.3 41.8-1.3 41.8v28.5h1.8c0.9 0 2-0.1 3.2-0.4 0.8-0.5 1.6-1 2.2-1.5 1.7-1.4 3-4.6 3-6.5 0 0-1.1-26.7-1.2-32.9 0-6.2 0.3-20.4 1.1-25.3 0.3-1.5 0-4.5 0-5l-2.1-21.7c-0.1-0.6-0.3-3.6 0.4-10.1l1.7-16.2c0.7-9 0.1-17.6 0.1-17.6 0-7.5-2.6-15.2-8.4-16.7h-1.8z" fill="#F3AC77" /><path d="M636.8 364.1s-15.1-0.3-20.3-0.2c-4 0-12.6-0.1-16.6 0.2-4.4 0.3-13 1.7-17.4 1.6-3.2-0.1-12.8-1.6-12.8-1.6l-0.1 1.6c0 4.4 3.4 7.6 6.1 8.5 0.3 0.1 4.1 0.4 4.5 0.5 0.5 0.1 1.6 0.2 2.2 0.2 2.5 0 4.1-0.7 10-0.6 2.7 0 2.6 0.8 7.2 0.8 5 0 8.3-0.5 9.7-0.4 1.5 0.2 6.1 0.5 6.1 0.5s7.3 1.2 9.8 1c2.3-0.2 6.1-1.8 8.6-3.9 1.7-1.4 3-4.6 3-6.5v-1.7z" fill="#EBA674" /><path d="M383.4 552c-2.4 0.2-9.8-1-9.8-1s-4.6-0.3-6.1-0.5c-1.3-0.2-4.7 0.4-9.7 0.4-4.6 0-4.5-0.8-7.2-0.8-5.9-0.1-7.5 0.6-10 0.6-0.5 0-1.6-0.1-2.2-0.2-0.4-0.1-4.2-0.3-4.5-0.5-2.7-0.8-6.1-4-6.1-8.5l1.2-28.8v-0.8l-3.3-56.4V435v-0.6l2.1-29.9c0-4.7 3.9-9.3 8.5-8.5 1.8 0.3 5.1 1 7.7 0.9 3.5 0 9.6-0.9 13.1-0.9 3.9 0 12.3 2.1 16.2 1.8 3.9-0.3 7.3-1.4 8.8-1.8 9-2 12.9 7.5 12.9 16.7v16.5c0 0.4 0 0.7-0.1 1.1l-2.6 19.1c-0.1 0.6-0.1 1.3 0 1.9l2.6 27c0 0.5 0.1 1 0 1.5l-2 23.2v1.2l2.1 37.3c0 2-1.3 5.1-3 6.5-2.5 2.1-6.2 3.7-8.6 4z" fill="#F6BC7D" /><path d="M384.7 396s-1.2 21.6-0.4 32.9c0.7 9.6 2.2 31.5 1.7 50.8-0.2 10.5-1.3 41.8-1.3 41.8V550h1.8c0.9 0 2-0.1 3.2-0.4 0.8-0.5 1.6-1 2.2-1.5 1.7-1.4 3-4.6 3-6.5 0 0-1.1-26.7-1.2-32.9 0-6.2 0.3-20.4 1.1-25.3 0.3-1.5 0-4.5 0-5l-2.1-21.7c-0.1-0.6-0.3-3.6 0.4-10.1l1.7-16.2c0.7-9 0.1-17.6 0.1-17.6 0-7.5-2.6-15.2-8.4-16.7h-1.8z" fill="#F3AC77" /><path d="M394.9 539.9s-15.1-0.3-20.3-0.2c-4 0-12.6-0.1-16.6 0.2-4.4 0.3-13 1.7-17.4 1.6-3.2-0.1-12.8-1.6-12.8-1.6l-0.1 1.6c0 4.4 3.4 7.6 6.1 8.5 0.3 0.1 4.1 0.4 4.5 0.5 0.5 0.1 1.6 0.2 2.2 0.2 2.5 0 4.1-0.7 10-0.6 2.7 0 2.6 0.8 7.2 0.8 5 0 8.3-0.5 9.7-0.4 1.5 0.2 6.1 0.5 6.1 0.5s7.3 1.2 9.8 1c2.3-0.2 6.1-1.8 8.6-3.9 1.7-1.4 3-4.6 3-6.5v-1.7z" fill="#EBA674" /><path d="M504.2 552c-2.4 0.2-9.8-1-9.8-1s-4.6-0.3-6.1-0.5c-1.3-0.2-4.7 0.4-9.7 0.4-4.6 0-4.5-0.8-7.2-0.8-5.9-0.1-7.5 0.6-10 0.6-0.5 0-1.6-0.1-2.2-0.2-0.4-0.1-4.2-0.3-4.5-0.5-2.7-0.8-6.1-4-6.1-8.5l1.2-28.8v-0.8l-3.3-56.4V435v-0.6l2.1-29.9c0-4.7 3.9-9.3 8.5-8.5 1.8 0.3 5.1 1 7.7 0.9 3.5 0 9.6-0.9 13.1-0.9 3.9 0 12.3 2.1 16.2 1.8 3.9-0.3 7.3-1.4 8.8-1.8 9-2 12.9 7.5 12.9 16.7v16.5c0 0.4 0 0.7-0.1 1.1l-2.6 19.1c-0.1 0.6-0.1 1.3 0 1.9l2.6 27c0 0.5 0.1 1 0 1.5l-2 23.2v1.2l2.1 37.3c0 2-1.3 5.1-3 6.5-2.4 2.1-6.2 3.7-8.6 4z" fill="#F6BC7D" /><path d="M505.5 396s-1.2 21.6-0.4 32.9c0.7 9.6 2.2 31.5 1.7 50.8-0.2 10.5-1.3 41.8-1.3 41.8V550h1.8c0.9 0 2-0.1 3.2-0.4 0.8-0.5 1.6-1 2.2-1.5 1.7-1.4 3-4.6 3-6.5 0 0-1.1-26.7-1.2-32.9 0-6.2 0.3-20.4 1.1-25.3 0.3-1.5 0-4.5 0-5l-2.1-21.7c-0.1-0.6-0.3-3.6 0.4-10.1l1.7-16.2c0.7-9 0.1-17.6 0.1-17.6 0-7.5-2.6-15.2-8.4-16.7h-1.8z" fill="#F3AC77" /><path d="M515.7 539.9s-15.1-0.3-20.3-0.2c-4 0-12.6-0.1-16.6 0.2-4.4 0.3-13 1.7-17.4 1.6-3.2-0.1-12.8-1.6-12.8-1.6l-0.1 1.6c0 4.4 3.4 7.6 6.1 8.5 0.3 0.1 4.1 0.4 4.5 0.5 0.5 0.1 1.6 0.2 2.2 0.2 2.5 0 4.1-0.7 10-0.6 2.7 0 2.6 0.8 7.2 0.8 5 0 8.3-0.5 9.7-0.4 1.5 0.2 6.1 0.5 6.1 0.5s7.3 1.2 9.8 1c2.3-0.2 6.1-1.8 8.6-3.9 1.7-1.4 3-4.6 3-6.5v-1.7z" fill="#EBA674" /><path d="M625.3 552c-2.4 0.2-9.8-1-9.8-1s-4.6-0.3-6.1-0.5c-1.3-0.2-4.7 0.4-9.7 0.4-4.6 0-4.5-0.8-7.2-0.8-5.9-0.1-7.5 0.6-10 0.6-0.5 0-1.6-0.1-2.2-0.2-0.4-0.1-4.2-0.3-4.5-0.5-2.7-0.8-6.1-4-6.1-8.5l1.2-28.8v-0.8l-3.3-56.4V435v-0.6l2.1-29.9c0-4.7 3.9-9.3 8.5-8.5 1.8 0.3 5.1 1 7.7 0.9 3.5 0 9.6-0.9 13.1-0.9 3.9 0 12.3 2.1 16.2 1.8 3.9-0.3 7.3-1.4 8.8-1.8 9-2 12.9 7.5 12.9 16.7v16.5c0 0.4 0 0.7-0.1 1.1l-2.6 19.1c-0.1 0.6-0.1 1.3 0 1.9l2.6 27c0 0.5 0.1 1 0 1.5l-2 23.2v1.2l2.1 37.3c0 2-1.3 5.1-3 6.5-2.5 2.1-6.3 3.7-8.6 4z" fill="#F6BC7D" /><path d="M626.6 396s-1.2 21.6-0.4 32.9c0.7 9.6 2.2 31.5 1.7 50.8-0.2 10.5-1.3 41.8-1.3 41.8V550h1.8c0.9 0 2-0.1 3.2-0.4 0.8-0.5 1.6-1 2.2-1.5 1.7-1.4 3-4.6 3-6.5 0 0-1.1-26.7-1.2-32.9 0-6.2 0.3-20.4 1.1-25.3 0.3-1.5 0-4.5 0-5l-2.1-21.7c-0.1-0.6-0.3-3.6 0.4-10.1l1.7-16.2c0.7-9 0.1-17.6 0.1-17.6 0-7.5-2.6-15.2-8.4-16.7h-1.8z" fill="#F3AC77" /><path d="M636.8 539.9s-15.1-0.3-20.3-0.2c-4 0-12.6-0.1-16.6 0.2-4.4 0.3-13 1.7-17.4 1.6-3.2-0.1-12.8-1.6-12.8-1.6l-0.1 1.6c0 4.4 3.4 7.6 6.1 8.5 0.3 0.1 4.1 0.4 4.5 0.5 0.5 0.1 1.6 0.2 2.2 0.2 2.5 0 4.1-0.7 10-0.6 2.7 0 2.6 0.8 7.2 0.8 5 0 8.3-0.5 9.7-0.4 1.5 0.2 6.1 0.5 6.1 0.5s7.3 1.2 9.8 1c2.3-0.2 6.1-1.8 8.6-3.9 1.7-1.4 3-4.6 3-6.5v-1.7z" fill="#EBA674" /><path d="M383.4 727.8c-2.4 0.2-9.8-1-9.8-1s-4.6-0.3-6.1-0.5c-1.3-0.2-4.7 0.4-9.7 0.4-4.6 0-4.5-0.8-7.2-0.8-5.9-0.1-7.5 0.6-10 0.6-0.5 0-1.6-0.1-2.2-0.2-0.4-0.1-4.2-0.3-4.5-0.5-2.7-0.8-6.1-4-6.1-8.5l1.2-28.8v-0.8l-3.3-56.4v-20.6-0.6l2.1-29.9c0-4.7 3.9-9.3 8.5-8.5 1.8 0.3 5.1 1 7.7 0.9 3.5 0 9.6-0.9 13.1-0.9 3.9 0 12.3 2.1 16.2 1.8 3.9-0.3 7.3-1.4 8.8-1.8 9-2 12.9 7.5 12.9 16.7v16.5c0 0.4 0 0.7-0.1 1.1l-2.6 19.1c-0.1 0.6-0.1 1.3 0 1.9l2.6 27c0 0.5 0.1 1 0 1.5l-2 23.2v1.2l2.1 37.3c0 2-1.3 5.1-3 6.5-2.5 2.3-6.2 3.9-8.6 4.1z" fill="#F6BC7D" /><path d="M384.7 571.9s-1.2 21.6-0.4 32.9c0.7 9.6 2.2 31.5 1.7 50.8-0.2 10.5-1.3 41.8-1.3 41.8v28.5h1.8c0.9 0 2-0.1 3.2-0.4 0.8-0.5 1.6-1 2.2-1.5 1.7-1.4 3-4.6 3-6.5 0 0-1.1-26.7-1.2-32.9 0-6.2 0.3-20.4 1.1-25.3 0.3-1.5 0-4.5 0-5l-2.1-21.7c-0.1-0.6-0.3-3.6 0.4-10.1l1.7-16.2c0.7-9 0.1-17.6 0.1-17.6 0-7.5-2.6-15.2-8.4-16.7h-1.8z" fill="#F3AC77" /><path d="M394.9 715.8s-15.1-0.3-20.3-0.2c-4 0-12.6-0.1-16.6 0.2-4.4 0.3-13 1.7-17.4 1.6-3.2-0.1-12.8-1.6-12.8-1.6l-0.1 1.6c0 4.4 3.4 7.6 6.1 8.5 0.3 0.1 4.1 0.4 4.5 0.5 0.5 0.1 1.6 0.2 2.2 0.2 2.5 0 4.1-0.7 10-0.6 2.7 0 2.6 0.8 7.2 0.8 5 0 8.3-0.5 9.7-0.4 1.5 0.2 6.1 0.5 6.1 0.5s7.3 1.2 9.8 1c2.3-0.2 6.1-1.8 8.6-3.9 1.7-1.4 3-4.6 3-6.5v-1.7z" fill="#EBA674" /><path d="M504.2 727.8c-2.4 0.2-9.8-1-9.8-1s-4.6-0.3-6.1-0.5c-1.3-0.2-4.7 0.4-9.7 0.4-4.6 0-4.5-0.8-7.2-0.8-5.9-0.1-7.5 0.6-10 0.6-0.5 0-1.6-0.1-2.2-0.2-0.4-0.1-4.2-0.3-4.5-0.5-2.7-0.8-6.1-4-6.1-8.5l1.2-28.8v-0.8l-3.3-56.4v-20.6-0.6l2.1-29.9c0-4.7 3.9-9.3 8.5-8.5 1.8 0.3 5.1 1 7.7 0.9 3.5 0 9.6-0.9 13.1-0.9 3.9 0 12.3 2.1 16.2 1.8 3.9-0.3 7.3-1.4 8.8-1.8 9-2 12.9 7.5 12.9 16.7v16.5c0 0.4 0 0.7-0.1 1.1l-2.6 19.1c-0.1 0.6-0.1 1.3 0 1.9l2.6 27c0 0.5 0.1 1 0 1.5l-2 23.2v1.2l2.1 37.3c0 2-1.3 5.1-3 6.5-2.4 2.3-6.2 3.9-8.6 4.1z" fill="#F6BC7D" /><path d="M505.5 571.9s-1.2 21.6-0.4 32.9c0.7 9.6 2.2 31.5 1.7 50.8-0.2 10.5-1.3 41.8-1.3 41.8v28.5h1.8c0.9 0 2-0.1 3.2-0.4 0.8-0.5 1.6-1 2.2-1.5 1.7-1.4 3-4.6 3-6.5 0 0-1.1-26.7-1.2-32.9s0.3-20.4 1.1-25.3c0.3-1.5 0-4.5 0-5l-2.1-21.7c-0.1-0.6-0.3-3.6 0.4-10.1l1.7-16.2c0.7-9 0.1-17.6 0.1-17.6 0-7.5-2.6-15.2-8.4-16.7h-1.8z" fill="#F3AC77" /><path d="M515.7 715.8s-15.1-0.3-20.3-0.2c-4 0-12.6-0.1-16.6 0.2-4.4 0.3-13 1.7-17.4 1.6-3.2-0.1-12.8-1.6-12.8-1.6l-0.1 1.6c0 4.4 3.4 7.6 6.1 8.5 0.3 0.1 4.1 0.4 4.5 0.5 0.5 0.1 1.6 0.2 2.2 0.2 2.5 0 4.1-0.7 10-0.6 2.7 0 2.6 0.8 7.2 0.8 5 0 8.3-0.5 9.7-0.4 1.5 0.2 6.1 0.5 6.1 0.5s7.3 1.2 9.8 1c2.3-0.2 6.1-1.8 8.6-3.9 1.7-1.4 3-4.6 3-6.5v-1.7z" fill="#EBA674" /><path d="M625.3 727.8c-2.4 0.2-9.8-1-9.8-1s-4.6-0.3-6.1-0.5c-1.3-0.2-4.7 0.4-9.7 0.4-4.6 0-4.5-0.8-7.2-0.8-5.9-0.1-7.5 0.6-10 0.6-0.5 0-1.6-0.1-2.2-0.2-0.4-0.1-4.2-0.3-4.5-0.5-2.7-0.8-6.1-4-6.1-8.5l1.2-28.8v-0.8l-3.3-56.4v-20.6-0.6l2.1-29.9c0-4.7 3.9-9.3 8.5-8.5 1.8 0.3 5.1 1 7.7 0.9 3.5 0 9.6-0.9 13.1-0.9 3.9 0 12.3 2.1 16.2 1.8 3.9-0.3 7.3-1.4 8.8-1.8 9-2 12.9 7.5 12.9 16.7v16.5c0 0.4 0 0.7-0.1 1.1l-2.6 19.1c-0.1 0.6-0.1 1.3 0 1.9l2.6 27c0 0.5 0.1 1 0 1.5l-2 23.2v1.2l2.1 37.3c0 2-1.3 5.1-3 6.5-2.5 2.3-6.3 3.9-8.6 4.1z" fill="#F6BC7D" /><path d="M626.6 571.9s-1.2 21.6-0.4 32.9c0.7 9.6 2.2 31.5 1.7 50.8-0.2 10.5-1.3 41.8-1.3 41.8v28.5h1.8c0.9 0 2-0.1 3.2-0.4 0.8-0.5 1.6-1 2.2-1.5 1.7-1.4 3-4.6 3-6.5 0 0-1.1-26.7-1.2-32.9 0-6.2 0.3-20.4 1.1-25.3 0.3-1.5 0-4.5 0-5l-2.1-21.7c-0.1-0.6-0.3-3.6 0.4-10.1l1.7-16.2c0.7-9 0.1-17.6 0.1-17.6 0-7.5-2.6-15.2-8.4-16.7h-1.8z" fill="#F3AC77" /><path d="M636.8 715.8s-15.1-0.3-20.3-0.2c-4 0-12.6-0.1-16.6 0.2-4.4 0.3-13 1.7-17.4 1.6-3.2-0.1-12.8-1.6-12.8-1.6l-0.1 1.6c0 4.4 3.4 7.6 6.1 8.5 0.3 0.1 4.1 0.4 4.5 0.5 0.5 0.1 1.6 0.2 2.2 0.2 2.5 0 4.1-0.7 10-0.6 2.7 0 2.6 0.8 7.2 0.8 5 0 8.3-0.5 9.7-0.4 1.5 0.2 6.1 0.5 6.1 0.5s7.3 1.2 9.8 1c2.3-0.2 6.1-1.8 8.6-3.9 1.7-1.4 3-4.6 3-6.5v-1.7z" fill="#EBA674" /><path d="M335.4 427.5c-2.1 0-3.9-1.4-4.4-3.5-2-9.1 12.6-12.4 31.1-16.6 1.8-0.4 3.7-0.8 5.7-1.3-21-7.8-25.1-27.6-25.3-28.5-0.5-2.4 1.1-4.8 3.5-5.2 2.4-0.5 4.8 1.1 5.2 3.5 0.2 0.8 4.1 18.9 24.9 23.4 3.1 0.7 8.8 1.9 8.8 6.7 0 5.4-6.1 6.8-20.9 10.1-7 1.6-21.1 4.8-24.3 7.3-0.2 1.9-1.5 3.6-3.5 4-0.2 0-0.5 0.1-0.8 0.1z m42.2-18.6zM635.8 423c-2.1 0-3.9-1.5-4.3-3.4-3.3-2.3-18.5-4-25.9-4.9-15.9-1.8-21.8-2.5-22.4-7.9-0.5-4.8 4.9-6.6 7.8-7.6 19.3-6.5 19.5-24.5 19.5-25.3 0-2.5 2-4.5 4.4-4.5 2.4 0 4.4 2 4.5 4.4 0.1 7.7-4 23-19.3 31.2 2.2 0.3 4.5 0.5 6.5 0.8 21 2.4 33.8 4.3 33.7 12.8 0 2.4-2 4.4-4.5 4.4z m-4-3.2zM353.3 330.8c-13.2 0-24.3-7.7-24.8-8.1-2-1.4-2.5-4.2-1.1-6.2s4.2-2.5 6.2-1.1c0.1 0.1 13.3 9.2 25.7 5.7 6.1-1.7 9.1-4.6 12.3-7.7 3.7-3.5 7.8-7.5 15.9-8.2 2.5-0.2 4.6 1.6 4.8 4.1 0.2 2.5-1.6 4.6-4.1 4.8-4.9 0.4-7.1 2.5-10.4 5.7-3.5 3.4-7.8 7.5-16 9.9-2.8 0.8-5.7 1.1-8.5 1.1zM631.5 322.5c-0.7 0-1.4-0.2-2-0.5-5.6-2.8-16.1-1.4-24.5-0.4-2.3 0.3-4.5 0.6-6.5 0.8-5.6 0.6-12.1-2.5-19.2-9.2-4.8-4.5-8.3-9.2-8.4-9.4-1.5-2-1.1-4.8 0.9-6.3s4.8-1.1 6.3 0.9c4.9 6.5 14.1 15.5 19.5 15 1.9-0.2 4-0.5 6.3-0.7 10.1-1.3 21.6-2.8 29.6 1.2 2.2 1.1 3.1 3.8 2 6-0.8 1.7-2.3 2.6-4 2.6z"  /><path d="M444.4 489.4s-15.1 76.3 6 81.6c21 5.3 60.2-9.9 63.7-82l-10.5-2-18.3-3.4-9.7-2-11.6 5.9-15 1.9h-4.6z" fill="#FF6666" /><path d="M504.1 494.6c-14.2 0-21.1-6.1-25.7-10.1-0.7-0.6-1.6-1.4-2.2-1.9-28.6 21.9-60.9 2.1-62.2 1.2-2.1-1.3-2.7-4.1-1.4-6.2 1.3-2.1 4.1-2.7 6.2-1.4 1.2 0.7 28.6 17.4 52.3-0.9 5.6-4.4 10.3-0.3 13.3 2.4 6.2 5.5 16.6 14.7 52.1-0.3 2.3-1 4.9 0.1 5.9 2.4s-0.1 4.9-2.4 5.9c-15.5 6.5-27.1 8.9-35.9 8.9z"  /><path d="M458.3 576.4c-3.1 0-6.1-0.4-9.1-1.1-11.3-2.8-15.9-18.3-14.2-47.3 1.1-19.8 4.8-38.6 5-39.4 0.5-2.4 2.8-4 5.3-3.5 2.4 0.5 4 2.8 3.5 5.3 0 0.2-3.7 19.1-4.8 38.3-1.9 33.1 5.2 37.5 7.5 38.1 9.4 2.4 20.6-0.4 29.9-7.3 11.7-8.7 26.2-28 28.2-70.6 0.1-2.5 2.2-4.4 4.7-4.2 2.5 0.1 4.4 2.2 4.2 4.7-2.2 46-18.6 67.5-31.9 77.3-8.6 6.2-18.7 9.7-28.3 9.7z"  /><path d="M465.5 540.5c-0.8 0-1.5-0.3-2.1-1-0.9-1.1-0.8-2.8 0.4-3.8 6.7-5.6 10.4-37.1 11.2-55.7 0.1-1.5 1.3-2.6 2.8-2.6 1.5 0.1 2.6 1.3 2.6 2.8-0.2 5.2-2.4 50.7-13.1 59.7-0.6 0.4-1.2 0.6-1.8 0.6z"  /><path d="M300.3 447.6c9.8-7.8 33.1-11.6 53.7-9.9 23.4 1.9 37.1 10.7 35.1 20.1-0.8 3.6-3.3 7.2-8.5 10.1-8.5 4.7-23.7 7-38.1 6.6-20-0.5-39-6.3-44.7-14.2-3.4-4.8-2-9.1 2.5-12.7z" fill="#FF6666" /><path d="M326.8 460.3c-0.6 0-1.3-0.2-1.8-0.7-1.1-1-1.2-2.7-0.2-3.8 1.6-1.7 3-3.6 4.2-5.6 0.8-1.3 2.4-1.6 3.7-0.9 1.3 0.8 1.6 2.4 0.9 3.7-1.4 2.2-3 4.4-4.8 6.4-0.6 0.6-1.3 0.9-2 0.9zM338.2 465c-0.5 0-1.1-0.2-1.5-0.5-1.2-0.8-1.5-2.5-0.7-3.7 3.3-4.8 6.5-9.8 9.3-14.9 0.7-1.3 2.4-1.7 3.7-1 1.3 0.7 1.7 2.4 1 3.7-2.9 5.2-6.2 10.4-9.6 15.3-0.5 0.7-1.4 1.1-2.2 1.1zM355.6 460.7c-0.6 0-1.2-0.2-1.7-0.6-1.1-0.9-1.3-2.6-0.4-3.8 1.6-2 3-4.1 4.2-6.4 0.7-1.3 2.3-1.8 3.6-1.2 1.3 0.7 1.8 2.3 1.2 3.6-1.3 2.6-3 5.1-4.9 7.4-0.5 0.7-1.2 1-2 1z" fill="#FFFFFF" /><path d="M579.6 452.4c9.8-7.8 33.1-11.6 53.7-9.9 23.4 1.9 37.1 10.7 35.1 20.1-0.8 3.6-3.3 7.2-8.5 10.1-8.5 4.7-23.7 7-38.1 6.6-20-0.5-39-6.3-44.7-14.2-3.4-4.7-2.1-9.1 2.5-12.7z" fill="#FF6666" /><path d="M640.8 466.3c-0.7 0-1.5-0.3-2-0.9-1.8-2-3.4-4.1-4.8-6.4-0.8-1.3-0.4-2.9 0.9-3.7 1.3-0.8 2.9-0.4 3.7 0.9 1.2 2 2.7 3.9 4.2 5.6 1 1.1 0.9 2.8-0.2 3.8-0.6 0.5-1.2 0.7-1.8 0.7zM629.3 471.1c-0.8 0-1.7-0.4-2.2-1.1-3.4-4.9-6.7-10.1-9.6-15.3-0.7-1.3-0.3-2.9 1-3.7 1.3-0.7 2.9-0.3 3.7 1 2.9 5.1 6 10.1 9.3 14.9 0.8 1.2 0.5 2.9-0.7 3.7-0.4 0.3-0.9 0.5-1.5 0.5zM611.9 466.8c-0.8 0-1.5-0.3-2.1-1-1.9-2.3-3.5-4.7-4.9-7.4-0.7-1.3-0.2-2.9 1.2-3.6 1.3-0.7 2.9-0.2 3.6 1.2 1.2 2.3 2.6 4.4 4.2 6.4 0.9 1.1 0.8 2.8-0.4 3.8-0.4 0.4-1 0.6-1.6 0.6z" fill="#FFFFFF" /><path d="M348.9 913.5c-2.5 0-4.5-2-4.5-4.5s2-4.5 4.5-4.5c8.8 0 15.7-3.2 21.3-9.7 9.9-11.6 15.1-33.9 15-64.3-0.1-23.5-3.3-43.5-3.3-43.7-0.4-2.4 1.3-4.7 3.7-5.1 2.4-0.4 4.7 1.3 5.1 3.7 0.6 3.4 13.2 83.7-13.7 115.3-7.2 8.4-16.7 12.8-28.1 12.8zM581.5 913.5c-2.2 0-4.1-1.6-4.4-3.9-0.3-2.4 1.4-4.7 3.8-5 5.7-0.8 10.2-3.7 13.9-8.8 8.4-11.9 11.6-35.3 9.4-67.7-1.7-25-6.2-46.6-6.2-46.8-0.5-2.4 1-4.8 3.5-5.3 2.4-0.5 4.8 1 5.3 3.5 0.8 3.6 18.2 89.1-4.6 121.5-5.1 7.2-11.8 11.4-20 12.5-0.3-0.1-0.5 0-0.7 0zM237.6 520.3c-11.3 0-23.4-2.3-34.4-9.3-22.3-14.2-33.7-43.8-33.7-88.1 0-106.7-10.8-111.9-21.2-117-2.7-1.3-5.8-2.8-8.8-5.5-1.8-1.6-2-4.5-0.4-6.3 1.6-1.8 4.5-2 6.3-0.4 2.1 1.9 4.4 3 6.8 4.1 6.5 3.2 13.9 6.8 18.8 24.5 5.1 18.2 7.4 50.2 7.4 100.5 0 40.9 9.9 68 29.5 80.5 27.8 17.7 66.9-0.1 67.2-0.3 2.2-1 4.9-0.1 5.9 2.2 1 2.2 0.1 4.9-2.2 5.9-1 0.7-19.6 9.2-41.2 9.2zM767.2 517.3H766c-23.8-0.3-38.9-9.3-39.5-9.6-2.1-1.3-2.8-4-1.5-6.1 1.3-2.1 4-2.8 6.1-1.5 0.1 0.1 13.9 8.2 35.5 8.3h0.5c28.4 0 57.5-14 84.2-40.4 21.1-20.9 29.1-45.6 24.4-75.5-4.1-26.3-17.4-52.6-28.2-73.8-8.2-16.2-15.3-30.3-16.9-41.1-1.7-11.4 0.6-21.1 6.8-29 12.3-15.6 35.4-18 36.4-18.1 2.5-0.2 4.6 1.6 4.9 4 0.2 2.5-1.6 4.6-4 4.9-0.2 0-20.4 2.1-30.2 14.7-4.6 5.9-6.3 13.4-5 22.2 1.4 9.3 8.2 22.8 16 38.3 11 21.8 24.7 48.8 29 76.5 5.2 33-3.7 60.2-27 83.3-19.7 19.6-51.4 42.9-90.3 42.9z"  /></svg>