<?xml version="1.0" standalone="no"?><!DOCTYPE svg PUBLIC "-//W3C//DTD SVG 1.1//EN" "http://www.w3.org/Graphics/SVG/1.1/DTD/svg11.dtd"><svg class="icon" width="200px" height="200.00px" viewBox="0 0 1024 1024" version="1.1" xmlns="http://www.w3.org/2000/svg"><path d="M193.7 627.8c-45.1 0-79.8-32.5-81.4-34.1-1.8-1.7-1.8-4.5-0.1-6.3 1.7-1.8 4.5-1.8 6.3-0.2 0.4 0.4 41.6 38.9 89.7 30.4 34.5-6.1 64.5-34.6 89.1-84.6 1.1-2.2 3.7-3.1 5.9-2s3.1 3.7 2 5.9c-26 52.7-58.1 82.7-95.6 89.4-5.4 1.1-10.7 1.5-15.9 1.5z"  /><path d="M274.28861 621.397917a329.3 210.4 65.464 1 0 382.801984-174.743473 329.3 210.4 65.464 1 0-382.801984 174.743473Z" fill="#FFEEA6" /><path d="M543.4 850.6c-8.8 0-17.8-0.7-26.9-2.2-30.3-4.8-61.2-17.3-91.9-37.1C362 770.8 307.1 704 270.3 623.2c-36.9-80.8-51.4-166-41-239.9 5.1-36.2 15.9-67.7 32.1-93.7 16.9-27.1 39-47.1 65.7-59.2 26.6-12.2 56.2-15.8 87.8-10.8 30.3 4.8 61.2 17.3 91.9 37.1 62.7 40.5 117.5 107.3 154.4 188.1s51.4 166 41 239.9c-5.1 36.2-15.9 67.7-32.1 93.7-16.9 27.1-39 47.1-65.7 59.2-19 8.6-39.4 13-61 13zM388.2 226.3c-20.3 0-39.6 4-57.5 12.2-103.3 47.2-126.8 218.1-52.4 381.1 36.2 79.3 89.9 144.7 151.1 184.4 60.7 39.2 121.4 48.3 171.1 25.6 49.7-22.7 82.6-74.6 92.7-146.1 10.2-72.3-4.1-155.7-40.3-235-36.2-79.3-89.9-144.7-151.1-184.4-38.7-25.1-77.6-37.8-113.6-37.8z" fill="#000333" /><path d="M708.6 466c3.1 194.8-86.9 354.1-201.1 355.9S298.1 667.4 295 472.6c-2.9-179 73-328.2 174-352.5 8.9-2.1 55.8-54.1 64.5-51.1 8.7 3-26.2 47.8-20.7 48.5C619.5 130.3 705.6 280.8 708.6 466z" fill="#9AB81A" /><path d="M505.4 826.4c-28.1 0-55.5-9.2-81.5-27.2-25.4-17.7-48.4-43.2-68.2-75.9-40.5-66.6-63.7-155.6-65.2-250.6-1.4-86.8 15.8-170.7 48.5-236.3 32.7-65.6 78.4-108.4 128.9-120.6 3-1 15.2-12.4 24.2-20.7 25.1-23.4 36-32.6 42.8-30.3 1.9 0.6 3.2 2 3.9 3.9 2 5.6-2.9 14.7-13.7 32.6-2.4 4-5.4 9.1-7.2 12.4 51.4 8.1 99.4 47.4 135.4 111.1 37 65.4 58.1 151 59.6 241 1.5 95-18.8 184.7-57.1 252.6-18.8 33.2-40.9 59.5-65.7 78-26 19.4-53.8 29.4-82.6 29.9-0.7 0.1-1.4 0.1-2.1 0.1z m24.3-751.7c-7.2 4.3-22.1 18.2-31.5 27-16.5 15.4-23.7 21.7-28.1 22.8-100 24.1-173.4 173.8-170.6 348.1 3.1 190.9 95.3 345 206 345h1.9c111.6-1.8 199.8-159.4 196.8-351.4-1.4-88.5-22.2-172.6-58.4-236.8C610 166.1 562.6 128 512.3 121.9c-1.7-0.2-3.2-1.2-4-2.8-1.8-3.7 0.6-8 9.3-22.4 3.7-6 9.9-16.3 12.1-22z"  /><path d="M480.6 120.9c-1.3-0.1-2.6-0.1-4-0.2-2.8 2.1-4.9 3.3-6.6 3.7-100 24.1-173.4 173.8-170.6 348.1 3.1 190.9 95.3 345 206 345h1.9c20.1-0.3 39.4-5.7 57.5-15.4 44.6-67.9 76.6-168.9 84.2-283.3 14.2-212.6-61.2-390.8-168.4-397.9z" fill="#CFE632" /><path d="M300.8 532.2s102.4 94.9 191.7 23.9 11.4 273.2 11.4 273.2-153.3-10-200.8-267.4c-6.7-36.5-2.3-29.7-2.3-29.7z" fill="#A16502" /><path d="M507.4 834l-3.8-0.2c-0.4 0-10.3-0.7-25.8-5.8-14.1-4.6-35.9-14-59.2-32.3-26.2-20.5-49-47.8-67.9-81.2-23.5-41.5-41-92.6-51.9-151.7-2.1-11.4-3.3-19.8-3.7-25-0.3-3.6-0.6-8.6 3.3-10.1 2-0.8 4.2-0.1 5.7 1.6 2.8 2.5 27.3 24 61 37.6 20.7 8.3 40.8 12.1 59.7 11.1 23.5-1.2 45.4-9.7 64.9-25.3 13.4-10.7 24.6-13.3 33.3-7.9 18.8 11.8 21.8 62.3 9 154.4-9.2 66.4-23.7 130.5-23.8 131.2l-0.8 3.6zM304.3 541c0.5 4.1 1.4 10.5 3.2 20.1 10.7 58 27.7 108 50.6 148.5 18.3 32.3 40.3 58.8 65.4 78.6 22.3 17.6 43.1 26.6 56.5 31.1 9.2 3.1 16.3 4.5 20.4 5.1 3.3-14.9 14.9-69.9 22.8-126.6 15.9-114.1 3.7-140.2-4.9-145.6-5.2-3.2-12.9-0.8-23.1 7.3-37.8 30.1-84.1 35.4-133.8 15.4-26.5-10.7-47.1-25.8-57.1-33.9z"  /><path d="M436.778376 436.395162a37.1 26.4 12.527 1 0 11.452302-51.543038 37.1 26.4 12.527 1 0-11.452302 51.543038Z" fill="#FF6666" opacity=".7" /><path d="M525.313541 848.676029a185.4 352.5 14.94 1 0 181.754209-681.168413 185.4 352.5 14.94 1 0-181.754209 681.168413Z" fill="#FFE780" /><path d="M511.6 825.9c85.1 24.4 192.3-108.8 239.5-297.5 35.7-142.7 26.9-276.3-16.3-343.5-7.7-5.1-15.8-9-24.3-11.7-9.6-3.1-19.4-4.6-29.5-4.6-19.3 0-39.4 5.6-60.2 16.8-35.4 19-70.4 53.3-101.3 99.2-31.9 47.4-58.1 105.6-75.7 168.1-9.9 35.2-16.8 70.4-20.6 104.7-11.8 138.2 21.5 249.3 88.4 268.5z" fill="#FFF6A6" /><path d="M551.2 856.4c-11 0-21.6-1.6-31.9-4.9-48.8-15.7-84.3-66.4-99.9-142.8-15.5-75.5-9.8-167.3 15.9-258.6 35.9-127.5 105.4-232 181.3-272.7 33.4-17.9 66.8-22.3 96.6-12.8 48.8 15.7 84.3 66.4 99.9 142.8 15.5 75.5 9.8 167.3-15.9 258.6-35.9 127.5-105.4 232-181.3 272.7-21.9 11.8-43.8 17.7-64.7 17.7z m129.7-687.9c-19.3 0-39.4 5.6-60.2 16.8-35.4 19-70.4 53.3-101.3 99.2-31.9 47.4-58.1 105.6-75.7 168.1-25.3 89.9-30.9 180.3-15.8 254.4 7.3 35.8 19.1 65.8 35 89.1 16.2 23.8 36.1 39.7 58.9 47 27.8 8.9 58 4.8 89.7-12.2 35.4-19 70.4-53.3 101.3-99.2 31.9-47.4 58.1-105.6 75.7-168.1 25.3-89.9 30.9-180.3 15.8-254.4-7.3-35.8-19.1-65.8-35-89.1-16.2-23.8-36.1-39.7-58.9-47-9.5-3-19.4-4.6-29.5-4.6z"  /><path d="M869.6 665.7c-2.1 0-4-1.6-4.4-3.7-8.2-52.2-29.8-88.8-64-108.8-32.8-19.1-71.6-19.5-98.5-16.4-29.4 3.4-51.2 11.5-51.4 11.5-2.3 0.9-4.8-0.3-5.7-2.6-0.9-2.3 0.3-4.8 2.6-5.7 0.9-0.3 22.9-8.5 53.2-12 28.2-3.3 69.2-2.9 104.1 17.5 36.7 21.4 59.7 60.1 68.4 115.1 0.4 2.4-1.3 4.7-3.7 5.1h-0.6zM564.3 961.6c-1.2 0-2.4-0.5-3.3-1.4-25.9-28.3-38.3-59.6-36.7-93.1 1.6-34.5 18.1-64.8 31.5-84.2 14.5-20.9 28.5-33.6 29.1-34.2 1.8-1.6 4.6-1.5 6.3 0.3 1.6 1.8 1.5 4.6-0.3 6.3-0.5 0.5-54.8 50.2-57.7 112.3-1.5 31 10.1 60.2 34.3 86.7 1.7 1.8 1.5 4.6-0.3 6.3-0.7 0.6-1.8 1-2.9 1zM491.9 893h-0.5c-39.5-4.6-67.1-18.3-81.8-40.9-19.3-29.4-9.4-62.6-9-64 0.7-2.3 3.2-3.7 5.5-2.9 2.3 0.7 3.7 3.2 2.9 5.5-0.1 0.3-9 30.8 8 56.7 13.3 20.2 38.6 32.6 75.4 36.9 2.4 0.3 4.2 2.5 3.9 4.9-0.3 2.1-2.2 3.8-4.4 3.8z"  /><path d="M348.12621 362.321948a22.6 47.7 12.527 1 0 20.692227-93.128898 22.6 47.7 12.527 1 0-20.692227 93.128898Z" fill="#FFFFFF" /><path d="M350.6 367.1c-1.1 0-2.3-0.1-3.4-0.4-15-3.3-21.5-27.8-15.1-56.8 2.9-13.1 8.1-24.9 14.6-33.3 7.2-9.3 15.4-13.5 23.1-11.8 15 3.3 21.5 27.8 15.1 56.8-6 26.9-20.3 45.5-34.3 45.5z m15.9-93.8c-3.8 0-8.4 3.1-12.7 8.7-5.7 7.4-10.3 17.9-13 29.8-5.5 24.9-0.1 44.4 8.3 46.2 8.4 1.9 21.6-13.4 27.1-38.3s0.1-44.4-8.3-46.2c-0.4-0.1-0.9-0.2-1.4-0.2z" fill="#000333" /><path d="M357.2 332.3c-0.3 0-0.6 0-0.8-0.1-3.1-0.5-4.9-3.2-5.2-8-0.2-2.8 0-6.3 0.5-10 1.7-11.3 5-16.6 9.8-15.9 4.8 0.7 6.4 6.8 4.7 18.1-0.6 3.7-1.4 7.1-2.4 9.7-1.7 4.1-3.9 6.2-6.6 6.2z m4.6-16.6z" fill="#000333" /><path d="M428.683194 368.556983a22.6 47.7 12.527 1 0 20.692227-93.128898 22.6 47.7 12.527 1 0-20.692227 93.128898Z" fill="#FFFFFF" /><path d="M431.1 373.3c-1.1 0-2.3-0.1-3.4-0.4-15-3.3-21.5-27.8-15.1-56.8 6.5-29 22.7-48.4 37.7-45.1 15 3.3 21.5 27.8 15.1 56.8-6 26.9-20.3 45.5-34.3 45.5z m15.9-93.7c-8.4 0-20.5 14.9-25.7 38.5-5.5 24.9-0.1 44.4 8.3 46.2 8.4 1.9 21.6-13.4 27.1-38.3s0.1-44.4-8.3-46.2c-0.5-0.2-0.9-0.2-1.4-0.2z m14.1 47.3z" fill="#000333" /><path d="M434.8 346.4c-0.4 0-0.8 0-1.2-0.1-4.7-1.1-5.9-7.2-3.4-18.4 0.8-3.6 1.9-7 3.1-9.5 2.1-4.4 4.7-6.3 7.8-5.6 4.7 1.1 5.9 7.2 3.4 18.4-0.8 3.6-1.9 7-3.1 9.5-1.8 3.7-4 5.7-6.6 5.7zM371.8 464.9c-3.9 0-7.5-0.6-11.1-1.8-22.1-7.5-27.9-35.4-28.2-36.6-0.5-2.4 1.1-4.7 3.5-5.2s4.7 1.1 5.2 3.5c0 0.2 5.1 24.2 22.4 30 13.5 4.5 31.3-2.7 52.9-21.6 1.8-1.6 4.6-1.4 6.3 0.4 1.6 1.8 1.4 4.6-0.4 6.3-19.1 16.6-36.1 25-50.6 25z" fill="#000333" /><path d="M571.8 291.8m-8.1 0a8.1 8.1 0 1 0 16.2 0 8.1 8.1 0 1 0-16.2 0Z" fill="#FFFFFF" /><path d="M471.1 555.6h-0.3c-3.7-0.2-6.5-3.3-6.3-7 4.1-81.8 27-142.9 45.5-179.7 20.2-40.1 39.3-60.6 40.1-61.5 2.5-2.7 6.7-2.8 9.4-0.3s2.8 6.7 0.3 9.4c-0.2 0.2-18.8 20.3-38.2 58.9-17.8 35.6-39.9 94.6-43.8 173.9-0.2 3.5-3.2 6.3-6.7 6.3z" fill="#FFFFFF" /><path d="M307.715416 409.721472a34.5 24.6 12.527 1 0 10.671463-48.028741 34.5 24.6 12.527 1 0-10.671463 48.028741Z" fill="#FF6666" opacity=".7" /></svg>