<?xml version="1.0" standalone="no"?><!DOCTYPE svg PUBLIC "-//W3C//DTD SVG 1.1//EN" "http://www.w3.org/Graphics/SVG/1.1/DTD/svg11.dtd"><svg class="icon" width="200px" height="200.00px" viewBox="0 0 1024 1024" version="1.1" xmlns="http://www.w3.org/2000/svg"><path d="M459.5 937.6h-0.5c-20-2.5-32.6-10.6-37.4-24.2-8-22.5 6.2-59.1 42.4-108.7 26.4-36.3 55.4-66.7 55.7-67 1.7-1.8 4.5-1.8 6.3-0.1 1.8 1.7 1.8 4.5 0.1 6.3-0.3 0.3-28.9 30.4-55 66.2-42.7 58.6-45.9 87-41.1 100.4 3.7 10.3 13.5 16.4 30.2 18.4 2.4 0.3 4.1 2.5 3.8 4.9-0.4 2.2-2.3 3.8-4.5 3.8z"  /><path d="M519.5 67.2c12.3 7.8 15.6 31.9 9.1 57.7-6.5 25.7-24.7-1.8-24.7-1.8s7.3-17.8-4.4-37c-11.5-19.3 14.2-22.6 20-18.9z" fill="#9B7A6D" /><path d="M519.8 140.3c-9.3 0-17.9-12.2-19.6-14.8l-1.3-1.9 0.9-2.2c0.3-0.6 6.2-16.1-4-33-6.8-11.2-2.6-18 0.5-21 4.2-4.1 10.1-5.3 13.3-5.7 5-0.6 9.6 0.1 12.3 1.8 13.8 8.7 18.2 33.9 11 62.5-2.2 8.5-6 13.3-11.3 14.2-0.6 0-1.2 0.1-1.8 0.1z m-11-18c4.3 5.8 9.2 9.4 11.2 9.1 1.1-0.2 2.9-2.3 4.2-7.6 6.1-24.1 3.1-46.4-7.1-52.8-0.6-0.4-3.2-0.9-6.6-0.5-3.4 0.4-6.4 1.6-8.1 3.2-0.8 0.8-3.3 3.2 0.9 10.1 10.3 16.8 7.2 32.7 5.5 38.5z"  /><path d="M490.6 122.4s-229.2 45.3-216.8 291.3C293 586 368.3 652.6 377.1 752.4c-3.5 101.8-14.5 105.4 123.6 65.1 130.1-46.3 251.6-196.9 244.6-353.2-7-156.3-45.8-296.5-188-341.3-35.6-7.5-66.7-0.6-66.7-0.6z" fill="#FFD31A" /><path d="M522.3 119.5c10.3 0 22.4 0.9 35 3.6 142.1 44.9 180.9 185 188 341.3 7 156.3-114.5 306.9-244.6 353.2-51.5 15-82.3 23.9-100.4 23.9-30.5 0-25.4-25.2-23.2-89.1-8.8-99.8-84.1-166.4-103.3-338.7-12.3-246.1 216.8-291.3 216.8-291.3s13-2.9 31.7-2.9m0-8.8c-18.8 0-32.2 2.8-33.6 3.1-1.4 0.3-15.9 3.3-36.9 11.3-20 7.6-50 21.3-79.6 43.7-33.4 25.2-59.6 56.1-77.7 91.7-22.6 44.4-32.5 96.1-29.6 153.8v0.6c10.9 97.8 39.2 161 64.2 216.9 18.9 42.3 35.3 78.8 39.1 121.1-0.3 7.2-0.5 13.9-0.8 20.3-1.6 36.9-2.4 57.2 8.8 68.9 5.5 5.7 13.4 8.5 24.1 8.5 19.6 0 50.9-9.1 102.9-24.3l0.2-0.1 0.2-0.1c33.2-11.8 65.7-30 96.5-54.1 30.7-23.9 58-52.3 81.3-84.4 24.1-33.2 42.7-68.7 55.1-105.6 13.3-39.4 19.2-79 17.4-117.9-1.9-43-6-80.4-12.5-114.2-7.4-38.9-17.8-72.2-31.7-101.6-15.2-32.3-34.8-59.7-58.3-81.3-25.5-23.5-56.3-41-91.7-52.2l-0.4-0.1-0.4-0.1c-11.4-2.7-23.8-3.9-36.6-3.9z" fill="#491407" /><path d="M497.6 127.1S353.5 171.8 361.3 415c11.5 162.5 45.5 230.5 53.4 322.2 0.7 8.6-0.3 17.3-2.9 25.5-26.2 82.5-34.8 90.4 48.1 52.4 81.8-45.7 202.3-195.5 197.9-350-4.4-154.5-28.8-293-118.2-337.3-22.4-7.5-42-0.7-42-0.7z" fill="#FDE151" /><path d="M505.5 127.1s-48 45.5-45.4 292.9c2.9 126.5-10.3 192.9-3.5 258.2 6.3 60.4-16.9 106.1-37.2 156-4.9 12.1 8.9-5.1 12.1-10.7C458.7 777 560.2 628.1 558.8 471c-1.5-157.1-9.6-298-39.3-343.1-7.5-7.7-14-0.8-14-0.8z" fill="#F9E382" /><path d="M400.3 846c-8.2 0-14.2-1.7-18.8-5.3-12.1-9.5-11.3-30.1-9.7-67.5 0.3-6.5 0.6-13.2 0.8-20.6-3.9-43.1-20.4-80.1-39.5-122.8-24.8-55.5-53-118.5-63.8-215.5v-0.3c-2.8-56.9 7-107.9 29.2-151.6 17.8-35 43.5-65.3 76.4-90.1 55.6-41.9 111.8-53.6 114.8-54.2 1.9-0.4 32.8-6.9 68.5 0.7l0.4 0.1c34.8 11 65 28.2 90 51.2 23 21.3 42.3 48.2 57.3 80 25.4 53.9 39.7 123.9 43.7 214.1 3.3 74.1-22.1 152.4-71.7 220.7-46.3 63.7-110.4 113.6-175.8 136.9l-0.2 0.1C450 837 419.2 846 400.3 846zM278.2 413.4c10.7 95.6 38.5 157.9 63.1 212.8 19.5 43.6 36.3 81.2 40.2 125.9v0.6c-0.3 7.5-0.5 14.4-0.8 21-1.4 33.3-2.3 53.5 6.3 60.2 11.5 9 45.2-0.8 112.4-20.4 63.7-22.7 126.2-71.4 171.5-133.7 48.4-66.6 73.3-143 70-215.1-4-89-18-158-42.9-210.8-14.5-30.8-33.1-56.7-55.3-77.2-24-22.1-53.1-38.7-86.5-49.2-34.2-7.2-64.3-0.7-64.6-0.6h-0.1c-0.7 0.1-57.3 11.7-111.5 52.8-31.8 24-56.5 53.3-73.7 87.1-21.4 42-30.9 91.4-28.1 146.6z"  /><path d="M273.3 654.9c-0.6 0-1.2-0.1-1.7-0.3-33.9-14.3-51.6-32.6-52.6-54.5-1-22.6 15.8-47.8 50-74.9 24.9-19.7 49.7-33 50.7-33.5 2.2-1.1 4.8-0.3 6 1.8 1.1 2.2 0.3 4.8-1.8 6-0.2 0.1-25.2 13.4-49.5 32.7-21.9 17.3-47.7 43.1-46.6 67.5 0.8 18.2 16.7 33.9 47.2 46.7 2.3 0.9 3.3 3.5 2.4 5.8-0.7 1.7-2.4 2.7-4.1 2.7zM808.2 592.5c-0.4 0-0.8 0-1.1-0.2-2.4-0.6-3.8-3.1-3.1-5.4 6-22.2 3.5-41.3-7.4-56.6-25.5-36.1-89-41.4-89.6-41.5-2.4-0.2-4.3-2.3-4.1-4.8 0.2-2.4 2.3-4.2 4.7-4.1 0.7 0.1 17.2 1.4 37.2 7.5 26.9 8.2 47.3 21.2 58.9 37.7 12.5 17.6 15.4 39.2 8.7 64-0.5 2.1-2.3 3.4-4.2 3.4z"  /><path d="M481.4 347.2c-0.9 0-1.9-0.3-2.7-0.9-1.9-1.5-2.3-4.3-0.8-6.2 0.3-0.3 6.4-8.1 19.6-8.2h0.2c25.7 0 32.3 8 33.3 9.6l-7.4 4.8s0 0.1 0.1 0.2c0-0.1-5.1-5.8-26.1-5.8h-0.2c-8.8 0-12.6 4.7-12.6 4.7-0.8 1.2-2.1 1.8-3.4 1.8z"  /><path d="M365.8 362.9c-1.4-9.5-0.2-19.4 3.9-28 3.8-7.9 10.3-15.6 21.4-16.7 24.2-2.5 57.1-2.9 69.8 0.1 7.3 1.7 22.4 6.7 23 28.6 0.5 21.9 1.8 30-1.7 38.9s-11.9 24.7-28.8 25c-16.9 0.3-39.8 2.3-47.7 0.8-7.9-1.5-31.8-10.2-37.6-35.3-0.7-3.3-1.6-8.8-2.3-13.4zM648.7 357.3c1.1-9.6-0.7-19.3-5.5-27.8-4.4-7.8-11.6-15.1-23.3-15.7-25.5-1.4-60.2-0.3-73.4 3.2-7.6 2-23.2 7.7-22.8 29.6s-0.5 30.1 3.6 38.7c4.1 8.7 13.7 24.2 31.4 23.7 17.8-0.5 41.9 0.5 50.1-1.4s32.9-11.6 37.8-36.9c0.9-3.2 1.6-8.7 2.1-13.4z" fill="#442211" /><path d="M387 373.3c-0.8 0-1.6-0.4-2.1-1-2.4-3.1-4-6.8-5.2-11.6-0.8-3.2-1.1-6.2-0.9-8.9 0.1-1.5 1.4-2.6 2.9-2.4 1.5 0.1 2.6 1.4 2.4 2.9-0.2 2.1 0.1 4.6 0.8 7.3 1 4.2 2.3 7.2 4.3 9.7 0.9 1.2 0.7 2.8-0.5 3.7-0.5 0.1-1.1 0.3-1.7 0.3zM382.4 341.8c-0.9 0-1.8-0.5-2.3-1.3-0.7-1.3-0.3-2.9 1-3.6 0.4-0.3 0.7-0.4 0.9-0.4 1.4-0.5 2.9 0.1 3.4 1.5 0.5 1.3-0.1 2.9-1.4 3.4 0 0-0.1 0.1-0.2 0.1-0.5 0.2-1 0.3-1.4 0.3zM546.4 367.5c-0.9 0-1.7-0.4-2.2-1.2-1.7-2.6-3-5.6-4-9.5-0.8-3.2-1.1-6.2-1-8.9 0.1-1.5 1.4-2.6 2.8-2.5 1.5 0.1 2.6 1.4 2.5 2.8-0.2 2.1 0.1 4.6 0.8 7.2 0.9 3.3 1.9 5.8 3.3 7.9 0.8 1.2 0.5 2.9-0.7 3.7-0.5 0.4-1 0.5-1.5 0.5zM542.7 337.9c-0.9 0-1.7-0.4-2.2-1.2-0.8-1.2-0.5-2.9 0.7-3.7 0.4-0.3 0.7-0.4 0.8-0.5 1.3-0.7 2.9-0.1 3.6 1.2 0.6 1.3 0.1 2.9-1.2 3.5 0 0-0.1 0.1-0.2 0.1-0.5 0.5-1 0.6-1.5 0.6z" fill="#FFFFFF" /><path d="M436 299.6c-1.8 0-3.5-1.1-4.1-2.9-7.3-19.7-36.1-11.9-36.4-11.8-2.3 0.7-4.8-0.7-5.5-3.1-0.7-2.4 0.7-4.8 3.1-5.5 12.7-3.6 38.9-4.6 47 17.3 0.8 2.3-0.3 4.8-2.6 5.7-0.5 0.3-1 0.3-1.5 0.3zM564 305h-0.2c-2.4-0.1-4.3-2.2-4.2-4.6 1.2-23.3 26.5-30.1 39.7-30.5 2.4-0.1 4.5 1.8 4.6 4.3 0.1 2.4-1.8 4.5-4.3 4.6-0.2 0-8.1 0.3-15.9 3.4-9.7 3.9-14.8 10.1-15.2 18.7-0.2 2.3-2.2 4.1-4.5 4.1zM482.4 495.3c-2 0-3.3-0.1-3.5-0.1-2.4-0.2-4.3-2.3-4.1-4.7 0.2-2.4 2.3-4.3 4.7-4.1 0.2 0 21.7 1.3 32.8-8.5 4-3.6 6.1-8.1 6.3-13.8 0.1-2.4 2.2-4.3 4.6-4.2 2.4 0.1 4.3 2.2 4.2 4.6-0.4 8.1-3.5 14.9-9.3 20-10.9 9.7-28.3 10.8-35.7 10.8z"  /><path d="M624.8 269.5s3.8 36.9-25.4 37.5c0 0 29.2-3.3 29.2 37.1 0 0-5.8-38.9 24.9-38.9 0-0.1-30-1.5-28.7-35.7z" fill="#FFFF00" /><path d="M628.6 346.7c-1.3 0-2.4-1-2.6-2.3-0.1-0.3-0.5-3.7-0.5-8.4-1.1-9.3-4.2-16.2-9.2-20.8-5.7-5.1-12.6-5.7-15.3-5.7-0.5 0-1 0.1-1.5 0.1h-0.1c-1.4 0-2.6-1.1-2.6-2.5-0.1-1.4 0.9-2.7 2.3-2.8 0.1 0 0.7-0.1 1.7-0.1 5.9-0.4 10.7-2.6 14.2-6.6 5.6-6.3 6.9-15.8 7.2-21.9-0.2-2-0.2-4.2-0.1-6.4 0.1-1.4 1.2-2.5 2.6-2.5h0.1c1.4 0 2.5 1 2.6 2.4 0 0.3 0.3 2.9 0.1 6.6 2.2 25.1 25 26.7 26.1 26.7 1.4 0.1 2.6 1.3 2.5 2.7 0 1.4-1.2 2.6-2.6 2.6-7 0-12.4 2.2-16.1 6.6-5.2 6.1-6.4 15.1-6.5 21.5 0.3 2.6 0.4 5.3 0.4 8.1 0 1.4-1.1 2.5-2.5 2.6 0 0.1-0.1 0.1-0.2 0.1z m-16.3-40.2c2.5 1 5 2.6 7.5 4.7 3.2 2.9 5.8 6.5 7.7 10.9 1.2-4 3-8 5.9-11.3 2.3-2.7 5.1-4.8 8.4-6.2-5.8-2.6-12.3-7.2-16.2-15.7-1.3 4.3-3.3 8.6-6.5 12.2-2 2.3-4.2 4.1-6.8 5.4z"  /><path d="M613.2 937.6c-1 0-2-0.3-2.9-1.1-34.3-29-53.3-70.4-54.9-119.5-1.3-36.9 7.5-64.9 7.9-66.1 0.7-2.3 3.2-3.6 5.6-2.9 2.3 0.7 3.6 3.2 2.9 5.6-0.1 0.3-8.7 27.9-7.5 63.3 0.7 20.7 4.6 40 11.6 57.3 8.7 21.6 22.2 40.3 40.2 55.6 1.9 1.6 2.1 4.4 0.5 6.2-1 1.1-2.2 1.6-3.4 1.6z"  /></svg>