<?xml version="1.0" standalone="no"?><!DOCTYPE svg PUBLIC "-//W3C//DTD SVG 1.1//EN" "http://www.w3.org/Graphics/SVG/1.1/DTD/svg11.dtd"><svg class="icon" width="200px" height="200.00px" viewBox="0 0 1024 1024" version="1.1" xmlns="http://www.w3.org/2000/svg"><path d="M638.1 854.8c-2.3 0-4.3-1.8-4.4-4.2-0.1-2.5 1.7-4.6 4.2-4.7 0.1 0 11.9-0.7 23.7-4.4 17.9-5.6 22.1-13.6 22.4-19.3 0.6-10.6-19.7-25.8-39.3-40.5-20.6-15.5-44-33-53.9-52.2-20-38.5-14.4-76.8-14.1-78.5 0.4-2.4 2.7-4.1 5.1-3.7 2.4 0.4 4.1 2.7 3.7 5.1-0.1 0.4-5.4 37.1 13.2 73 9 17.3 31.5 34.2 51.3 49.2 23.4 17.6 43.7 32.8 42.8 48.2-1.6 28.8-52.3 32-54.5 32.1 0-0.1-0.1-0.1-0.2-0.1zM375.4 832.5h-4.1c-16.7-0.4-32-2.7-32.6-2.8-2.4-0.4-4.1-2.7-3.7-5.1 0.4-2.4 2.7-4.1 5.1-3.7 24.4 3.8 61.2 4.9 66.7-4.7 2.2-3.8-1.7-10.1-5.3-14.6-15.3-19.2-20.7-39.2-16.1-59.6 4.8-21.3 20.2-42.2 45.9-62.3 18.8-14.7 36.1-23.2 36.8-23.6 2.2-1.1 4.9-0.2 6 2 1.1 2.2 0.2 4.9-2 6-0.7 0.3-67.5 33.6-77.9 79.8-3.9 17.6 0.9 35.1 14.4 52 7.8 9.8 9.8 18.1 6 24.7-4.8 8-17.6 11.9-39.2 11.9z"  /><path d="M802.2 378c0 175-141.9 316.9-316.9 316.9S168.3 553 168.3 378c0-45.3 15.2-102.8 34.4-134l0.6-0.9c3.1-4.4 7.3-7.9 12.1-10.3l51.6-26.1c4.3-2.2 8.8-3.9 13.5-5.1 0.1 0 0.3-0.1 0.4-0.1 30-7.7 99.1 25.1 117.8 18.9 18.1-6.1 15.9-30.9 33-37.7 31.4-12.6 51-22.8 60.6-30.8 11.4-9.5 14.3-23.1 21-37.7 7.7-16.8 11.2-20 18.2-33.5 3.1-5.9 23.6-11.9 32.6-9.6C701 106 802.2 230.2 802.2 378z" fill="#FFD683" /><path d="M485.2 699.4c-43.4 0-85.5-8.5-125.1-25.3-38.3-16.2-72.6-39.4-102.2-68.9-29.5-29.5-52.7-63.9-68.9-102.2-16.8-39.6-25.3-81.7-25.3-125.1 0-45.2 15.1-103.9 35.1-136.4 0.2-0.4 0.5-0.7 0.8-1.2 3.4-4.9 8.2-8.9 13.7-11.7l51.6-26.1c4.6-2.3 9.5-4.2 14.4-5.5l0.4-0.1c17.5-4.5 44.9 3.2 71.4 10.6 19.1 5.3 38.9 10.8 46.1 8.4 7.5-2.5 10.8-9.2 14.6-16.9 3.9-7.9 8.3-16.8 18.2-20.8 29.8-11.9 49.8-22 59.4-30.1 7.7-6.4 11.2-15.1 15.2-25.2 1.4-3.5 2.9-7.2 4.6-10.9 4.7-10.3 7.9-15.6 11.3-21.2 2.1-3.6 4.3-7.2 7.1-12.5 4.3-8.2 27.4-14.5 37.7-11.8C633.1 84 694.5 124.1 738 179.4c21.8 27.7 38.8 58.6 50.4 91.7 12.1 34.3 18.2 70.2 18.2 106.9 0 43.4-8.5 85.5-25.3 125.1-16.2 38.3-39.4 72.6-68.9 102.2-29.5 29.5-63.9 52.7-102.2 68.9-39.5 16.7-81.6 25.2-125 25.2zM291.7 204.6c-3.6 0-6.8 0.3-9.7 1l-0.4 0.1c-4.3 1.1-8.6 2.7-12.6 4.8l-51.6 26.1c-4.2 2.1-7.9 5.2-10.5 8.9-0.2 0.2-0.3 0.5-0.5 0.7-19.3 31.3-33.8 87.9-33.8 131.7 0 83.5 32.5 161.9 91.5 221 59 59 137.5 91.5 221 91.5s161.9-32.5 221-91.5c59-59 91.5-137.5 91.5-221 0-35.6-6-70.6-17.7-103.9-11.3-32.2-27.8-62.2-49-89.1-42.3-53.8-102-92.8-167.9-109.7-7.9-2-25.7 3.9-27.6 7.3-2.8 5.5-5.1 9.2-7.3 12.9-3.2 5.4-6.3 10.5-10.8 20.4-1.6 3.5-3 7.1-4.4 10.5-4.3 10.8-8.4 20.9-17.8 28.7-10.4 8.6-31.2 19.2-61.8 31.5-6.8 2.7-9.9 9.1-13.5 16.4-4.1 8.3-8.7 17.7-19.7 21.4-9.4 3.1-25.6-1.1-51.4-8.3-19.6-5.3-41.4-11.4-57-11.4z"  /><path d="M775.1 249.7c4.1 20.4 6.3 41.4 6.3 63 0 175-141.9 316.9-316.9 316.9-129.4 0-240.7-77.5-289.9-188.7 29.2 144.9 157.2 254 310.7 254 175 0 316.9-141.9 316.9-316.9 0-45.7-9.7-89.1-27.1-128.3z" fill="#E29B61" /><path d="M76.7 578c-0.9 0-1.6-0.1-2.3-0.2-2.2-0.5-4-1.8-5-3.6-9.6-17.7 1.1-124.8 29.5-169.7 1.3-2.1 4.1-2.7 6.2-1.4 2.1 1.3 2.7 4.1 1.4 6.2-11.9 18.8-21.9 52.2-27.6 91.7-4.9 33.7-4.8 61-1.9 68.2h0.1c3.3 0 17.7-3.6 75.8-43.8 33.7-23.3 65.6-47.6 65.9-47.8 2-1.5 4.8-1.1 6.3 0.8 1.5 2 1.1 4.8-0.8 6.3-0.3 0.2-32.1 24.4-65.9 47.8-19.9 13.8-36.6 24.6-49.6 32.1-19.3 11-27.6 13.4-32.1 13.4z"  /><path d="M276.9 277.2a8.1 14.2 0 1 0 16.2 0 8.1 14.2 0 1 0-16.2 0Z" fill="#EA4F30" /><path d="M617.429913 538.258181a8.1 14.2 82.839 1 0 28.178474-3.540284 8.1 14.2 82.839 1 0-28.178474 3.540284Z" fill="#EA4F30" /><path d="M643.967581 200.68741a8.1 14.2 30 1 0 14.2-24.595121 8.1 14.2 30 1 0-14.2 24.595121Z" fill="#EA4F30" /><path d="M316.7 522.3m-12.3 0a12.3 12.3 0 1 0 24.6 0 12.3 12.3 0 1 0-24.6 0Z" fill="#EA4F30" /><path d="M643.189958 443.783726a13.6 10.3 33.407 1 0 11.342005-17.196481 13.6 10.3 33.407 1 0-11.342005 17.196481Z" fill="#EA4F30" /><path d="M202.30638 357.703986a13.9 10.1 87.701 1 0 20.183741-0.81031 13.9 10.1 87.701 1 0-20.183741 0.81031Z" fill="#EA4F30" /><path d="M715.737315 319.416546a13.5 10.5 44.999 1 0 14.848983-14.849501 13.5 10.5 44.999 1 0-14.848983 14.849501Z" fill="#EA4F30" /><path d="M466.876455 350.111129a14.2 8.1 44.999 1 0 11.45493-11.45533 14.2 8.1 44.999 1 0-11.45493 11.45533Z" fill="#EA4F30" /><path d="M526.737435 206.307512a10.6 7.6 44.999 1 0 10.747835-10.748211 10.6 7.6 44.999 1 0-10.747835 10.748211Z" fill="#EA4F30" /><path d="M467.247216 616.947125a10.6 7.6 44.999 1 0 10.747835-10.74821 10.6 7.6 44.999 1 0-10.747835 10.74821Z" fill="#EA4F30" /><path d="M485.2 699.4c-43.4 0-85.5-8.5-125.1-25.3-38.3-16.2-72.6-39.4-102.2-68.9-29.5-29.5-52.7-63.9-68.9-102.2-16.8-39.6-25.3-81.7-25.3-125.1 0-45.2 15.1-103.9 35.1-136.4 0.2-0.4 0.5-0.7 0.8-1.2 3.4-4.9 8.2-8.9 13.7-11.7l51.6-26.1c4.6-2.3 9.5-4.2 14.4-5.5l0.4-0.1c17.5-4.5 44.9 3.2 71.4 10.6 19.1 5.3 38.9 10.8 46.1 8.4 7.5-2.5 10.8-9.2 14.6-16.9 3.9-7.9 8.3-16.8 18.2-20.8 29.9-12 42.3-21.1 52.3-29.5l2.3-1.9c9.7-8 14.5-12 20.3-24.6 5.6-12.1 11.1-22.4 16.5-32.4 2.1-4 4.1-7.7 6.1-11.5 4.3-8.2 27.4-14.5 37.7-11.8C633.1 84 694.5 124.1 738 179.4c21.8 27.7 38.8 58.6 50.4 91.7 12.1 34.3 18.2 70.2 18.2 106.9 0 43.4-8.5 85.5-25.3 125.1-16.2 38.3-39.4 72.6-68.9 102.2-29.5 29.5-63.9 52.7-102.2 68.9-39.5 16.7-81.6 25.2-125 25.2zM291.7 204.6c-3.6 0-6.8 0.3-9.7 1l-0.4 0.1c-4.3 1.1-8.6 2.7-12.6 4.8l-51.6 26.1c-4.2 2.1-7.9 5.2-10.5 8.9-0.2 0.2-0.3 0.5-0.5 0.7-19.3 31.3-33.8 87.9-33.8 131.7 0 83.5 32.5 161.9 91.5 221 59 59 137.5 91.5 221 91.5s161.9-32.5 221-91.5c59-59 91.5-137.5 91.5-221 0-35.6-6-70.6-17.7-103.9-11.3-32.2-27.8-62.2-49-89.1-42.3-53.8-102-92.8-167.9-109.7-7.9-2-25.7 3.9-27.6 7.3-2 3.8-4 7.6-6.2 11.6-5.3 9.8-10.8 20-16.2 31.9-6.6 14.5-12.7 19.5-22.7 27.8l-2.3 1.9c-10.6 8.8-23.6 18.4-54.7 30.9-6.8 2.7-9.9 9.1-13.5 16.4-4.1 8.3-8.7 17.7-19.7 21.4-9.4 3.1-25.6-1.1-51.4-8.3-19.6-5.4-41.4-11.5-57-11.5z"  /><path d="M500 468l-5.6-23.4 11.8-28.9 26.5-13 24.7 9.8 6.1 25.5-15.9 21.3-32.6 14.2z" fill="#FF3131" /><path d="M453.1 485.6c-11.8 0-22.5-0.8-30.5-2.2-14.7-2.5-25.2-8.5-31.2-17.8-8.1-12.5-4.6-26.2-4.5-26.8 0.6-2.4 3.1-3.8 5.4-3.2 2.4 0.6 3.8 3.1 3.2 5.4 0 0.1-2.6 10.6 3.4 19.8 4.6 7 13.1 11.7 25.2 13.8 16.8 2.9 46.7 3.1 74.3-1.9-6-5.9-11.8-17.1-6.7-37.2 4.2-16.6 15.4-36.5 44.7-37.3 11.1-0.3 31.3 9.5 32.5 30.3 0.7 11.6-3.9 21.9-13.5 30.4-22.2 19.7-67.6 26.7-102.3 26.7z m83.8-78.5h-0.3c-19.3 0.5-31.2 10.6-36.3 30.6-6.7 26.4 9.1 32.1 9.8 32.4 0.1 0 0.2 0.1 0.2 0.1 15.8-3.9 29.9-9.7 39.1-17.9 7.6-6.8 11-14.4 10.5-23.3-0.8-14.5-15.2-21.9-23-21.9z"  /><path d="M540 466.7c-0.3 0-0.6-0.1-0.9-0.2-20.6-7.4-7.9-46.1-7.3-47.7 0.5-1.4 2-2.2 3.4-1.7 1.4 0.5 2.2 2 1.7 3.4-3.3 9.8-8.9 36.3 4.1 41 1.4 0.5 2.1 2 1.6 3.4-0.4 1.1-1.5 1.8-2.6 1.8zM316.8 379.9c-2.1 0-3.9-1.4-4.4-3.5-2-9.1 12.6-12.4 31.1-16.5 1.8-0.4 3.7-0.8 5.7-1.3-21-7.8-25-27.5-25.2-28.4-0.5-2.4 1.1-4.8 3.5-5.2 2.4-0.5 4.7 1.1 5.2 3.5 0.2 0.8 4.1 18.8 24.8 23.3 3.1 0.7 8.8 1.9 8.8 6.7 0 5.4-6.1 6.8-20.9 10.1-6.9 1.6-21.1 4.7-24.2 7.3-0.2 1.9-1.5 3.6-3.5 4-0.3-0.1-0.6 0-0.9 0z m42-18.6zM616.4 375.4c-2.1 0-3.9-1.5-4.3-3.4-3.3-2.3-18.4-4-25.9-4.9-15.8-1.8-21.8-2.5-22.3-7.9-0.5-4.8 4.9-6.6 7.8-7.5 19.5-6.5 19.4-25 19.4-25.2 0-2.5 1.9-4.5 4.4-4.5 2.4 0 4.5 1.9 4.5 4.4 0.1 7.7-4 23-19.3 31.1 2.2 0.3 4.5 0.5 6.5 0.8 20.9 2.4 33.7 4.3 33.6 12.7 0.1 2.4-1.9 4.4-4.4 4.4z m-4-3.2zM334.7 283.5c-13.1 0-24.2-7.7-24.7-8.1-2-1.4-2.5-4.2-1.1-6.2s4.2-2.5 6.2-1.1c0.1 0.1 13.3 9.2 25.6 5.6 6.1-1.7 9.1-4.6 12.3-7.7 3.7-3.5 7.8-7.5 15.8-8.2 2.5-0.2 4.6 1.6 4.8 4.1 0.2 2.5-1.6 4.6-4.1 4.8-4.9 0.4-7.1 2.5-10.4 5.7-3.5 3.3-7.8 7.5-16 9.8-2.8 0.9-5.7 1.3-8.4 1.3zM612.1 275.2c-0.7 0-1.3-0.2-2-0.5-5.6-2.8-16-1.4-24.5-0.4-2.3 0.3-4.4 0.6-6.5 0.8-5.6 0.6-12.1-2.5-19.1-9.2-4.8-4.5-8.3-9.1-8.4-9.3-1.5-2-1.1-4.8 0.9-6.2 2-1.5 4.8-1.1 6.2 0.9 4.9 6.5 14.1 15.4 19.5 14.9 1.9-0.2 4-0.5 6.2-0.7 10.1-1.3 21.6-2.7 29.6 1.2 2.2 1.1 3.1 3.8 2 6-0.7 1.6-2.3 2.5-3.9 2.5zM848.5 570.4c-23.6 0-43.1-3.4-55-9.9-1.9-1-2.7-3.7-1.8-5.9 0.9-2.2 3.2-3.2 5.1-2.1 15.3 8.4 45.3 11.2 80.3 7.5 32.1-3.4 60.7-11.6 71.2-20.4 2.2-1.9 3.5-3.7 3.4-4.9-0.1-1.1-1.9-7.5-25.8-30.4-13.9-13.3-33.2-30.2-57.2-50.1-41-33.9-82.3-65.4-82.7-65.7-1.8-1.3-2.3-4.1-1.1-6.2 1.2-2.1 3.5-2.6 5.3-1.3 0.4 0.3 41.8 31.9 82.9 65.9 84.5 69.9 85.7 82.1 86.2 86.7 0.5 4.7-1.7 9.2-6.5 13.2-11.7 9.8-41.1 18.5-74.9 22-10.3 1-20.1 1.6-29.4 1.6z"  /></svg>