<?xml version="1.0" standalone="no"?><!DOCTYPE svg PUBLIC "-//W3C//DTD SVG 1.1//EN" "http://www.w3.org/Graphics/SVG/1.1/DTD/svg11.dtd"><svg class="icon" width="200px" height="200.00px" viewBox="0 0 1024 1024" version="1.1" xmlns="http://www.w3.org/2000/svg"><path d="M861.8 477.9c0 191.1-132.1 307.7-295 307.7s-295-116.6-295-307.7c0-143.3 74.3-266.3 180.2-318.9 35.3-17.5 112.1-70.5 152.8-70.5 37.2 0 34.9 51.4 67.7 66.2 110.7 49.9 189.3 175.8 189.3 323.2z" fill="#8E543F" /><path d="M566.8 790.2c-82.4 0-157.6-29.7-211.8-83.5-27.7-27.6-49.4-60.7-64.2-98.4-15.6-39.5-23.5-83.4-23.5-130.4 0-70.1 17.6-137.8 51-195.7C350.9 225.6 396.4 181.6 450 155c9.1-4.5 21-11.4 34.7-19.4 39.6-23 88.9-51.6 120.1-51.6 23.2 0 32.7 17.5 42 34.5 7 12.9 14.2 26.1 27.6 32.2 56 25.2 103.7 69 138.2 126.8 35.2 59 53.8 128.3 53.8 200.5 0 47-7.9 90.9-23.5 130.4-14.9 37.7-36.5 70.8-64.2 98.4-54.3 53.7-129.5 83.4-211.9 83.4z m38-697.2c-28.8 0-79 29.1-115.6 50.4-13.9 8-25.8 15-35.2 19.7-51.9 25.8-96.2 68.5-127.9 123.6-32.6 56.5-49.8 122.7-49.8 191.2 0 45.9 7.7 88.6 22.9 127.1 14.4 36.6 35.4 68.6 62.2 95.3 52.5 52.2 125.5 80.9 205.4 80.9 80 0 152.9-28.7 205.4-80.9 26.8-26.7 47.8-58.7 62.2-95.3 15.2-38.4 22.9-81.2 22.9-127.1 0-70.6-18.2-138.3-52.5-195.9-33.5-56.2-79.9-98.8-134.2-123.2-16.1-7.3-24.5-22.6-31.8-36.1-8.7-15.9-16.2-29.7-34-29.7z" fill="#070707" /><path d="M807.5 486.7c0 156.5-127.2 283.4-284 283.4s-284-126.9-284-283.4c0-127.2 84-234.8 199.6-270.7 26.7-8.3 75.6-48.8 105-48.8 16.7 0 12.4 37.5 28.3 40.2C706 230.6 807.5 346.8 807.5 486.7z" fill="#FCECCF" /><path d="M523.5 774.6c-77.1 0-149.5-29.9-204-84.3S235 563.6 235 486.7c0-62.7 19.8-122.2 57.3-172.3 18-24.1 39.6-45.1 64.2-62.5 24.9-17.6 52.2-31.2 81.2-40.2 10.1-3.1 24-11.4 38.7-20.1 23.9-14.2 48.7-28.9 67.7-28.9 11.9 0 15.8 12.8 19 23 2.5 8.1 5.1 16.4 10.1 17.3 66.1 11.4 126.6 46 170.3 97.3 44.2 51.9 68.6 118.1 68.6 186.3 0 76.9-30 149.2-84.5 203.6-54.6 54.5-127 84.4-204.1 84.4z m20.6-602.9c-16.5 0-41.2 14.7-63.1 27.6-15.2 9-29.5 17.5-40.6 21-28.1 8.7-54.6 21.8-78.7 38.9-23.8 16.9-44.7 37.3-62.2 60.6C263.2 368.3 244 426 244 486.7c0 74.5 29.1 144.5 81.9 197.2 52.8 52.7 123 81.7 197.7 81.7 74.7 0 144.9-29 197.7-81.7 52.8-52.7 81.9-122.7 81.9-197.2 0-66.1-23.6-130.2-66.4-180.5-42.3-49.7-100.9-83.2-165-94.3-10.5-1.8-14-13.3-17.2-23.5-3.3-10.1-5.7-16.7-10.5-16.7z"  /><path d="M689.1 480.1c0-131.5-37.5-225.5-143.2-247.2-12.6-2.6-8.4-53.6-21.6-53.6-2.5 0-5.6 0.4-9.3 1.2-11.1 5.3-22.9 12.3-34 18.9-15.2 9-29.5 17.5-40.6 21-28.1 8.7-54.6 21.8-78.7 38.9-23.8 16.9-44.7 37.3-62.2 60.6C263.2 368.3 244 426 244 486.7c0 74.5 29.1 144.5 81.9 197.2 18.9 18.9 40 34.7 62.8 47.2 23.6 10 49.1 15.5 75.6 15.5 124.1 0 224.8-119.4 224.8-266.5z" fill="#FCFAF0" /><path d="M721.4 739.8l1.5-0.9c0.3-0.2 0.5-0.3 0.8-0.5 17.6-10.8 33.9-23.6 48.6-38.2 26.8-26.7 47.8-58.7 62.2-95.3 15.2-38.4 22.9-81.2 22.9-127.1 0-70.6-18.2-138.3-52.5-195.9-33.5-56.2-79.9-98.8-134.2-123.2-16.1-7.3-24.5-22.6-31.8-36.1-8.7-16-16.2-29.7-34-29.7-28.8 0-79 29.1-115.6 50.4-10.9 6.4-20.7 12-28.9 16.4 79.2 17.5 278.4 91.1 282.5 276.3 5.9 263.5-216.4 336.5-229.3 340.5 3.5 0.6 7.1 1.1 10.6 1.6 75.4 8.8 142.8-6.1 197.2-38.3z" fill="#763C1C" /><path d="M822.9 487.1c0-143-78.6-265.1-189.3-313.5-27.2-11.9-6.9-62.4-20.3-79.4-2.6-0.8-5.4-1.2-8.5-1.2-28.8 0-79 29.1-115.6 50.4-10.9 6.4-20.7 12-28.9 16.4 79.2 17.5 278.4 91.1 282.5 276.3 5.9 263.5-216.4 336.5-229.3 340.5 3.6 0.6 7.1 1.1 10.7 1.6 10.2 1.1 20.2 1.9 30.1 2.2C713.8 768 822.9 646.9 822.9 487.1z" fill="#995C42" /><path d="M437.5 934.5c-1.1 0-2.2-0.4-3-1.2-28.9-25.9-39.2-64.1-29.7-110.6 7-34.6 22.2-61.2 22.9-62.3 1.2-2.2 4-2.9 6.2-1.7s2.9 4 1.7 6.2c-0.2 0.3-15.2 26.6-21.9 59.8-8.8 43.7 0.2 77.9 26.9 101.8 1.9 1.7 2 4.5 0.4 6.4-1 1-2.2 1.6-3.5 1.6zM679.2 883.5c-30.3 0-49.1-7.6-56-22.5-15.7-33.8 37.5-91.6 39.7-94 1.7-1.8 4.6-1.9 6.4-0.2 1.8 1.7 1.9 4.6 0.2 6.4-14.3 15.4-49.1 60.5-38.2 84 6 12.9 25.4 18.6 57.5 17 2.5-0.1 4.6 1.8 4.7 4.3 0.1 2.5-1.8 4.6-4.3 4.7-3.4 0.2-6.8 0.3-10 0.3zM152.5 525.5h-2.6c-50.3-1.5-84.7-45.9-86.2-47.8-1.5-2-1.1-4.8 0.8-6.3 2-1.5 4.8-1.1 6.3 0.8 0.4 0.5 33.5 42.9 79.3 44.2 28.5 0.9 56.2-14.1 82.4-44.5 1.6-1.9 4.5-2.1 6.4-0.5 1.9 1.6 2.1 4.5 0.5 6.4-27.2 31.7-56.5 47.7-86.9 47.7zM867.3 561.2h-2.6c-50.3-1.5-84.7-45.9-86.2-47.8-1.5-2-1.1-4.8 0.8-6.3 2-1.5 4.8-1.1 6.3 0.8 0.4 0.5 33.5 42.9 79.3 44.2 28.5 0.8 56.2-14.1 82.4-44.4 1.6-1.9 4.5-2.1 6.4-0.5 1.9 1.6 2.1 4.5 0.5 6.4-27.2 31.6-56.5 47.6-86.9 47.6z"  /><path d="M433.4 521.7h-0.6c-20.1-0.3-36.3-17.4-35.9-38.1 0-2.5 2.1-4.5 4.5-4.5h0.1c2.5 0 4.5 2.1 4.5 4.6-0.2 15.7 11.9 28.7 27.1 28.9 7.3 0.1 14.2-2.7 19.5-8 5.3-5.3 8.3-12.4 8.4-20 0-2.5 2.1-4.5 4.6-4.5 2.5 0 4.5 2.1 4.5 4.6-0.1 10-4.1 19.3-11 26.3-7.1 7-16.1 10.7-25.7 10.7z" fill="#000333" /><path d="M362.241295 462.656993a14.800592 10.900436 0.963 1 0 0.366401-21.797792 14.800592 10.900436 0.963 1 0-0.366401 21.797792Z" fill="#DD2A00" /><path d="M512.568009 467.291863a14.800592 10.900436 0.963 1 0 0.366402-21.797793 14.800592 10.900436 0.963 1 0-0.366402 21.797793Z" fill="#DD2A00" /><path d="M421.9 396c-0.9 8.1-7.3 12.4-22.4 12.4-9.6 0-23.4-6.5-35.4-7.6-12.7-1.2-26.3 4.2-38.6 0.9-14-3.8-17.8-8.7-17-16.5 1.5-13.1 28.7-27.2 60-24.3s54.8 21.9 53.4 35.1z" fill="#FFFFFF" /><path d="M399.3 412.9c-5.7 0-12.1-1.8-18.8-3.8-5.7-1.6-11.6-3.3-16.9-3.8-5-0.5-10.2 0.2-15.8 0.9-7.7 1-15.7 2-23.5-0.1-10.9-2.9-21.8-7.7-20.3-21.3 1.8-15.7 30.5-31.5 64.9-28.3 21.1 2 41.3 11.4 51.5 23.9 4.4 5.4 6.4 11 5.9 16.1-1.8 16.3-20.7 16.4-27 16.4 0.1 0 0.1 0 0 0z m-39.2-16.8c1.5 0 2.9 0.1 4.4 0.2 6.1 0.6 12.4 2.4 18.5 4.1 6.1 1.8 12 3.4 16.3 3.4h0.1c17-0.1 17.7-5.7 18-8.4 0.3-2.6-1.1-5.9-3.9-9.4-7.2-8.8-24-18.6-45.4-20.6-13.5-1.3-27.7 0.8-38.9 5.7-9.3 4.1-15.6 9.8-16.1 14.5-0.4 3.4-0.9 7.7 13.6 11.6 6.1 1.6 12.9 0.8 20-0.1 4.4-0.4 8.9-1 13.4-1z"  /><path d="M577.3 410c-0.9 7.9-7.2 12.1-22 12.2-9.4 0-22.9-6.3-34.6-7.4-12.4-1.2-25.7 4.1-37.7 0.9-13.7-3.7-17.5-8.5-16.6-16.1 1.4-12.9 28.1-26.7 58.7-23.8 30.6 2.9 53.6 21.3 52.2 34.2z" fill="#FFFFFF" /><path d="M555.3 426.7c-5.5 0-11.8-1.8-18.4-3.7-5.6-1.6-11.3-3.3-16.5-3.7-4.9-0.5-10 0.2-15.4 0.9-7.5 1-15.4 2-23-0.1-10.7-2.9-21.4-7.6-19.9-21 1.9-17.2 32.8-30.7 63.6-27.8 20.7 2 40.5 11.2 50.5 23.4 4.3 5.3 6.3 10.8 5.8 15.8-2 16.1-20.5 16.2-26.7 16.2zM516.9 410c1.4 0 2.9 0.1 4.3 0.2 6 0.6 12.2 2.3 18.2 4.1 6 1.7 11.7 3.4 16 3.4 16.6-0.1 17.2-5.5 17.5-8.1 0.3-2.5-1.1-5.7-3.8-9.1-7-8.6-23.4-18.2-44.3-20.1-13.2-1.3-27.1 0.8-38 5.6-9 4-15.2 9.5-15.7 14.2-0.4 3.3-0.8 7.5 13.3 11.3 6 1.6 12.6 0.8 19.6-0.1 4-0.8 8.4-1.4 12.9-1.4z"  /><path d="M353.8 371.5a15.8 14.5 0 1 0 31.6 0 15.8 14.5 0 1 0-31.6 0Z"  /><path d="M514 387.6a14.7 13.5 0 1 0 29.4 0 14.7 13.5 0 1 0-29.4 0Z"  /></svg>