<?xml version="1.0" standalone="no"?><!DOCTYPE svg PUBLIC "-//W3C//DTD SVG 1.1//EN" "http://www.w3.org/Graphics/SVG/1.1/DTD/svg11.dtd"><svg class="icon" width="200px" height="200.00px" viewBox="0 0 1024 1024" version="1.1" xmlns="http://www.w3.org/2000/svg"><path d="M689.5 785.7H399.7c-25.5 0-48.6-14.8-59.3-37.9l-80.1-172.5h558.2l-84.4 181.9c-8 17.4-25.5 28.5-44.6 28.5z" fill="#F4BE8E" /><path d="M133.6 455.7c-22.3 0-42.3-5.1-53.6-8-3-0.8-6.3-1.6-7.4-1.7-2.2 0.3-4.3-1.1-4.9-3.2-0.7-2.4 0.7-4.9 3.1-5.6 2.1-0.6 4.5 0 11.5 1.8 25.2 6.5 92.3 23.6 128.7-30.4 1.4-2.1 4.2-2.6 6.3-1.2 2.1 1.4 2.6 4.2 1.2 6.3-17.1 25.4-42.4 39.5-75.1 41.8-3.4 0.1-6.6 0.2-9.8 0.2z m-60.4-9.9z"  /><path d="M870 381.5c-36.1-163.6-116.8-248.3-255.9-274.8-50.6-9.6-102.7-7.3-152.1 7.3-140.1 41.4-215 137.7-249.8 269.6-4.8 18-7.3 36.5-7.2 55.1 0.6 99.6 48.7 153.7 120.4 181.9l220.2 150.5 218.8-149.5c82.5-30.2 132.3-95.7 105.6-240.1z" fill="#FCEAD4" /><path d="M764.4 599.1l-217.7 134-221.2-135c-69.1-27.2-116.2-78.3-120.1-170.9-0.2 3.8-0.3 7.7-0.3 11.5 0.6 99.6 48.7 153.7 120.4 181.9l220.2 150.5 218.8-149.5C834.3 596 880.8 545.1 877 442.2c-3.4 87.9-48 133.3-112.6 156.9z" fill="#F4CBA2" /><path d="M545.6 776.5L323.3 624.6c-38.5-15.2-68.2-37.3-88.4-65.6-22.5-31.5-34.1-72-34.4-120.3 0-3.8 0.1-7.8 0.3-11.7l9 0.5c-0.2 3.8-0.3 7.6-0.3 11.2 0.5 88.7 39 146.8 117.6 177.8l0.5 0.2 0.4 0.3 217.6 148.7 216.7-148.1 0.5-0.2c36.9-13.5 63.7-32.8 81.8-59.1 20.5-29.7 29.7-67.7 27.9-116l9-0.3c1.8 50.3-7.8 90-29.5 121.4-19.1 27.7-47.1 48-85.6 62.2L545.6 776.5z"  /><path d="M201.6 431.8l334.7 312.7L202.4 404z" fill="#F4CBA2" opacity=".67" /><path d="M225.6 328.2L533 750.6 238.9 300zM268.1 242.8l273 515.9-243.1-549zM342.6 166.5l203.1 586.1-160.6-610zM434.5 120.1l111.2 632.5-59.2-646.3zM880.6 428.8L551 747.6 879.8 401zM858.3 325.1L551 747.6 845.1 297z" fill="#F4CBA2" opacity=".67" /><path d="M821.8 239l-279 516.7 248.4-550zM743.6 155.4L542.8 750.6l158.4-619.1z" fill="#F4CBA2" opacity=".67" /><path d="M623.9 114.3l-81.1 641.4 28.4-652z" fill="#F4CBA2" opacity=".67" /><path d="M691.2 790.2H396c-27.3 0-52.3-16-63.7-40.8L255.8 583c-17.6-16.6-31.1-36.7-40.2-59.5-9.8-24.5-14.9-53-15-84.8-0.1-18.6 2.4-37.5 7.3-56.3C246 237.8 328.7 148.6 460.7 109.7c49.5-14.6 102.9-17.2 154.2-7.4 71.5 13.6 126.8 42.2 169.1 87.3 42.5 45.4 72.1 107.9 90.4 190.9v0.2c19.9 107.6-0.6 180.3-62.8 222.3l-71.7 156c-8.7 19-27.8 31.2-48.7 31.2zM553 105.4c-30.4 0-60.8 4.3-89.8 12.9-128.7 38-209.4 125.1-246.7 266.4-4.8 18-7.1 36.2-7 54 0.2 30.6 5 58.1 14.4 81.5 8.8 21.9 21.8 41 38.7 56.9l0.6 0.6 77.2 168c9.9 21.6 31.7 35.6 55.5 35.6h295.2c17.4 0 33.2-10.2 40.5-26l72.8-158.4 1.1-0.7c28.6-19 47.5-44.1 57.9-76.8 11.5-36.1 12.2-82.2 2.1-137-18-81.4-46.8-142.4-88.2-186.6-40.9-43.7-94.6-71.4-164.2-84.6-19.8-3.9-40-5.8-60.1-5.8z"  /><path d="M952 475.3c-1.5 0-2.9-0.7-3.7-2-36.4-54.1-103.5-36.9-128.7-30.4-7 1.8-9.4 2.4-11.5 1.8-2.4-0.7-3.8-3.2-3.1-5.6 0.6-2.2 2.7-3.5 4.9-3.2 1.1-0.1 4.4-1 7.4-1.7 13-3.3 37.2-9.5 63.4-7.7 32.7 2.3 57.9 16.4 75 41.8 1.4 2.1 0.8 4.9-1.2 6.3-0.8 0.4-1.7 0.7-2.5 0.7zM810.6 436zM459.8 902c-1 0-2.1-0.3-2.9-1.1-26.2-22-39.4-45-39.3-68.3 0.2-30.4 23.1-49.6 24.1-50.4 1.9-1.6 4.8-1.3 6.3 0.6 1.6 1.9 1.3 4.8-0.6 6.3-0.2 0.2-20.7 17.5-20.8 43.6-0.1 20.5 12.1 41.1 36.1 61.3 1.9 1.6 2.1 4.4 0.5 6.4-0.8 1.1-2.1 1.6-3.4 1.6zM651.3 921c-1.2 0-2.4-0.5-3.3-1.4-22.5-24.2-33.3-51-32.1-79.8 2.3-56.6 49.3-100.3 51.3-102.1 1.8-1.7 4.7-1.6 6.4 0.3 1.7 1.8 1.6 4.7-0.3 6.4-0.5 0.4-46.3 43.1-48.4 95.9-1 26.3 9 51 29.7 73.3 1.7 1.8 1.6 4.7-0.2 6.4-0.9 0.6-2.1 1-3.1 1z"  /><path d="M437.2 439.3S430.8 536 516 536c62.2 0 73.2-63.1 73.2-91.9l-22.6 11.3-20.5-1-11.8-7.9-17.2-8.9-12 6.3-15.5 5-18.3 1.6-16.2-1.6-12-7.5-5.9-2.1z" fill="#DD2A00" /><path d="M515.6 506.4c-21 0-39.9 4.8-53.4 12.4 10.6 6.2 28.9 15 47.3 15.3 26.9 0.5 41.5-9.5 54.8-17.8-13.1-6.2-30.1-9.9-48.7-9.9z" fill="#FF6666" /><path d="M570.9 495.1c-1.4 2.1-1.5 2.8-4 3.3-1 0.2-2.3 1.2-2.9 2.2-0.4 0.6-0.8 1.2-1.3 1.7-1.5 1.8-3.6 3.1-5.9 3.8-1.3 0.4-2.9 0.9-4.5 1.5-3.7 1.4-7 5.6-8 8-1.1 2.4-1.5 7.8 1.1 9.3s15.3-9.6 17.8-11.5c2.5-2 6.6-10 7.3-12.6 0.8-2.6 5.4-12.7 5.3-13.1 0-0.2-3.9 5.8-4.9 7.4z" fill="#00FFFF" /><path d="M509.4 540.5c-29.1 0-51-16.7-63.3-48.3-9-23.2-9.7-46-9.7-47-0.1-2.5 1.9-4.6 4.4-4.6 2.5 0 4.6 1.9 4.6 4.4 0 0.2 0.7 22.4 9.2 44.1 11 28.1 29.4 42.4 54.8 42.4 27.2 0 46.9-9.8 58.4-29.2 9.8-16.5 11.8-36.7 11.8-50.7 0-2.5 2-4.5 4.5-4.5s4.5 2 4.5 4.5c0 15.2-2.3 37.1-13.1 55.3-13.1 22.3-35.4 33.6-66.1 33.6z"  /><path d="M467.1 450.5l8.4 29.3c0.6 2.2 2.3 3.9 4.4 4.7l16.4 5.8c4.1 1.4 8.5-1.2 9.3-5.5l4.3-25.9 5.9 28c0.7 3.5 4 5.9 7.5 5.5l20.3-1.9c3.3-0.3 5.9-2.9 6.3-6.2l3.8-32.8-26.1-3.2-17.2-10.8-19.3 10.1-24 2.9z" fill="#FFFFFF" /><path d="M559.3 455.2c-7.1 0-13.5-1.1-19.1-2.5-13.4-3.5-23.5-9.6-28.1-12.8-25.3 16.1-48.9 14.2-64.5 9.6-17.4-5.2-28.6-14.5-29-14.9-1.9-1.6-2.1-4.5-0.5-6.4 1.6-1.9 4.4-2.1 6.3-0.5 0.1 0.1 10.4 8.7 26.1 13.2 20.7 6 40.6 2.6 59.2-10.2 1.6-1.1 3.8-1 5.4 0.2 0.1 0.1 11.4 9 27.7 13.2 21.4 5.5 41.2 0.6 58.7-14.5 1.9-1.6 4.7-1.4 6.4 0.5 1.6 1.9 1.4 4.7-0.5 6.4-16.8 14.3-33.7 18.7-48.1 18.7zM400.8 362.7c-3.1 0-5.9-0.3-8.2-0.8-20.1-4.3-25.4-27.2-25.6-28.2-0.5-2.4 1-4.8 3.4-5.4 2.4-0.5 4.8 1 5.4 3.4 0 0.2 4.3 18.2 18.7 21.3 7 1.5 24.3 0.8 33.3-11.1 1.5-2 4.3-2.4 6.3-0.9s2.4 4.3 0.9 6.3c-8.7 11.7-23.3 15.4-34.2 15.4z"  /><path d="M354.2 354.9c-2.4 0-4.4-1.9-4.5-4.3-0.1-2.5 1.8-4.6 4.2-4.8l25.4-1.5c2.5-0.1 4.6 1.8 4.8 4.2 0.1 2.5-1.8 4.6-4.2 4.8l-25.4 1.5c-0.1 0.1-0.2 0.1-0.3 0.1z"  /><path d="M366.9 384.9c-0.8 0-1.6-0.2-2.3-0.7-2.1-1.3-2.8-4.1-1.5-6.2l16.7-27.6c1.3-2.1 4.1-2.8 6.2-1.5 2.1 1.3 2.8 4.1 1.5 6.2l-16.7 27.6c-0.8 1.4-2.3 2.2-3.9 2.2zM395.7 394.3c-2.5 0-4.5-2-4.5-4.5v-31.9c0-2.5 2-4.5 4.5-4.5s4.5 2 4.5 4.5v31.9c0.1 2.5-2 4.5-4.5 4.5zM421.7 384.9c-1.8 0-3.6-1.1-4.2-3l-8.2-22.5c-0.9-2.3 0.3-4.9 2.7-5.8 2.3-0.9 4.9 0.3 5.8 2.7l8.2 22.5c0.9 2.3-0.3 4.9-2.7 5.8-0.5 0.2-1.1 0.3-1.6 0.3zM443.5 371.1c-1 0-2-0.3-2.8-1l-17.6-13.8c-2-1.5-2.3-4.4-0.8-6.3 1.5-2 4.4-2.3 6.3-0.8l17.6 13.8c2 1.5 2.3 4.4 0.8 6.3-0.9 1.2-2.2 1.8-3.5 1.8zM375.3 310.7c-0.5 0-0.9-0.1-1.4-0.2-2.4-0.8-3.6-3.3-2.9-5.7 0.2-0.6 4.9-14.5 16.4-17.7 7-1.9 14.6 0.6 22.5 7.4 1.9 1.6 2.1 4.5 0.5 6.4-1.6 1.9-4.5 2.1-6.4 0.5-5.5-4.8-10.3-6.6-14.2-5.5-6.7 1.9-10.2 11.7-10.2 11.8-0.6 1.8-2.4 3-4.3 3z"  /><path d="M611.4 362.7c-10.9 0-25.5-3.7-34.2-15.2-1.5-2-1.1-4.8 0.9-6.3s4.8-1.1 6.3 0.9c9 11.8 26.4 12.6 33.3 11.1 14.4-3.1 18.6-21.1 18.7-21.3 0.5-2.4 3-4 5.4-3.4 2.4 0.5 4 2.9 3.4 5.4-0.2 1-5.5 23.8-25.6 28.2-2.4 0.3-5.1 0.6-8.2 0.6z"  /><path d="M658 354.9h-0.3l-25.4-1.5c-2.5-0.1-4.4-2.3-4.2-4.8 0.1-2.5 2.3-4.4 4.8-4.2l25.4 1.5c2.5 0.1 4.4 2.3 4.2 4.8-0.2 2.4-2.2 4.2-4.5 4.2z"  /><path d="M645.2 384.9c-1.5 0-3-0.8-3.9-2.2l-16.7-27.6c-1.3-2.1-0.6-4.9 1.5-6.2 2.1-1.3 4.9-0.6 6.2 1.5L649 378c1.3 2.1 0.6 4.9-1.5 6.2-0.7 0.5-1.5 0.7-2.3 0.7zM616.4 394.3c-2.5 0-4.5-2-4.5-4.5v-31.9c0-2.5 2-4.5 4.5-4.5s4.5 2 4.5 4.5v31.9c0 2.5-2 4.5-4.5 4.5zM590.5 384.9c-0.5 0-1-0.1-1.6-0.3-2.3-0.9-3.5-3.4-2.7-5.8l8.2-22.5c0.9-2.3 3.4-3.5 5.8-2.7 2.3 0.9 3.5 3.4 2.7 5.8l-8.2 22.5c-0.7 1.9-2.4 3-4.2 3zM568.7 371.1c-1.3 0-2.7-0.6-3.6-1.7-1.5-2-1.2-4.8 0.8-6.3l17.6-13.8c2-1.5 4.8-1.2 6.3 0.8s1.2 4.8-0.8 6.3l-17.6 13.8c-0.7 0.6-1.7 0.9-2.7 0.9zM627.3 308.9c-1.7 0-3.3-1-4.1-2.6-1.2-2.7-5.7-9.7-11.4-10.6-4-0.6-8.6 1.7-13.5 7.1-1.7 1.8-4.5 1.9-6.4 0.2-1.8-1.7-1.9-4.5-0.2-6.4 7.1-7.7 14.4-11 21.6-9.8 11.7 1.9 17.9 15.2 18.2 15.8 1 2.3 0 4.9-2.2 6-0.8 0.2-1.4 0.3-2 0.3z"  /><path d="M546.2 515.8s-8 25.5 0 29.2c8 3.7 14.8 3 13.3-5.2-1.6-8.2-13.8-18-13.3-24z" fill="#00FFFF" /></svg>