<?xml version="1.0" standalone="no"?><!DOCTYPE svg PUBLIC "-//W3C//DTD SVG 1.1//EN" "http://www.w3.org/Graphics/SVG/1.1/DTD/svg11.dtd"><svg class="icon" width="200px" height="200.00px" viewBox="0 0 1024 1024" version="1.1" xmlns="http://www.w3.org/2000/svg"><path d="M835.2 698.1c0 25.2-20.1 67.7-69.5 88.9-17.1 7.4-36.9 3-58 9.8-19.8 6.4-29.8 16.4-52.1 22.5-39 10.7-103.3 25.5-148.7 21.9-110.2-8.8-193-25.3-245.3-51.5-53.1-26.6-74.8-63-74.8-91.6 0-56.7 145.1-102.6 324.2-102.6s324.2 46 324.2 102.6z" fill="#EC8D4B" /><path d="M822.5 642.5c-1.8 36.7-53.6 85.9-146.4 85.9-48.8 0-100.5 33.3-161 33.3-34.5 0-67.6-1.8-98.6-5.2-35.2-3.9-68.9-25.3-98.2-28.1-78.3-7.5-119-53.5-119-85.9 0-56.7 139.5-112.1 311.5-112.1S826.2 569 822.5 642.5z" fill="#F4A05D" /><path d="M808.8 592.6c0.1 16.6-54.2 68.7-104.8 87-57 20.5-126 42.5-213.9 18.5-59.6-16.3-117.4-5.8-165.5-15.8-87.4-18.2-146.1-50.2-146.1-86.8 0-82 139.5-102.6 311.5-102.6s318.4 17.7 318.8 99.7z" fill="#F7B662" /><path d="M818.4 343.7c-11.1 32.8-78.6 50.5-149.3 42.2-45-5.2-73.4-27.5-120.1-49.9-37.2-17.9-92.1-22.7-123.8-38.5-21.5-10.7-39.6-48.4-56.3-59.7-48-32.5-75-39.6-65.2-68.5 1-2.9 2.3-5.7 4.1-8.5l0.6-0.9c28.1-43.2 142-71.4 255.4-51.4 3.7 0.6 72.1-16 91.7-6.6 19.6 9.4 44.7 65.7 47.5 67.8 70.5 54.2 120.5 121.9 117.3 163.6 0 0.4-0.1 0.7-0.1 1.1-0.2 3.3-0.8 6.4-1.8 9.3z" fill="#FFD199" /><path d="M703.6 392.7c-11.5 0-23.3-0.7-35.1-2.1-33.6-3.9-58.4-17.2-87-32.5-10.8-5.8-21.9-11.8-34.5-17.8-18.5-8.9-41.9-14.5-64.4-20-22.3-5.4-43.5-10.5-59.4-18.5-13.1-6.5-24.2-21.3-35-35.6-7.8-10.3-15.1-20-21.8-24.5-10.3-7-19.6-12.8-27.9-17.9-30-18.6-48-29.9-39.2-56.1 1.1-3.2 2.6-6.4 4.5-9.5 0.2-0.4 0.5-0.7 0.7-1.1 14.5-22.3 50.5-41 98.6-51.4 50.1-10.8 107.4-11.6 161.2-2.1 1.4-0.1 6.3-1 11-1.9 10.8-2 27-4.9 42.5-6.5 19.4-2 32.4-1.2 39.7 2.3 7.2 3.5 15.4 12.2 24.8 26.7 7.5 11.5 14.4 24.4 19 32.9 2.1 3.8 4.2 7.8 5 9 34.7 26.7 65.5 57.7 86.8 87.2 22.5 31.1 33.5 58.8 31.9 80.2 0 0.4-0.1 0.8-0.1 1.2-0.4 3.7-1.1 7.2-2.2 10.4-5.8 17.2-25.6 31.3-55.6 39.6-18.7 5.3-40.6 8-63.5 8z m-215.5-286c-28.6 0-56.8 2.8-82.9 8.5-45.8 9.9-79.6 27.1-92.7 47.3l-0.1 0.1c-0.2 0.2-0.3 0.5-0.5 0.7-1.5 2.5-2.8 5-3.6 7.5-6.2 18.2 3.6 25.3 35.2 44.9 8.3 5.2 17.7 11 28.2 18.1 8 5.4 15.8 15.7 24 26.6 10.1 13.4 20.6 27.2 31.7 32.8 15 7.5 35.6 12.5 57.4 17.8 23 5.6 46.8 11.3 66.3 20.7 12.8 6.1 24 12.2 34.9 18 28.9 15.5 51.8 27.7 83.7 31.5 11.5 1.3 22.9 2 33.9 2 55.5 0 102-16.3 110.3-41 0.9-2.5 1.4-5.3 1.7-8.2 0-0.3 0.1-0.6 0.1-0.9v-0.2c1.4-18.8-9.3-45.1-30.1-73.9-20.9-28.9-51.2-59.3-85.3-85.5-1.4-1.1-2.3-2.6-7.2-11.8-7.8-14.7-26.2-49.1-39.5-55.5-13.5-6.5-57.6 1.6-76.4 5-10.6 1.9-12.4 2.2-14 1.9-24.8-4.3-50.1-6.4-75.1-6.4z"  /><path d="M808.8 530.4c0 28.4-34.9 56.4-91.4 77.4-18.1 6.7-64.6 8.5-86.8 13.5-46.6 10.6-75 21.2-133.3 21.2-38.1 0-105.6-7.7-139.3-11.8-18.8-2.3-53-10.2-69.1-16.4-17.4-6.8-35-21.9-55.5-35.3-33.3-21.8-47.6-21.1-47.6-48.6 0-56.7 139.5-115.7 311.5-115.7s311.5 59 311.5 115.7z" fill="#FFCB81" /><path d="M506.9 846c-30.6 0-80.4-5.2-107.5-13.5-16.5-5.1-33.9-8.2-50.8-11.2-15.9-2.8-30.9-5.5-44.3-9.6-40.5-12.4-72.1-30-93.7-52.2-18.4-18.9-28.5-40.7-28.5-61.3 0-12.4 6-24.4 17.8-35.7-3.4-6.5-5.2-13.2-5.2-19.9 0-2.4 0.2-4.8 0.7-7.2-14.3-12.5-21.5-25.9-21.5-39.8 0-10.6 4.7-30.4 14.9-42.7-4.4-7.3-6.6-14.9-6.6-22.5 0-29.9 34.2-60.3 93.8-83.5 61.2-23.8 139.8-36.9 221.5-36.9 81.8 0 160.8 13.1 222.5 36.9 60.3 23.2 94.8 53.7 94.8 83.6 0 1.8 0.1 3.6 0.1 5.2 0.3 8 0.6 15.6-7.1 24.4 4.8 10.7 5.9 30.3 5.9 35.5 0 0.8 0 1.2 0.1 1.6 0.1 0.7 0.1 1.2 0.1 1.9 13.5 12.8 13.5 30 13.5 42.7v0.8c0 6.7-1.7 13.4-5.2 19.9 11.8 11.3 17.8 23.3 17.8 35.7 0 28.5-24.8 69.7-72.1 93.2-9.9 4.9-22.2 5.9-35.2 7.1-10.4 0.9-21.1 1.8-30.3 4.8-8.9 2.9-17.8 7.3-27.2 12-14.1 7-28.6 14.3-45 17.3-30.8 5.8-77 13.4-123.3 13.4z m-9.6-426.6c-80.5 0-157.9 12.9-218 36.3-54.9 21.4-87.7 49.3-87.7 74.7 0 6.8 2.4 13.6 7 20.3 1.3 1.9 1.1 4.5-0.6 6.1-9.4 9.3-14.7 28.8-14.7 38.8 0 11.6 6.8 23.2 20.3 34.3 1.4 1.2 2 3.1 1.6 4.9-0.7 2.5-1 5.1-1 7.7 0 6.1 1.9 12.3 5.7 18.3 1.2 2 0.9 4.6-0.9 6.1-11.6 10.2-17.5 20.7-17.5 31.2 0 18.1 9.2 37.5 25.8 54.6 20.2 20.8 51.2 38 89.7 49.8 12.9 4 27.6 6.6 43.2 9.3 17.2 3.1 34.9 6.2 51.9 11.5 26.2 8.1 74.8 13.1 104.7 13.1 45.5 0 91.2-7.5 121.5-13.2 15-2.8 29-9.8 42.5-16.5 9.7-4.9 18.9-9.4 28.5-12.6 10.2-3.4 21.5-4.3 32.4-5.3 12.1-1 23.5-2 31.8-6.1 49-24.3 66.8-63.9 66.8-84.7 0-10.5-5.9-21-17.5-31.2-1.8-1.5-2.1-4.1-0.9-6.1 3.8-6 5.7-12.2 5.7-18.3v-0.8c0-12.7 0-27.1-12.2-37.2-1.4-1.2-2-3.1-1.6-4.9 0.2-0.7 0.2-1 0.3-1.1v-0.2c-0.1-0.5-0.2-1.3-0.2-2.7 0-8.9-2-27.7-6.1-33.5-1.3-1.9-1.1-4.5 0.6-6.1 7.2-7 7-11.6 6.7-19.9-0.1-1.8-0.1-3.6-0.1-5.6 0.1-51.3-134.4-111-307.7-111z"  /><path d="M732 306.7c-8.9 0-19.5-0.7-32.1-2.2-43.5-5.4-95.6-20.3-142.9-41-47.5-20.7-90.4-47-120.9-74-13.9-12.3-45.3-43.2-36.5-63.2 1.1-2.4 3.9-3.5 6.3-2.5 2.4 1.1 3.5 3.9 2.5 6.3-3.2 7.3 3.8 25.4 34.1 52.3 29.8 26.4 71.8 52.1 118.4 72.4 46.5 20.3 97.7 34.9 140.3 40.2 42.3 5.3 64.6-0.1 67.9-7.8 4.2-9.6-14-28.6-32.5-43.2-26-20.5-64-43.1-107.3-63.5-16-7.6-44.5-19.3-59.9-24-44.5-13.6-71-16-77.4-12.4-0.2 0.1-0.7 0.4-0.7 0.6-2.4 9.5 3.1 36 105 78.4 46.9 19.5 55.7 14.2 56.5 13.5 0.2-0.1 0.4-0.3 0.2-1.3-0.9-5.5-10.6-15.3-20.6-19-2.5-0.9-3.8-3.6-2.9-6.1 0.9-2.5 3.6-3.8 6.1-2.9 12.7 4.6 25.2 16.9 26.8 26.4 0.7 4.2-0.6 7.8-3.7 10.3-8.5 6.7-30.1 2.7-66.1-12.2-42.2-17.5-72.8-34.5-91-50.4-16-14-22.6-27.1-19.6-39.2 0.5-1.9 1.8-4.6 5.3-6.6 6.2-3.5 18.2-3.6 36.7-0.4 13.5 2.4 30.6 6.6 48.2 12 15.7 4.8 44.9 16.7 61.2 24.4 43.9 20.7 82.6 43.7 109.1 64.6 29.1 23 41 41.3 35.3 54.4-2.8 6.9-12.7 16.1-45.8 16.1z" fill="#F7B662" /><path d="M362.2 896.4c-14.8 0-23.8-7.5-25.9-10.4-1.6-2.1-1.1-5.1 1-6.7 2.1-1.6 5.1-1.1 6.7 1 1.2 1.5 8.5 7.3 20.8 6.4 2-0.2 3.6-1.1 5.1-2.9 9-11.3 6-46.9 4.1-59.7-0.4-2.6 1.4-5 4-5.4 2.6-0.4 5 1.4 5.4 4 0.8 5.1 7.2 50.5-6 67-3.1 3.9-7.2 6.1-11.8 6.5-1.2 0.1-2.3 0.2-3.4 0.2zM637.4 896.2c-12.8 0-21.1-6-23.2-8.4-1.7-2-1.5-5 0.5-6.7 2-1.7 5-1.5 6.7 0.5 1.3 1.4 9.1 6.6 21.3 4.7 1.9-0.3 3.4-1.3 4.6-3.2 7.8-11.9 0.9-47.2-2.4-59.8-0.7-2.5 0.8-5.1 3.4-5.8s5.1 0.8 5.8 3.4c1.3 5 12.7 49.8 1.2 67.4-2.7 4.1-6.5 6.7-11.1 7.4-2.5 0.3-4.7 0.5-6.8 0.5zM153.2 788c-1.9 0-3.7-1.1-4.4-3-1-2.4 0.2-5.2 2.7-6.2l31.6-12.6 33-95.1c0.9-2.5 3.6-3.8 6.1-2.9 2.5 0.9 3.8 3.6 2.9 6.1l-33.7 97.1c-0.5 1.3-1.4 2.3-2.7 2.9L155 787.6c-0.6 0.3-1.2 0.4-1.8 0.4z"  /><path d="M174.6 804.9c-0.6 0-1.2-0.1-1.8-0.3-2.4-1-3.6-3.8-2.6-6.2l12.2-30.3c0.7-1.9 2.6-3 4.6-3 2 0.1 3.7 1.4 4.4 3.2l8.7 25.8c0.8 2.5-0.5 5.2-3 6-2.5 0.8-5.2-0.5-6-3l-4.6-13.6-7.4 18.3c-0.8 1.9-2.6 3.1-4.5 3.1zM801.6 647.3c-0.8 0-1.6-0.2-2.3-0.6-2.3-1.3-3.2-4.2-1.9-6.5 15.9-29.2 24.8-61.9 26.5-97.3 1.3-28.4-2.1-58.6-10.1-89.7-13.6-53.2-36.2-91.1-36.4-91.5-0.6-1-0.8-2.1-0.6-3.2l3.7-22.2c0.4-2.6 2.9-4.4 5.5-3.9 2.6 0.4 4.3 2.9 3.9 5.5l-3.4 20.5c4.5 7.8 23.9 43.2 36.5 92.2 8.2 32.1 11.7 63.2 10.4 92.6-1.7 36.9-10.9 71.1-27.6 101.6-0.8 1.6-2.5 2.5-4.2 2.5z"  /><path d="M757.5 369.9c-2.1 0-4.1-1.5-4.6-3.6-0.6-2.6 0.9-5.1 3.5-5.8l16.5-4-8.8-10.4c-1.7-2-1.4-5 0.6-6.7 2-1.7 5-1.4 6.7 0.6l13.7 16.2c1.1 1.3 1.4 3 0.9 4.5-0.5 1.6-1.8 2.8-3.4 3.2l-24 5.9c-0.3 0-0.7 0.1-1.1 0.1z"  /><path d="M707.7 570.2c-1.1 0-2.3-0.4-3.2-1.2l-36.4-32.9H303.7c-2.6 0-4.8-2.1-4.8-4.8 0-2.6 2.1-4.8 4.8-4.8h366.2c1.2 0 2.3 0.4 3.2 1.2l37.7 34.1c2 1.8 2.1 4.8 0.3 6.7-0.8 1.2-2.1 1.7-3.4 1.7z"  /><path d="M314.2 531.3l35.9 52.4h76.1l22.7-52.4z"  /><path d="M426.2 588.4h-76.1c-1.6 0-3-0.8-3.9-2.1L310.3 534c-1-1.5-1.1-3.3-0.3-4.9 0.8-1.6 2.4-2.5 4.2-2.5h134.7c1.6 0 3.1 0.8 4 2.2 0.9 1.3 1 3 0.4 4.5l-22.7 52.3c-0.8 1.7-2.5 2.8-4.4 2.8z m-73.6-9.5h70.5l18.6-42.8H323.2l29.4 42.8zM476.2 531.3l35.8 52.4h76.1l22.8-52.4z"  /><path d="M588.1 588.4H512c-1.6 0-3-0.8-3.9-2.1L472.2 534c-1-1.5-1.1-3.3-0.3-4.9 0.8-1.6 2.4-2.5 4.2-2.5h134.7c1.6 0 3.1 0.8 4 2.2 0.9 1.3 1 3 0.4 4.5l-22.7 52.3c-0.7 1.7-2.5 2.8-4.4 2.8z m-73.6-9.5H585l18.6-42.8H485.2l29.3 42.8z"  /><path d="M413.3 576.8c-0.6 0-1.2-0.1-1.9-0.4-2.4-1-3.6-3.8-2.5-6.2l12.2-29c1-2.4 3.8-3.6 6.2-2.5 2.4 1 3.6 3.8 2.5 6.2l-12.2 29c-0.7 1.8-2.5 2.9-4.3 2.9zM400.8 566.6c-0.6 0-1.2-0.1-1.9-0.4-2.4-1-3.6-3.8-2.5-6.2l8-18.8c1-2.4 3.8-3.6 6.2-2.5 2.4 1 3.6 3.8 2.5 6.2l-8 18.8c-0.7 1.8-2.5 2.9-4.3 2.9zM576.4 576.8c-0.6 0-1.2-0.1-1.9-0.4-2.4-1-3.6-3.8-2.5-6.2l12.2-29c1-2.4 3.8-3.6 6.2-2.5 2.4 1 3.6 3.8 2.5 6.2l-12.2 29c-0.7 1.8-2.5 2.9-4.3 2.9zM563.9 566.6c-0.6 0-1.2-0.1-1.9-0.4-2.4-1-3.6-3.8-2.5-6.2l7.9-18.8c1-2.4 3.8-3.6 6.2-2.5 2.4 1 3.6 3.8 2.5 6.2l-7.9 18.8c-0.7 1.8-2.5 2.9-4.3 2.9z" fill="#FFFFFF" /><path d="M465.7 713.5c-9.7 0-17-2.2-17.6-2.3-2.5-0.8-3.9-3.4-3.2-5.9 0.8-2.5 3.4-3.9 5.9-3.2 0.2 0.1 20.2 5.9 36-3.2 9-5.2 15.1-14.4 18.1-27.3 0.6-2.6 3.2-4.2 5.7-3.5 2.6 0.6 4.1 3.2 3.5 5.7-3.7 15.6-11.3 26.8-22.7 33.4-8.5 4.9-17.9 6.3-25.7 6.3z"  /><path d="M334.2 477.9s4.6 38.4-30.4 39c0 0 33.8-0.2 35 38.6 0 0-2.6-38.8 29.9-40.5-0.1 0-36.2-1.6-34.5-37.1z" fill="#FFFF00" /><path d="M354.6 480.7s64.6 12.6 63.2 22.9M417.8 508.4h-0.6c-2.3-0.3-4-2.2-4.1-4.5-1-1.1-6.1-5.3-30.6-11.8-14.6-3.9-28.6-6.6-28.8-6.7-2.6-0.5-4.3-3-3.8-5.6s3-4.3 5.6-3.8c0.2 0 16.5 3.2 32.5 7.7 25.9 7.2 35.6 13 34.5 20.6-0.3 2.4-2.3 4.1-4.7 4.1z m-4.6-4.3z m-0.1-1.1z"  /><path d="M504.5 492.8s25-21.1 59.4-29.8M504.5 497.5c-1.4 0-2.7-0.6-3.6-1.7-1.7-2-1.4-5 0.6-6.7 1.1-0.9 26.3-21.9 61.3-30.8 2.5-0.6 5.1 0.9 5.8 3.4 0.6 2.5-0.9 5.1-3.4 5.8-32.9 8.3-57.2 28.6-57.5 28.8-1 0.9-2.1 1.2-3.2 1.2z"  /></svg>