<?xml version="1.0" standalone="no"?><!DOCTYPE svg PUBLIC "-//W3C//DTD SVG 1.1//EN" "http://www.w3.org/Graphics/SVG/1.1/DTD/svg11.dtd"><svg t="1564742594252" class="icon" viewBox="0 0 1498 1024" version="1.1" xmlns="http://www.w3.org/2000/svg" p-id="1554" xmlns:xlink="http://www.w3.org/1999/xlink" width="292.578125" height="200"><defs><style type="text/css"></style></defs><path d="M1498.273684 837.784392c0 101.842468-84.744828 185.100544-188.445735 185.100544H288.801452C185.100544 1022.884936 100.355717 939.62686 100.355717 837.784392V274.305626C100.355717 172.463158 185.100544 89.205082 288.801452 89.205082h1021.026497c103.700907 0 188.445735 83.258076 188.445735 185.100544z" fill="#FEE89C" p-id="1555"></path><path d="M1228.056624 970.848639H207.030127C92.92196 970.848639 0 879.41343 0 767.163702V203.684936C0 91.435209 92.92196 0 207.030127 0h1021.026497c114.108167 0 207.030127 91.435209 207.030127 203.684936v563.478766c0 112.249728-92.92196 203.684936-207.030127 203.684937zM207.030127 37.168784C113.364791 37.168784 37.168784 111.87804 37.168784 203.684936v563.478766c0 91.806897 76.196007 166.516152 169.861343 166.516153h1021.026497c93.665336 0 169.861343-74.709256 169.861343-166.516153V203.684936c0-91.806897-76.196007-166.516152-169.861343-166.516152z" fill="#5B2D61" p-id="1556"></path><path d="M205.915064 218.55245h732.410889v533.836661H205.915064z" fill="#FFD7E9" p-id="1557"></path><path d="M936.467514 770.880581H204.056624a18.584392 18.584392 0 0 1-18.584392-18.584392V218.55245a18.584392 18.584392 0 0 1 18.584392-18.584392h732.41089a18.584392 18.584392 0 0 1 18.584392 18.584392v533.743739a18.584392 18.584392 0 0 1-18.584392 18.584392z m-713.826498-37.168784h695.242106V237.136842H222.641016z" fill="#5B2D61" p-id="1558"></path><path d="M1270.05735 611.240653c0 50.363702-41.629038 91.249365-92.92196 91.249365s-92.736116-40.885662-92.736116-91.249365 41.443194-91.249365 92.736116-91.249364 92.92196 40.885662 92.92196 91.249364zM1270.05735 297.164428c0 50.363702-41.629038 91.249365-92.92196 91.249365s-92.736116-40.885662-92.736116-91.249365 41.443194-91.249365 92.736116-91.249364 92.92196 40.885662 92.92196 91.249364z" fill="#838BC5" p-id="1559"></path><path d="M1177.13539 406.998185c-61.514338 0-111.320508-49.248639-111.320508-109.833757s49.806171-109.833757 111.320508-109.833756 111.506352 49.248639 111.506352 109.833756-49.992015 109.833757-111.506352 109.833757z m0-182.498729c-40.885662 0-74.151724 32.522686-74.151724 72.664972s33.266062 72.664973 74.151724 72.664973 74.337568-32.70853 74.337568-72.664973-33.451906-72.664973-74.337568-72.664972zM1177.13539 721.07441c-61.514338 0-111.320508-49.248639-111.320508-109.833757s49.806171-109.833757 111.320508-109.833756 111.506352 49.248639 111.506352 109.833756-49.992015 109.833757-111.506352 109.833757z m0-182.498729c-40.885662 0-74.151724 32.522686-74.151724 72.664972s33.266062 72.664973 74.151724 72.664973 74.337568-32.522686 74.337568-72.664973-33.451906-72.664973-74.337568-72.664972zM295.120145 1024a18.584392 18.584392 0 0 1-18.584392-18.584392v-40.142287a18.584392 18.584392 0 0 1 37.168784 0V1005.415608a18.584392 18.584392 0 0 1-18.584392 18.584392zM1139.780762 1024a18.584392 18.584392 0 0 1-18.584392-18.584392v-40.142287a18.584392 18.584392 0 0 1 37.168784 0V1005.415608a18.584392 18.584392 0 0 1-18.584392 18.584392zM709.711913 472.692152l27.359942-25.159549 153.720798 167.168464L863.430853 639.860617zM658.861299 617.025975l27.359942-25.15955 110.761118 120.452878-27.359942 25.157692z" fill="#5B2D61" p-id="1560"></path><path d="M583.735753 272.818875l6.690381 93.479492 81.399637 48.133575-87.532486 34.752813-20.256987 91.435209-60.770962-72.107441-94.037024 8.362976 49.992015-79.16951-37.726316-86.231579 91.621053 23.044646 70.620689-61.700181z" fill="#BEE9F4" p-id="1561"></path><path d="M569.054083 561.062795l-69.877313-82.886388-107.789474 9.663883 57.425771-91.06352-43.301633-99.05481 105.187659 26.575681 81.027949-70.806534 7.6196 107.417786 93.479492 55.195644-100.355717 39.956443z m-61.886025-102.214156l51.850454 61.514337 17.283484-78.054446 74.523412-29.549183-69.319782-40.885663-5.575317-79.727042-60.399275 52.59383-77.868602-19.699456 31.965154 73.408349-42.372414 67.461343z" fill="#5B2D61" p-id="1562"></path></svg>