<?xml version="1.0" standalone="no"?><!DOCTYPE svg PUBLIC "-//W3C//DTD SVG 1.1//EN" "http://www.w3.org/Graphics/SVG/1.1/DTD/svg11.dtd"><svg class="icon" width="200px" height="200.00px" viewBox="0 0 1024 1024" version="1.1" xmlns="http://www.w3.org/2000/svg"><path d="M684.9 163.2l-2.3-1.8c8-21.6 1.7-46.8-17.3-61.9-23.7-18.8-58.1-14.8-76.9 8.9s-14.8 58.1 8.9 76.9c2.4 1.9 4.9 3.6 7.6 5L513.2 306l69.7 55.2 91.7-115.7c2 2.2 4.2 4.3 6.6 6.2 23.7 18.8 58.1 14.8 76.9-8.9s14.8-58.1-8.9-76.9c-19.1-15.1-45.1-15.4-64.3-2.7z" fill="#EDC9AE" /><path d="M583.6 366.9l-76.1-60.2 91.3-115.3c-1.4-0.9-2.8-1.9-4-2.9-12.3-9.7-20.1-23.7-21.9-39.3-1.8-15.6 2.6-31 12.3-43.3 20.1-25.4 57.2-29.7 82.6-9.6 18.3 14.5 26.1 38 20.6 60.2 20.3-10.5 45-8.2 63.3 6.2 12.3 9.7 20.1 23.7 21.9 39.3 1.8 15.6-2.6 31-12.3 43.3a58.86 58.86 0 0 1-46.1 22.3c-12.8 0-25.7-4.1-36.4-12.7-1.3-1-2.6-2.1-3.8-3.3l-91.4 115.3z m-64.7-61.5l63.3 50.2 92.1-116.3 3.2 3.6c1.9 2.1 4 4 6.1 5.8 10.6 8.4 23.8 12.2 37.3 10.6 13.4-1.6 25.5-8.3 33.9-18.9s12.2-23.8 10.6-37.3c-1.6-13.4-8.3-25.5-18.9-33.9-17.2-13.7-41.1-14.7-59.4-2.5l-2.5 1.6-7-5.5 1-2.8c7.6-20.6 1.2-43.6-16.1-57.3-21.9-17.3-53.8-13.6-71.1 8.3-8.4 10.6-12.2 23.8-10.6 37.3 1.6 13.4 8.3 25.5 18.9 33.9 2.2 1.7 4.5 3.3 7 4.7l4.2 2.3-92 116.2z"  /><path d="M522.5 301.3l54.8 43.4L669 229c2 2.2 4.2 4.3 6.6 6.2 23.7 18.8 58.1 14.8 76.9-8.9 8.5-10.7 11-21.2 10.4-33.8-3-8.9-8.5-17-16.4-23.2a50.165 50.165 0 0 0-59.1-2.5c-1.6 1-3.6 1-5.1-0.2l-2.3-1.8c-1.5-1.2-2-3.1-1.4-4.9 0.3-0.9 0.6-1.7 0.9-2.6l-0.3-0.2c0.6-1.7 1.2-3.5 1.6-5.3 3.5-18.2-3.3-37.1-18.2-48.9-21.8-17.2-53.5-13.6-70.8 8.2-17.2 21.8-13.6 53.5 8.2 70.8 2.1 1.7 4.5 3.3 7 4.6 1.1 0.6 1.9 1.7 2.2 2.9 0.3 1.3-0.1 2.5-0.9 3.5l-85.8 108.4z" fill="#FFE1C7" /><path d="M667.6 349.4c-10.3-86.9-89.9-149.7-176.8-139.3-39.7 4.7-74.1 23.6-99 50.9-11.4 12.5-26 21.8-42.3 26.1C234.3 316.9 157 428.8 173.3 549.7 190.9 679.9 311.8 771.8 442 754c130.3-17.8 221.6-137.7 204-268.1v-0.3c-2.3-16.8 0.2-33.9 7.4-49.2 12.5-26.2 17.9-56.1 14.2-87z" fill="#FDB10D" /><path d="M409.4 760.3c-52.6 0-103.6-17.2-146.4-49.7-51.7-39.4-85-96.3-93.6-160.4C153 428.7 230 313.8 348.6 283.1c15.2-3.9 29.1-12.5 40.3-24.9 26.4-29 62.5-47.6 101.5-52.2 43.1-5.1 85.8 7 120.1 34 34.3 27.1 56.1 65.7 61.2 108.8 3.6 30.6-1.4 61.5-14.6 89.3-6.8 14.4-9.3 30.6-7.1 46.9v0.3c8.6 64.1-8.2 127.8-47.4 179.2-39.2 51.5-96 84.6-160.1 93.4-11 1.6-22.1 2.4-33.1 2.4zM509.7 213c-6.1 0-12.2 0.4-18.4 1.1-37.1 4.4-71.4 22-96.5 49.6-12.3 13.5-27.6 22.9-44.3 27.3-114.6 29.7-189 140.7-173.1 258.2 8.4 61.9 40.5 117 90.5 155s111.6 54.3 173.5 45.9c61.9-8.5 116.9-40.5 154.8-90.3C634 610 650.3 548.4 642 486.5v-0.3c-2.4-17.9 0.3-35.7 7.8-51.5 12.6-26.4 17.4-55.7 13.9-84.8-4.9-41-25.5-77.7-58.2-103.4-27.8-21.9-61.2-33.5-95.8-33.5z"  /><path d="M617.9 469.1v-0.3c-2.3-16.8 0.2-33.9 7.4-49.2 12.5-26.2 17.9-56.2 14.3-87.1-5.6-47-28.6-80.4-64.9-105.5-23.4-9.1-52.1-19.3-78.7-16.2-39.7 4.7-74.1 23.6-99 50.9-11.4 12.5-26 21.8-42.3 26.1-115.2 29.9-192.5 141.8-176.2 262.6 9.8 72.3 53.9 133.2 111.3 169.6 38.6 16.7 79.5 23.2 124.1 17.1 130.3-17.7 221.6-137.6 204-268z" fill="#FFCA52" /><path d="M502.5 904.8c-2.1 0-3.9-1.7-4-3.8-0.1-2.2 1.6-4.2 3.8-4.3 9.9-0.6 35.7-5 36.5-18.6 0.5-8.2-15.7-20.4-31.3-32.1-16.6-12.4-35.3-26.6-43.3-42-16.1-31-11.6-61.9-11.4-63.2 0.3-2.2 2.4-3.7 4.6-3.4 2.2 0.3 3.7 2.4 3.4 4.6 0 0.3-4.3 29.6 10.6 58.2 7.2 13.8 25.1 27.3 41 39.2 18.9 14.2 35.2 26.5 34.5 39-1.3 23.5-42.4 26.1-44.1 26.2-0.2 0.2-0.2 0.2-0.3 0.2zM291.9 886.9h-3.3c-13.4-0.3-25.7-2.2-26.2-2.3-2.2-0.3-3.7-2.4-3.4-4.6 0.3-2.2 2.4-3.7 4.6-3.4 18.8 3 48.7 3.9 53-3.5 1.7-3-1.9-8.3-4.2-11.2-12.3-15.5-16.7-31.7-13-48.2 3.9-17.2 16.3-34.1 36.9-50.2 15.1-11.8 29-18.7 29.6-19 2-1 4.4-0.2 5.4 1.9 1 2 0.2 4.4-1.9 5.4-0.5 0.3-53.9 26.9-62.2 63.6-3.1 13.9 0.7 27.8 11.4 41.3 6.4 8 8 14.9 4.9 20.3-3.7 6.7-14.1 9.9-31.6 9.9zM227.8 656.1c-9.1 0-19.5-0.3-31.1-1-30.2-1.9-66.4-7-73.8-12.6-1.1-0.8-2.4-2.4-2.8-5.1-0.7-5 1.4-16 27-53.7 13.8-20.2 28-38.7 28.1-38.9 1.4-1.8 3.9-2.1 5.7-0.7s2.1 3.9 0.7 5.7c-0.1 0.2-14.8 19.3-28.7 39.8-24.6 36.4-25.1 45.1-24.8 46.6 11 6.9 121.6 20.4 159.2 3.8 2.1-0.9 4.4 0 5.3 2.1s0 4.4-2.1 5.3c-7.9 3.6-25.9 8.7-62.7 8.7z m-99.6-19.7zM578.5 675.1c-24.2 0-43.5-2.7-54.3-7.7-2-1-2.9-3.4-1.9-5.4 1-2 3.4-2.9 5.4-1.9 14 6.6 45.1 8.7 83.2 5.6 35.1-2.9 67.5-9.6 80.6-16.7 4.5-2.5 4.9-4 4.9-4-0.3-2.4-5-13.5-53.5-55.4-26.4-22.8-52.8-43.5-53.1-43.7-1.8-1.4-2.1-3.9-0.7-5.7 1.4-1.8 3.9-2.1 5.7-0.7 0.3 0.2 26.8 21 53.4 43.9 49 42.3 55.6 54.9 56.3 60.7 0.4 3.6-1.5 6.9-5.6 9.9-14 10.1-53.5 16.8-83.1 19.5-13.3 1-25.9 1.6-37.3 1.6z"  /><path d="M510.8 540.5c-3.8 21.8-20.1 36-39.1 32.7-19-3.4-29.5-22.3-25.6-44.1 3.8-21.8 20-35.5 39-32.1 22.9 4 29.5 21.7 25.7 43.5zM331.3 508.9c-3.8 21.8-19.3 36.1-37.3 33-18-3.2-27.6-21.9-23.8-43.7 3.8-21.8 19.2-35.6 37.2-32.4 21.7 3.7 27.7 21.3 23.9 43.1z" fill="#FF6666" opacity=".8" /><path d="M308 471.4c0-0.1 0.1-0.2 0.1-0.3 0.8-2.7 10.8-35.4 30.7-32.9 20.8 2.6 28.7 5.4 31 28.7 2.3 23.3-12 43.9-24.6 43-14.6-1-35.5-2.7-38.9-21.2-1.5-8.3 1.3-16.1 1.7-17.3z"  /><path d="M333.209931 480.64623a15.3 16.3 9.985 1 0 5.652526-32.106214 15.3 16.3 9.985 1 0-5.652526 32.106214Z" fill="#FFFFFF" /><path d="M347.368469 497.599066a7.3 8.9 9.985 1 0 3.086348-17.530387 7.3 8.9 9.985 1 0-3.086348 17.530387Z" fill="#FFFFFF" /><path d="M330.3 488.6m-4.5 0a4.5 4.5 0 1 0 9 0 4.5 4.5 0 1 0-9 0Z" fill="#FFFFFF" /><path d="M334.5 447.3c-1.9 0-3.6-1.4-4-3.3l-2.4-12.4c-0.4-2.2 1-4.3 3.2-4.7 2.2-0.4 4.3 1 4.7 3.2l2.4 12.4c0.4 2.2-1 4.3-3.2 4.7-0.2 0.1-0.4 0.1-0.7 0.1zM342.9 446.8h-0.5c-2.2-0.3-3.8-2.3-3.5-4.6l1.7-12.5c0.3-2.2 2.3-3.8 4.6-3.5 2.2 0.3 3.8 2.3 3.5 4.6l-1.7 12.5c-0.3 2-2.1 3.5-4.1 3.5z"  /><path d="M349.1 449.8c-0.7 0-1.4-0.2-2.1-0.6-1.9-1.1-2.6-3.6-1.4-5.6l6.5-10.8c1.1-1.9 3.6-2.6 5.6-1.4 1.9 1.1 2.6 3.6 1.4 5.6l-6.5 10.8c-0.8 1.3-2.2 2-3.5 2zM380.5 437.9h-0.3c-0.5 0-12.9-1-20.6-18.1-0.9-2 0-4.4 2-5.4 2-0.9 4.4 0 5.4 2 5.6 12.5 13.6 13.3 13.7 13.3 2.2 0.1 3.9 2.1 3.8 4.3-0.1 2.2-1.9 3.9-4 3.9z"  /><path d="M489.4 503.4v-0.4c0.2-2.8 1.9-37-17.7-41.4-20.4-4.6-28.9-4.7-39 16.4-10.1 21.2-3.7 45.3 8.5 48.8 14.1 4 34.3 9.6 43.8-6.7 4.3-7.2 4.4-15.5 4.4-16.7z"  /><path d="M462.557627 503.433056a15.3 16.3 9.985 1 0 5.652525-32.106214 15.3 16.3 9.985 1 0-5.652525 32.106214Z" fill="#FFFFFF" /><path d="M443.363826 514.489534a7.3 8.9 9.985 1 0 3.086348-17.530387 7.3 8.9 9.985 1 0-3.086348 17.530387Z" fill="#FFFFFF" /><path d="M462.5 511.9m-4.5 0a4.5 4.5 0 1 0 9 0 4.5 4.5 0 1 0-9 0Z" fill="#FFFFFF" /><path d="M474 471.8c-0.7 0-1.4-0.2-2.1-0.6-1.9-1.1-2.6-3.6-1.4-5.6l6.5-10.8c1.1-1.9 3.6-2.6 5.6-1.4 1.9 1.1 2.6 3.6 1.4 5.6l-6.5 10.8c-0.7 1.3-2.1 2-3.5 2zM466.3 468.5c-0.3 0-0.6 0-0.9-0.1-2.2-0.5-3.6-2.6-3.1-4.8l2.7-12.3c0.5-2.2 2.6-3.6 4.8-3.1 2.2 0.5 3.6 2.6 3.1 4.8l-2.7 12.3c-0.3 1.9-2 3.2-3.9 3.2z"  /><path d="M459.5 469.3c-1.9 0-3.6-1.4-4-3.3l-2.4-12.4c-0.4-2.2 1-4.3 3.2-4.7 2.2-0.4 4.3 1 4.7 3.2l2.4 12.4c0.4 2.2-1 4.3-3.2 4.7-0.2 0.1-0.4 0.1-0.7 0.1zM441.9 448.2c-3.6 0-5.9-0.9-6.1-0.9-2.1-0.8-3.1-3.2-2.3-5.3 0.8-2.1 3.1-3.1 5.2-2.3 0.4 0.1 7.9 2.6 18.2-6.1 1.7-1.5 4.3-1.2 5.7 0.5 1.5 1.7 1.2 4.3-0.5 5.7-8.1 6.8-15.4 8.4-20.2 8.4z"  /><path d="M380.6 613.7c-6.8 0-13.4-4.2-16.4-10.4-1.8-3.8-2-7.8-0.6-11.5 1.4-3.8 4.2-6.9 7-9.2-3.8-2.1-6.9-5.3-9-9.4-3.7-7.2-3-15.7 1.8-21.9 3-4 7.5-6.4 12.5-6.7 6.2-0.4 12.7 2.2 17.5 6.9 1.6 1.6 1.6 4.2 0 5.7-1.6 1.6-4.2 1.6-5.7 0-3.1-3.1-7.4-4.9-11.2-4.6-1.9 0.1-4.6 0.9-6.6 3.5-2.9 3.9-3.3 8.9-1 13.4 2.3 4.6 6.7 7.5 11.6 7.5h0.2c1.9 0 3.6 1.3 4 3.2 0.4 1.9-0.6 3.8-2.3 4.6-2.5 1.1-9.3 5.1-11 9.9-0.6 1.7-0.5 3.4 0.3 5.2 1.7 3.5 5.7 6 9.5 5.8 3.9-0.2 7-3 8.8-8 0.8-2.1 3.1-3.2 5.2-2.4 2.1 0.8 3.2 3.1 2.4 5.2-2.9 8.1-8.8 13-16 13.4-0.5-0.2-0.7-0.2-1-0.2z"  /></svg>