<?xml version="1.0" standalone="no"?><!DOCTYPE svg PUBLIC "-//W3C//DTD SVG 1.1//EN" "http://www.w3.org/Graphics/SVG/1.1/DTD/svg11.dtd"><svg class="icon" width="200px" height="200.00px" viewBox="0 0 1024 1024" version="1.1" xmlns="http://www.w3.org/2000/svg"><path d="M341.3 877.6c-1.7 0-3.3-1-4-2.7-6.5-17.1 0.5-35.6 21.9-57.9 21.3-22.3 55.6-47 89.5-70.4 1.9-1.3 4.6-0.8 5.9 1.1 1.3 1.9 0.8 4.6-1.1 5.9-31.9 22.1-67.3 47.5-88.2 69.3-18.9 19.7-25.3 35.3-20.1 49.1 0.8 2.2-0.3 4.6-2.5 5.5-0.4 0-0.9 0.1-1.4 0.1z"  /><path d="M717.5 189.8c-17.6-1.3-36.8-1.2-56.6 0.1-5.6 0.4-8 7.3-4 11.3 33.6 32.5 62.3 70.3 85.2 112.1 1.2 2.1 1.1 4.7-0.2 6.7-45.6 71.4-72.7 211.3-88.6 216.5-18.4 6-118.5 14.4-156.5-36.5C465 457.5 318.2 389.6 271 368.4c-3.3-1.5-4.7-5.4-3.2-8.7 11.3-25.2 24.7-49.1 40-71.7 2.4-3.6 0.8-8.6-3.3-9.9-11-3.6-21.4-7.3-30.2-10.7-3.1-1.2-6.6 0.2-8 3.3-30 63.4-47.4 135.1-47.4 204 0 191.1 133.8 289 298.8 289s298.8-97.9 298.8-289c0-99.4-36.2-204.4-94.1-282.3-1.4-1.5-3.1-2.4-4.9-2.6z" fill="#D1845A" /><path d="M517.4 768c-42 0-81.6-6.2-117.7-18.5-36.9-12.6-69.4-31.2-96.4-55.4-58.2-52-88.9-127.9-88.9-219.4 0-67.5 17-140.6 47.8-205.9 2.4-5.1 8.2-7.4 13.4-5.4 10.2 3.9 20.3 7.5 30 10.6 3.2 1 5.7 3.5 6.8 6.7 1.1 3.3 0.7 6.8-1.3 9.6-15.4 22.8-28.7 46.7-39.6 71.1-0.3 0.6-0.3 1.2-0.1 1.8 0.1 0.3 0.4 0.9 1.2 1.3 57.9 25.9 195.8 90.6 227.4 132.9 19.4 26 55.6 34.9 82.6 37.9 31.9 3.5 60.8-0.2 69.1-2.9 0.5-0.2 3.5-2.4 9.9-19.3 4.6-11.9 9.7-27.8 15.6-46.3 15.6-48.5 35-108.9 60.8-149.2 0.5-0.7 0.5-1.7 0.1-2.4-22.6-41.4-51-78.8-84.4-111-3.1-3-4.1-7.5-2.6-11.6 1.5-4 5-6.7 9.3-7 20.6-1.4 39.9-1.4 57.2-0.1 3 0.2 5.8 1.8 7.7 4.2 59.5 80 95 186.5 95 284.9 0 91.5-30.7 167.3-88.9 219.4-27.1 24.2-59.5 42.8-96.4 55.4-36 12.4-75.6 18.6-117.6 18.6zM271.9 271.2c-0.8 0-1.6 0.5-1.9 1.3-30.3 64.1-47 136-47 202.2 0 89 29.8 162.7 86.1 213 26.2 23.4 57.7 41.5 93.5 53.7 35.2 12 73.9 18.1 114.9 18.1s79.7-6.1 114.9-18.1c35.9-12.2 67.3-30.3 93.5-53.7 56.3-50.4 86.1-124.1 86.1-213 0-96.6-34.9-201.2-93.3-279.8-0.4-0.5-0.9-0.8-1.5-0.9-17-1.3-35.8-1.2-56 0.1-1.2 0.1-1.7 0.9-1.9 1.4-0.1 0.3-0.5 1.6 0.6 2.6 34 32.9 62.9 70.9 86 113.1 1.9 3.5 1.7 7.7-0.4 11-25.2 39.4-44.4 99.2-59.9 147.2-15.2 47.2-22.3 68.2-31 71-10.4 3.4-40.7 6.8-72.7 3.3-52-5.7-76.8-25.6-88.5-41.3-31.3-41.9-179.4-110.3-224.1-130.3-2.6-1.2-4.6-3.3-5.6-6s-0.9-5.6 0.3-8.3c11.1-24.8 24.7-49.2 40.3-72.4 0.6-0.9 0.4-1.8 0.3-2.1-0.1-0.4-0.5-1.1-1.4-1.4-9.9-3.2-20.1-6.8-30.5-10.8-0.4 0.1-0.6 0.1-0.8 0.1z" fill="#46001F" /><path d="M717.5 189.8c-17.6-1.3-36.8-1.2-56.6 0.1-5.6 0.4-8 7.3-4 11.3 33.6 32.5 62.3 70.3 85.2 112.1 1.2 2.1 1.1 4.7-0.2 6.7-45.6 71.4-72.7 211.3-88.6 216.5-18.4 6-118.5 14.4-156.5-36.5C465 457.5 318.2 389.6 271 368.4c-3.3-1.5-4.7-5.4-3.2-8.7 11.3-25.2 24.7-49.1 40-71.7 2.4-3.6 0.8-8.6-3.3-9.9-11-3.6-21.4-7.3-30.2-10.7-3.1-1.2-6.6 0.2-8 3.3-30 63.4-47.4 135.1-47.4 204 0 191.1 133.8 289 298.8 289s298.8-97.9 298.8-289c0-99.4-36.2-204.4-94.1-282.3-1.4-1.5-3.1-2.4-4.9-2.6z" fill="#97552F" /><path d="M656.9 201.2c25.2 24.3 47.5 51.6 66.8 81.2 0.5-1.7 0.3-3.5-0.5-5.1-17.3-31.6-38-61-61.6-87.5h-0.7c-5.7 0.5-8.1 7.5-4 11.4z" fill="#D1845A" /><path d="M725.1 292.4l-5-7.7c-19.1-29.4-41.3-56.4-66.2-80.5-3.1-3-4.1-7.5-2.6-11.6 1.5-4 5-6.7 9.3-7l2.8-0.2 1.4 1.5c23.8 26.8 44.8 56.4 62.2 88.3 1.4 2.5 1.7 5.6 0.9 8.3l-2.8 8.9z m-65.3-94.2c7.1 6.9 14 14 20.7 21.4-6.6-8.6-13.4-16.9-20.5-25-0.4 0.3-0.7 0.8-0.8 1.1-0.1 0.2-0.4 1.5 0.6 2.5z" fill="#46001F" /><path d="M517.4 759.6c-61.1 0-117.8-13.8-163.9-39.9-33.6-19-61.1-43.9-82.2-74.3 54 55.6 136.4 77.5 229.4 77.5 184 0 296.2-108.1 296.2-286.2 0-35.6-0.3-70.6-9.2-107.3 2.4 7.3 4.6 14.6 6.7 22 11.6 41.5 17.5 83 17.5 123.3 0 89-29.8 162.7-86.1 213.1-26.2 23.4-57.7 41.5-93.5 53.7-35.1 12-73.8 18.1-114.9 18.1z" fill="#763C1C" /><path d="M505 552.2c38 50.9 138.1 42.5 156.5 36.5 15.9-5.2 53.2-195.9 98.8-267.2 1.3-2 1.4-4.6 0.2-6.7C710.5 223.4 656 132 520.1 97.5c-1.8-0.5-3.5-0.3-5.3 0.2-127.5 36.8-229 187.2-263.7 304.2-1 3.5 0 7.2 3.2 8.7 47.3 21 219 99 250.7 141.6z" fill="#FFF6E3" /><path d="M617.8 597.4c-8.7 0-18.1-0.4-27.7-1.5-52-5.7-76.8-25.6-88.5-41.3-29.4-39.3-183.9-111.3-249-140.4-5-2.2-7.3-7.9-5.6-13.8 18.4-62.3 54.1-129.3 97.7-183.7 64.6-80.4 127.4-111.5 168.8-123.4 2.7-0.8 5.2-0.9 7.5-0.3 62.1 15.8 112.6 44.7 154.5 88.5 36.9 38.6 63 83.9 88.6 130.9 1.9 3.5 1.7 7.7-0.4 11-25.6 40-48.4 117.5-66.7 179.8-19.2 65.1-26.1 86.4-34.4 89.1-7.1 2.8-24.2 5.1-44.8 5.1z m-109.4-47.7c19.4 26 55.6 34.9 82.6 37.9 31.6 3.5 60.3-0.1 69-2.9 0.9-0.7 4.1-4.5 11.3-25.4 5.2-15.2 11-35.1 17.8-58.1 18.5-62.8 41.5-141 67.7-182 0.5-0.7 0.5-1.7 0.1-2.4-25.4-46.4-51.2-91.2-87.3-129.1-40.7-42.6-89.9-70.8-150.4-86.2-0.9-0.2-1.9-0.2-3.1 0.2-40.2 11.6-101.3 41.9-164.5 120.6-43 53.6-78.1 119.4-96.2 180.8-0.3 1-0.5 3 0.9 3.6 81.4 36.4 222.7 103.5 252.1 143z"  /><path d="M759.8 313.4c-17.7 32.1-34 80.7-48.1 127 14.4-45.8 30.8-91.4 48.5-119 1.3-2 1.4-4.6 0.2-6.7-0.1-0.4-0.3-0.8-0.6-1.3z" fill="#FFF6E3" /><path d="M715.8 441.7l-8.1-2.5c12.7-41.5 29.6-93.6 48.4-127.8l3.7-6.8 4.4 8c1.9 3.5 1.7 7.7-0.4 11-19.2 30.2-36.6 81.9-48 118.1z" fill="#46001F" /><path d="M759.8 313.4c-17.7 32.1-34 80.7-48.1 127 14.4-45.8 30.8-91.4 48.5-119 1.3-2 1.4-4.6 0.2-6.7-0.1-0.4-0.3-0.8-0.6-1.3z" fill="#FFF6E3" /><path d="M715.8 441.7l-8.1-2.5c12.7-41.5 29.6-93.6 48.4-127.8l3.7-6.8 4.4 8c1.9 3.5 1.7 7.7-0.4 11-19.2 30.2-36.6 81.9-48 118.1z" fill="#46001F" /><path d="M617.7 589.1c-15.3 0-38.1-1.4-60.1-8-22.2-6.7-38.8-17.3-49.4-31.4-29.4-39.4-170.6-106.5-252.2-143-1.5-0.7-1.4-2.7-1-3.8 0.8-2.5 1.5-5.1 2.4-7.7 0.4 0.2 0.7 0.4 1.1 0.6 65.1 29.1 219.7 101 249.1 140.4 27.7 37.1 84.4 42.6 115.8 42.6 18.6 0 34.1-1.9 42.3-4-3.3 7.9-5 9.5-5.5 9.8-5.6 2-21.2 4.5-42.5 4.5z" fill="#FFD8A9" /><path d="M626.7 589c6.8-8.7 14.4-33.3 29.8-85.5 18.3-62.3 41.1-139.9 66.7-179.9 2.1-3.3 2.3-7.5 0.4-10.9-50.3-91.9-101.2-171.3-211.9-210 1.4-0.4 2.8-0.9 4.2-1.2 0.8-0.2 1.5-0.3 2.1-0.3 0.4 0 0.8 0 1.2 0.1 60.6 15.4 109.8 43.6 150.6 86.2 36.2 37.9 62 82.7 87.4 129.1 0.4 0.8 0.4 1.7-0.1 2.5-26.2 41-49.2 119.1-67.7 182-6.8 23.1-12.7 43.1-17.8 58.3-7.2 21.1-10.4 24.7-11.3 25.4-4.8 1.5-16.9 3.6-33.6 4.2z" fill="#FFD8A9" /><path d="M831.5 419.2c-3.5 0-7-0.1-10.6-0.3-34.8-2-60.2-13-61.3-13.5-2.1-0.9-3.1-3.4-2.2-5.6 0.9-2.1 3.4-3.1 5.6-2.2 0.3 0.1 25.4 10.9 58.7 12.8 19.4 1.1 37.8-1 54.6-6.3 20.9-6.6 39.6-18.1 55.4-34.3 1.6-1.7 4.3-1.7 6-0.1 1.7 1.6 1.7 4.3 0.1 6-27.9 28.6-64.5 43.5-106.3 43.5zM70.2 477.8c-1.4 0-2.8-0.7-3.6-2-1.2-2-0.7-4.6 1.3-5.8 27.6-17.4 55.5-29 83.1-34.5 22.1-4.4 44-4.9 65.1-1.4 36 5.9 56.9 21.1 57.8 21.8 1.9 1.4 2.3 4 0.9 5.9-1.4 1.9-4 2.3-5.9 0.9-0.3-0.3-20.6-14.8-54.6-20.3-20-3.2-40.9-2.7-61.9 1.5-26.4 5.3-53.3 16.5-79.9 33.3-0.7 0.4-1.5 0.6-2.3 0.6z"  /><path d="M577.7 284c1.6 0 3-1 3.5-2.6 0.6-1.9-0.5-3.9-2.4-4.5l-50.5-15.1c-1.9-0.6-3.9 0.5-4.5 2.4-0.6 1.9 0.5 3.9 2.4 4.5l50.5 15.1c0.3 0.1 0.6 0.2 1 0.2z" fill="#231402" /><path d="M587 293.4c1.5 0 2.8-0.9 3.4-2.4 0.7-1.9-0.3-3.9-2.1-4.6l-56.7-20.9c-1.9-0.7-3.9 0.3-4.6 2.1-0.7 1.9 0.3 3.9 2.1 4.6l56.7 20.9c0.3 0.3 0.7 0.3 1.2 0.3z" fill="#231402" /><path d="M573.6 296.2c1.4 0 2.8-0.8 3.3-2.2 0.8-1.8-0.1-3.9-1.9-4.7L531.5 271c-1.8-0.8-3.9 0.1-4.7 1.9-0.8 1.8 0.1 3.9 1.9 4.7l43.5 18.2c0.5 0.3 0.9 0.4 1.4 0.4z" fill="#231402" /><path d="M580.8 305.9c1.4 0 2.7-0.8 3.3-2.1 0.8-1.8 0-4-1.8-4.8l-50.8-23.1c-1.8-0.8-4 0-4.8 1.8-0.8 1.8 0 4 1.8 4.8l50.8 23.1c0.5 0.2 1 0.3 1.5 0.3z" fill="#231402" /><path d="M562.8 305.4c1.3 0 2.6-0.7 3.2-2 0.9-1.8 0.2-3.9-1.6-4.9l-32.9-16.9c-1.8-0.9-3.9-0.2-4.9 1.6-0.9 1.8-0.2 3.9 1.6 4.9l32.9 16.9c0.6 0.3 1.1 0.4 1.7 0.4z" fill="#231402" /><path d="M403.3 279.4c0.3 0 0.7 0 1-0.2l50.5-15.1c1.9-0.6 3-2.6 2.4-4.5-0.6-1.9-2.6-3-4.5-2.4l-50.5 15.1c-1.9 0.6-3 2.6-2.4 4.5 0.5 1.6 1.9 2.6 3.5 2.6z" fill="#231402" /><path d="M394 288.8c0.4 0 0.8-0.1 1.2-0.2l56.7-20.9c1.9-0.7 2.8-2.8 2.1-4.6-0.7-1.9-2.8-2.8-4.6-2.1l-56.7 20.9c-1.9 0.7-2.8 2.8-2.1 4.6 0.6 1.4 1.9 2.3 3.4 2.3z" fill="#231402" /><path d="M407.4 291.5c0.5 0 0.9-0.1 1.4-0.3l43.5-18.2c1.8-0.8 2.7-2.9 1.9-4.7-0.8-1.8-2.9-2.7-4.7-1.9L406 284.6c-1.8 0.8-2.7 2.9-1.9 4.7 0.5 1.4 1.8 2.2 3.3 2.2z" fill="#231402" /><path d="M400.1 301.3c0.5 0 1-0.1 1.5-0.3l50.8-23.1c1.8-0.8 2.6-3 1.8-4.8-0.8-1.8-3-2.6-4.8-1.8l-50.8 23.1c-1.8 0.8-2.6 3-1.8 4.8 0.6 1.3 2 2.1 3.3 2.1z" fill="#231402" /><path d="M418.2 300.8c0.6 0 1.1-0.1 1.6-0.4l32.9-16.9c1.8-0.9 2.5-3.1 1.6-4.9-0.9-1.8-3.1-2.5-4.9-1.6l-32.9 17c-1.8 0.9-2.5 3.1-1.6 4.9 0.7 1.2 2 1.9 3.3 1.9z" fill="#231402" /><path d="M625.9 334.8c-8.5-6.8-28.7-10.1-46.6-8.6-20.3 1.6-32.3 9.3-30.5 17.5 0.7 3.1 2.8 6.2 7.4 8.7 7.4 4.1 20.6 6.1 33.1 5.7 17.4-0.5 33.9-5.5 38.8-12.3 3-4 1.8-7.8-2.2-11z" fill="#FF6666" /><path d="M603 346.1c-0.7 0-1.4-0.3-1.9-0.8-1.5-1.7-2.9-3.6-4.2-5.5-0.7-1.2-0.4-2.8 0.8-3.5 1.2-0.7 2.8-0.4 3.5 0.8 1.1 1.7 2.3 3.3 3.6 4.9 0.9 1 0.8 2.7-0.2 3.6-0.4 0.2-1 0.5-1.6 0.5zM593 350.2c-0.8 0-1.6-0.4-2.1-1.1-3-4.3-5.8-8.8-8.4-13.3-0.7-1.2-0.3-2.8 1-3.5 1.2-0.7 2.8-0.3 3.5 1 2.5 4.4 5.2 8.7 8.1 12.9 0.8 1.2 0.5 2.7-0.6 3.5-0.5 0.3-1 0.5-1.5 0.5zM577.9 346.4c-0.7 0-1.5-0.3-2-0.9-1.6-2-3.1-4.1-4.2-6.4-0.6-1.2-0.1-2.8 1.1-3.4 1.2-0.6 2.8-0.1 3.4 1.1 1 2 2.2 3.8 3.6 5.5 0.9 1.1 0.7 2.7-0.3 3.6-0.4 0.4-1 0.5-1.6 0.5z" fill="#FFFFFF" /><path d="M425.4 331c-8.5-6.8-28.7-10.1-46.6-8.6-20.3 1.6-32.3 9.3-30.5 17.5 0.7 3.1 2.8 6.2 7.4 8.7 7.4 4.1 20.6 6.1 33.1 5.7 17.4-0.5 33.9-5.5 38.8-12.3 2.9-4.1 1.8-7.9-2.2-11z" fill="#FF6666" /><path d="M372.3 343.3c-0.6 0-1.2-0.2-1.7-0.6-1-0.9-1.1-2.5-0.2-3.6 1.3-1.5 2.6-3.1 3.6-4.9 0.7-1.2 2.3-1.6 3.5-0.8 1.2 0.7 1.6 2.3 0.8 3.5-1.2 2-2.6 3.8-4.2 5.5-0.4 0.6-1.1 0.9-1.8 0.9zM382.2 347.4c-0.5 0-1-0.1-1.4-0.5-1.2-0.8-1.4-2.4-0.6-3.5 2.9-4.1 5.6-8.5 8.1-12.9 0.7-1.2 2.2-1.7 3.5-1 1.2 0.7 1.7 2.2 1 3.5-2.6 4.5-5.4 9-8.4 13.3-0.6 0.7-1.4 1.1-2.2 1.1zM397.3 343.7c-0.6 0-1.1-0.2-1.6-0.6-1.1-0.9-1.2-2.5-0.3-3.6 1.4-1.7 2.6-3.6 3.6-5.5 0.6-1.2 2.2-1.7 3.4-1.1 1.2 0.6 1.7 2.2 1.1 3.4-1.2 2.3-2.6 4.5-4.2 6.4-0.5 0.7-1.3 1-2 1z" fill="#FFFFFF" /><path d="M516.4 372.8s-2.6 46.4-26.9 44.3c-24.3-2.1-20.5-48.9-20.5-48.9" fill="#DD2A00" /><path d="M507.6 369.3l-5.6 25.5c-0.2 0.8-0.9 1.4-1.8 1.4h-4.3c-1 0-1.8-0.8-1.8-1.8l-0.4-18.9-1.9 20c-0.3 0.8-1 1.3-1.8 1.2l-5.8 0.1c-0.9 0-2.5-1.5-2.5-2.5l-1.9-29 16.5-3.9 11.3 7.9z" fill="#FFFFFF" /><path d="M517 375.1c-7.6 0-15.9-2.5-21.5-10.4-8.3 6.4-23.3 12.3-39.9 3.1-2-1.1-2.8-3.7-1.7-5.8 1.1-2 3.7-2.8 5.8-1.7 19.2 10.6 33.1-4.5 33.7-5.2 1-1.1 2.4-1.6 3.8-1.4 1.4 0.2 2.6 1.1 3.2 2.4 7.4 16.2 26.5 8.7 27.3 8.3 2.2-0.9 4.6 0.2 5.5 2.3s-0.1 4.6-2.3 5.5c-3.5 1.7-8.6 2.9-13.9 2.9z"  /><path d="M489.8 400.1c7 0 13.2 2.9 17 7.5-4 6.2-9.5 10.5-17.3 9.9-7.3-0.6-12-5.3-15.1-11.5 3.7-3.6 9.3-5.9 15.4-5.9z" fill="#FF6666" /><path d="M491 421.4c-0.6 0-1.3 0-2-0.1-28.2-2.4-24.5-51.4-24.3-53.5 0.2-2.3 2.2-4.1 4.6-3.9 2.3 0.2 4.1 2.2 3.9 4.6 0 0.4-2.9 42.7 16.6 44.4 3.6 0.3 6.6-0.7 9.4-3.1 9.4-8.1 12.5-29.6 12.9-37.2 0.1-2.3 2.1-4.1 4.5-4 2.3 0.1 4.1 2.1 4 4.5-0.1 1.3-1.9 31-15.8 43.1-4.1 3.4-8.7 5.2-13.8 5.2z"  /><path d="M629.8 857.6c-0.6 0-1.2-0.1-1.7-0.4-54.6-24.2-13.5-137.8-11.7-142.6 0.8-2.2 3.2-3.3 5.4-2.5 2.2 0.8 3.3 3.2 2.5 5.4-0.4 1.1-40.1 111 7.2 132 2.1 0.9 3.1 3.4 2.2 5.6-0.7 1.5-2.3 2.5-3.9 2.5z"  /></svg>