<?xml version="1.0" standalone="no"?><!DOCTYPE svg PUBLIC "-//W3C//DTD SVG 1.1//EN" "http://www.w3.org/Graphics/SVG/1.1/DTD/svg11.dtd"><svg class="icon" width="200px" height="200.00px" viewBox="0 0 1024 1024" version="1.1" xmlns="http://www.w3.org/2000/svg"><path d="M511.1 904c-2.1 0-4.5-0.1-6.9-0.4-13.7-1.6-23.6-8.2-28.7-18.9-4.8-10.1-5.9-27.8-3.2-52.5 2-18 5.2-33 5.4-33.6 0.6-2.5 3-4.1 5.6-3.6 2.5 0.6 4.1 3 3.6 5.6-3.6 16.4-11.1 62.9-2.9 80.1 9 18.8 36.5 13.1 36.8 13.1 2.5-0.5 5 1.1 5.6 3.6 0.5 2.5-1 5-3.6 5.6-0.3 0-5.1 1-11.7 1z"  /><path d="M717.9 786.8s-5.9 21.7 2 46.3c9.7 27.3-13.8 11-17.6 13.9-3.8 2.9 0.3 17.4-10.5 18.3s-7.3 10.4-14.2 13.3c-6.8 2.9-42-41.5-60.6-31.4 0 0.2 26.3-58.5 100.9-60.4z" fill="#DD2A00" /><path d="M267.5 556C312.2 723 466.3 831.9 581 853.1c48.5 9 100.6-9.8 129.7-47.9 67-87.8-55.7-164-103.2-341.4C556.7 273.7 722.2 122 540.2 99.1c-48.9-6.2-99.7 9.6-136.3 41.9-92 81-179.8 252.7-136.4 415z" fill="#DD2A00" /><path d="M581.1 853.1c45.7 8.5 94.7-7.8 124.5-41.7 54.4-84.7-67-151.8-120.3-315.4C527 317 648 195.1 503.6 151c-47-14.4-99.2 14.3-134.5 47.1-25.5 23.7-50.4 54.5-71.7 90.1-36.8 80-54.6 175.4-29.9 267.8 44.7 167 198.8 275.9 313.6 297.1z" fill="#FF5F5F" /><path d="M496.5 105.7s26.1-6.7 50.4-27.3c26.6-23.7 17.1 6.2 21.7 7.9 4.5 1.7 19.1-9.9 24-0.8 4.9 9.1 14.1 0.8 19.8 5.3 5.7 4.5-11.7 46.6 6.2 57.6 0-0.1-93.1 22.5-122.1-42.7z" fill="#DD2A00" /><path d="M683.8 845.5c-11.1 8.8-23.8 11.9-35.7 12.1 13.4 10.1 25.8 22.8 29.6 21.2 6.8-2.9 3.4-12.4 14.2-13.3 10.8-0.9 6.7-15.4 10.5-18.3 3.8-2.9 27.3 13.4 17.6-13.9-0.1-0.2-0.1-0.5-0.2-0.7-11.7 0.3-24.4 3.6-36 12.9z" fill="#FF5F5F" /><path d="M676.9 883.6c-0.1 0-0.1 0 0 0h-0.6c-0.2 0-0.4 0-0.6-0.1-0.2 0-0.3-0.1-0.4-0.1-0.2 0-0.4-0.1-0.6-0.1-0.1 0-0.3-0.1-0.4-0.1-0.2-0.1-0.4-0.1-0.5-0.2l-0.4-0.1c-0.2-0.1-0.4-0.1-0.5-0.2-0.2-0.1-0.3-0.1-0.4-0.2-0.1-0.1-0.3-0.1-0.5-0.2l-0.4-0.2c-0.2-0.1-0.3-0.2-0.5-0.3l-0.3-0.2c-0.2-0.1-0.4-0.2-0.5-0.3l-0.3-0.3c-0.2-0.2-0.5-0.3-0.7-0.5l-4.5-3.3-1.7-1.4c-1.6-1.3-3.4-2.8-5.2-4.3-3.9-3.2-8.2-6.9-12.6-10.2-2.6-2-5-3.7-7.3-5.1-0.2 0-0.4 0.1-0.5 0.1-0.7 0.1-1.3 0.3-2 0.4l-0.3 0.1c-0.8 0.2-1.5 0.3-2.3 0.5-0.7 0.1-1.5 0.3-2.2 0.4-0.8 0.1-1.5 0.3-2.3 0.4-0.7 0.1-1.5 0.2-2.2 0.3l-2.4 0.3c-0.7 0.1-1.5 0.2-2.2 0.3l-2.4 0.3c-0.7 0.1-1.4 0.1-2.2 0.2-0.8 0.1-1.6 0.1-2.4 0.2-0.7 0-1.4 0.1-2.2 0.1-0.8 0-1.6 0.1-2.5 0.1-0.7 0-1.4 0-2.1 0.1h-4.6c-0.9 0-1.7 0-2.6-0.1h-0.5c-0.5 0-1.1 0-1.6-0.1-0.8 0-1.6-0.1-2.4-0.1l-0.8-0.1c-0.5 0-0.9-0.1-1.4-0.1-0.8-0.1-1.6-0.1-2.5-0.2l-0.9-0.1c-0.4 0-0.8-0.1-1.2-0.1-1-0.1-1.9-0.2-2.9-0.4l-0.8-0.1c-0.3 0-0.7-0.1-1-0.1-1.4-0.2-2.8-0.4-4.1-0.7h-0.3l-0.4-0.1c-25.8-4.8-52.8-13.7-80.2-26.5-2-0.9-3.9-1.9-5.9-2.8-9.9-4.8-19.9-10.2-29.6-15.9-9.9-5.8-19.8-12.1-29.4-18.7-5.8-4-11.7-8.3-17.3-12.6-1.9-1.5-3.8-2.9-5.7-4.4-7.6-6-15.1-12.3-22.3-18.8-3.6-3.3-7.3-6.6-10.8-10-3.6-3.4-7.2-6.9-10.6-10.5-16.1-16.4-30.8-34-43.9-52.2-3-4.2-5.9-8.5-8.7-12.7-23.9-36.1-41.5-74.9-52.3-115.3-0.6-2.2-1.2-4.5-1.8-7.1l-0.2-1c-0.5-2.2-1-4.4-1.5-6.7l-0.3-1.3c-0.5-2.3-1-4.6-1.4-6.7l-0.2-1.1c-0.5-2.6-0.9-4.9-1.3-7v-0.2c-0.4-2.3-0.7-4.5-1.1-7l-0.1-0.9c-0.3-2.2-0.6-4.4-0.9-6.8l-0.2-1.3c-0.3-2.3-0.5-4.5-0.7-6.7l-0.1-1.1c-0.2-2.5-0.4-4.8-0.6-7v-0.4c-0.2-2.2-0.3-4.5-0.5-6.8l-0.1-0.9c-0.1-2.3-0.2-4.5-0.3-6.8v-1.3c-0.1-2.2-0.1-4.4-0.2-6.6v-1.2V464c0-2.2 0.1-4.4 0.1-6.7v-0.9c0.1-2.2 0.2-4.4 0.3-6.7l0.1-1.3c0.1-2.2 0.2-4.4 0.4-6.5l0.1-1.3c0.2-2.2 0.3-4.4 0.5-6.7l0.1-0.8c0.2-2.1 0.4-4.3 0.6-6.4l0.1-0.8c0.2-2.2 0.5-4.4 0.8-6.6l0.2-1.3c0.3-2.1 0.6-4.3 0.9-6.4l0.2-1.4c0.3-2.2 0.7-4.3 1-6.5l0.2-1c0.3-2.1 0.7-4.2 1.1-6.2l0.1-0.8c0.4-2.2 0.8-4.3 1.2-6.4l0.3-1.4c0.4-2.1 0.9-4.1 1.3-6.2l0.3-1.5c0.5-2.1 0.9-4.2 1.4-6.2l0.3-1.1 1.5-6 0.2-0.8c0.5-2.1 1.1-4.2 1.7-6.2l0.4-1.4c0.6-2 1.1-4 1.7-6l0.4-1.5 1.8-6 0.4-1.3 1.8-5.7 0.3-0.8c0.7-2 1.3-4 2-6l0.5-1.4c0.7-1.9 1.4-3.8 2-5.8l0.6-1.5 2.1-5.7 0.5-1.3c0.7-1.8 1.4-3.7 2.2-5.5l0.4-1c0.7-1.8 1.5-3.7 2.3-5.5l0.6-1.4c0.8-1.8 1.6-3.7 2.4-5.5l0.7-1.5c0.8-1.8 1.6-3.6 2.4-5.5l1.7-3.6c27-58.6 65.1-111.3 107.4-148.6 31.1-27.4 72.9-43.5 115.1-44.3 10.3-5.1 19.8-11.2 28.1-18.3 9.9-8.8 16.3-11.7 21.4-9.6 5.7 2.3 6.1 9.3 6.3 14.3 0 0.5 0.1 1.1 0.1 1.7 1-0.3 2.2-0.8 3.1-1.1 5.9-2.2 16.8-6.3 21.9 3.1 1.1 2.1 1.9 2.3 6.6 1.7 3.4-0.4 8.1-1 12 2.1 4.2 3.3 3.2 9.9 1.6 20.9-0.7 5-1.6 10.5-1.8 15.9 27.7 29.1 17.7 74.3 5 131.3-12.8 57.9-28.8 130-8.1 207.5 19 71.1 50.8 126.9 76.4 171.7 18.6 32.6 34.6 60.7 42.1 87.2 8.2 29.2 5.1 53.8-9.8 77.5-0.7 8.1-0.5 19.9 3.6 32.6 3.2 9.1 3.4 14.9 0.6 18.7-1.3 1.8-4 3.9-9 3.6-1.5-0.1-3.1-0.4-5.2-0.9l-2.8-0.7c-0.9-0.2-1.8-0.5-2.7-0.7-0.1 0.8-0.3 1.8-0.4 2.5-0.4 2.6-0.7 5.6-2 8.4-0.3 0.7-0.7 1.3-1 1.9-0.7 1-1.4 1.9-2.3 2.7-0.6 0.6-1.4 1-2.1 1.4-0.6 0.3-1.3 0.6-2.1 0.9-0.2 0.1-0.4 0.1-0.6 0.2-0.8 0.2-1.6 0.3-2.4 0.4-1 0.1-1.8 0.3-2.4 0.5-0.3 0.1-0.6 0.3-0.8 0.5-0.1 0.1-0.2 0.1-0.2 0.2-0.3 0.3-0.6 0.7-0.9 1.3-0.3 0.5-0.6 1.1-0.8 1.8l-0.2 0.5c-0.3 0.7-0.7 1.6-1.2 2.5-0.1 0.2-0.3 0.5-0.4 0.7-1.4 2.4-3.3 4-5.7 5-0.5 0.2-0.9 0.3-1.4 0.4l-0.5 0.1c-1 0.1-1.2 0.1-1.4 0.1z m0.2-9.4z m-37.7-28l1.7 1c3 1.8 6.2 3.9 9.8 6.6 4.6 3.4 9.1 7.2 13 10.5 1.8 1.5 3.5 2.9 5.1 4.2l5.6 4.2c0.2 0.1 0.3 0.2 0.5 0.3l1.5 0.9c0.2-0.2 0.5-0.5 0.7-0.9 0.1-0.1 0.1-0.2 0.2-0.3 0.3-0.5 0.6-1.1 0.8-1.7l0.2-0.5c0.4-0.8 0.7-1.6 1.2-2.5 0.8-1.4 1.6-2.5 2.6-3.5 0.3-0.3 0.6-0.6 0.9-0.8 0.9-0.7 1.8-1.3 2.9-1.7 1.6-0.7 3.3-1.1 5.2-1.2 0.3 0 0.6-0.1 0.9-0.2h0.1c0.3-0.1 0.5-0.2 0.5-0.2 0.2-0.1 0.3-0.2 0.4-0.3 0.2-0.2 0.4-0.4 0.5-0.6 0.1-0.2 0.2-0.4 0.4-0.7 0.7-1.5 1-3.7 1.3-5.8 0.4-2.9 0.7-5.6 2.2-7.8 0.5-0.7 1-1.3 1.6-1.8l0.9-0.6c0.5-0.2 1-0.4 1.6-0.6 0.2-0.1 0.5-0.1 0.7-0.1 0.4-0.1 0.9-0.1 1.3-0.1 1.9 0 4.1 0.6 6.4 1.3l2.6 0.7c1.5 0.4 2.6 0.6 3.5 0.6h1c0.2-0.7 0.4-3.3-2-9.8v-0.1c-4.8-14.8-4.7-28.6-3.9-37.5l0.1-1.1 0.6-1c14.1-21.9 17-43.8 9.3-70.9-7.1-25.4-22.9-53.1-41.2-85.1-13-22.7-27.6-48.5-41.3-77.1-15.7-33-27.5-64.6-36.1-96.8-21.3-79.7-5.1-153 8-211.9 12.2-55.1 21.9-98.7-3.9-124.1l-1.4-1.4 0.1-2c0.2-6.5 1.2-13.1 2-18.9 0.6-4.3 1.5-10.1 1.3-12.4-0.9-0.3-2.4-0.1-4.4 0.1-4.4 0.6-11.7 1.5-16-6.6-0.9-1.7-3.3-1.4-10.4 1.2-4.2 1.6-7.9 3-11.2 1.7-4.1-1.6-4.4-6.1-4.6-10.6-0.1-1.6-0.3-4.8-0.8-6.1-1.1 0.2-4.3 1.5-11.5 7.9l-0.1 0.1c-9.2 7.8-19.6 14.5-31 20l-0.9 0.5h-1c-40.3 0.5-80.4 15.8-110.1 42-41.3 36.4-78.7 88.2-105.2 145.7l-1.5 3.3-2.4 5.4-0.7 1.5c-0.8 1.8-1.5 3.6-2.3 5.4l-0.6 1.3c-0.7 1.8-1.5 3.6-2.2 5.4l-0.4 1-2.1 5.4-0.5 1.3c-0.7 1.9-1.4 3.7-2.1 5.6l-0.5 1.5c-0.7 1.9-1.3 3.8-2 5.6l-0.5 1.4c-0.7 1.9-1.3 3.9-2 5.9l-0.3 0.8c-0.6 1.9-1.2 3.7-1.8 5.6l-0.4 1.2c-0.6 1.9-1.2 3.9-1.8 5.9l-0.4 1.5c-0.6 2-1.1 3.9-1.7 5.9l-0.4 1.3c-0.6 2-1.1 4.1-1.6 6.1l-0.2 0.8c-0.5 2-1 3.9-1.5 5.9l-0.3 1.1c-0.5 2-0.9 4.1-1.4 6.1l-0.3 1.4c-0.4 2-0.9 4-1.3 6.1l-0.3 1.3-1.2 6.3-0.1 0.8c-0.4 2-0.7 4-1.1 6.1l-0.2 0.9c-0.3 2.1-0.7 4.2-1 6.3l-0.2 1.3c-0.3 2.1-0.6 4.2-0.9 6.2l-0.2 1.3c-0.3 2.1-0.5 4.3-0.8 6.4l-0.1 0.8-0.6 6.3-0.1 0.8c-0.2 2.2-0.4 4.3-0.5 6.5l-0.1 1.3c-0.1 2.1-0.3 4.3-0.4 6.4l-0.1 1.3c-0.1 2.2-0.2 4.3-0.3 6.5v0.9c-0.1 2.2-0.1 4.3-0.1 6.5V472.7c0 2.2 0.1 4.3 0.2 6.5v1.3l0.3 6.6 0.1 0.9c0.1 2.3 0.3 4.5 0.4 6.7v0.4c0.2 2.1 0.4 4.3 0.6 6.8l0.1 1.1c0.2 2.1 0.5 4.3 0.7 6.5l0.2 1.2c0.3 2.3 0.6 4.5 0.9 6.6l0.1 0.9c0.4 2.4 0.7 4.6 1.1 6.8v0.1c0.4 2.2 0.8 4.4 1.2 6.9l0.2 1c0.4 2.1 0.9 4.3 1.3 6.5l0.3 1.2c0.5 2.3 1 4.5 1.5 6.6l0.2 1c0.6 2.5 1.2 4.8 1.8 6.9 10.5 39.4 27.7 77.2 51.1 112.5 2.8 4.2 5.6 8.3 8.6 12.4 12.8 17.9 27.2 35.1 43 51.1 3.4 3.4 6.9 6.9 10.4 10.3 3.5 3.3 7.1 6.6 10.6 9.8 7.1 6.3 14.4 12.5 21.9 18.4 1.9 1.5 3.7 2.9 5.6 4.3 5.5 4.2 11.2 8.4 17 12.4 9.4 6.5 19 12.7 28.7 18.4 9.5 5.6 19.3 10.8 29 15.5 1.9 0.9 3.9 1.9 5.8 2.8 26.8 12.5 53.2 21.2 78.2 25.8h0.1c1.4 0.3 2.8 0.5 4.3 0.7 0.3 0 0.5 0.1 0.8 0.1l0.8 0.1c0.9 0.1 1.8 0.2 2.6 0.3 0.3 0 0.7 0.1 1 0.1l1 0.1c0.8 0.1 1.5 0.2 2.3 0.2 0.4 0 0.8 0.1 1.2 0.1l0.8 0.1c0.7 0 1.5 0.1 2.2 0.1 0.5 0 1 0 1.4 0.1h0.5c0.8 0 1.6 0.1 2.4 0.1h4.3c0.7 0 1.3 0 2-0.1 0.8 0 1.5-0.1 2.3-0.1 0.7 0 1.3-0.1 2-0.1 0.8 0 1.5-0.1 2.3-0.2 0.7-0.1 1.4-0.1 2-0.2 0.7-0.1 1.5-0.2 2.2-0.2 0.7-0.1 1.4-0.2 2-0.2 0.7-0.1 1.5-0.2 2.2-0.3l2.1-0.3c0.7-0.1 1.4-0.2 2.2-0.4 0.7-0.1 1.4-0.2 2.1-0.4 0.7-0.1 1.4-0.3 2.1-0.4l0.3-0.1c0.6-0.1 1.2-0.3 1.8-0.4 0.7-0.1 1.3-0.3 1.9-0.5l3-0.9z"  /><path d="M514.5 335.2c-1.1 0-2.1-0.4-3-1.1-1.3-1.1-32-26.2-72.5-1-2.2 1.4-5.1 0.7-6.4-1.5-1.4-2.2-0.7-5.1 1.5-6.4 24.2-15.1 45.5-13.8 59.2-10.2 14.8 4 23.9 11.6 24.3 11.9 2 1.7 2.2 4.6 0.5 6.6-1 1.1-2.3 1.7-3.6 1.7z"  /><path d="M431 337.2a12.9 13.6 0 1 0 25.8 0 12.9 13.6 0 1 0-25.8 0Z"  /><path d="M378.9 331.7c-1.1 0-2.1-0.4-3-1.1-1.3-1.1-32-26.2-72.5-1-2.2 1.4-5.1 0.7-6.4-1.5-1.4-2.2-0.7-5.1 1.5-6.4 24.2-15.1 45.5-13.8 59.2-10.2 14.8 4 23.9 11.6 24.3 11.9 2 1.7 2.2 4.6 0.5 6.6-1 1.1-2.3 1.7-3.6 1.7z"  /><path d="M295.4 333.7a12.9 13.6 0 1 0 25.8 0 12.9 13.6 0 1 0-25.8 0Z"  /><path d="M406.4 458.8c-0.7 0-1.5-0.2-2.1-0.5-13.4-6.9-20.3-5.1-23.6-4.2-0.4 0.1-0.7 0.2-1.1 0.3-3.1 0.7-10.8 1.9-16.8-2.6-3.9-2.9-6.1-7.5-6.5-13.6-0.5-8.8 5.7-13.6 12-16.1-3.5-3.9-4.9-8.9-5.7-11.7-1.5-5.3-1.1-20 6.7-24.4 2.6-1.5 7.8-2.8 14.5 4.3 9.7 10.4 23.2 5.9 23.3 5.9 2.4-0.8 5.1 0.5 5.9 2.9 0.8 2.4-0.5 5.1-2.9 5.9-0.8 0.3-19.4 6.5-33.2-8.4-1.8-1.9-2.8-2.4-3.2-2.5-1.7 1.3-3.3 9.6-2.2 13.6 1.8 6.4 3.7 9.9 8.6 10.5 1.4 0.2 5.7 0.6 5.8 4.8 0.2 4.1-3.8 4.9-5.7 5.3-7 1.4-14.9 3.7-14.6 9.3 0.2 3.2 1.1 5.4 2.7 6.6 2.3 1.7 6.3 1.6 9.1 1 0.2-0.1 0.5-0.1 0.8-0.2 4.1-1.1 13.7-3.6 30.3 5 2.3 1.2 3.2 4 2 6.3-0.8 1.6-2.4 2.5-4.1 2.5z"  /><path d="M226.9 399.2a49.4 36.6 0 1 0 98.8 0 49.4 36.6 0 1 0-98.8 0Z" fill="#FFB6B6" opacity=".53" /><path d="M465.1 399.2a49.4 36.6 0 1 0 98.8 0 49.4 36.6 0 1 0-98.8 0Z" fill="#FFB6B6" opacity=".34" /><path d="M649.6 502.6c-7.6 0-15.6-0.7-23.7-2.1-32.1-5.4-56.7-19.4-57.7-20-2.2-1.3-3-4.1-1.7-6.4 1.3-2.2 4.1-3 6.4-1.7 0.2 0.1 24.4 13.8 54.9 18.9 40.1 6.7 71.9-3.9 94.4-31.5 1.6-2 4.6-2.3 6.6-0.7 2 1.6 2.3 4.6 0.7 6.6-20.1 24.3-47.3 36.9-79.9 36.9zM163.2 583.6c-16.9 0-36.1-4.2-57.2-15-2.3-1.2-3.2-4-2-6.3 1.2-2.3 4-3.2 6.3-2 38.4 19.8 74.2 18.8 106.6-2.8 24.5-16.4 37.8-39.1 37.9-39.3 1.3-2.2 4.1-3 6.4-1.7 2.2 1.3 3 4.1 1.7 6.4-0.6 1-14.4 24.6-40.6 42.2-14.4 9.6-34.4 18.5-59.1 18.5zM623.1 943.9c-1 0-2.1-0.3-3-1.1-12.4-10.3-20.4-38.6-23.7-84.1-2.4-33.2-1.3-64-1.3-64.3 0.1-2.6 2.2-4.6 4.8-4.5 2.6 0.1 4.6 2.3 4.5 4.8-1.2 33.3 0.5 123.5 21.6 140.9 2 1.6 2.3 4.6 0.6 6.6-0.8 1.1-2.1 1.7-3.5 1.7z"  /></svg>