<?xml version="1.0" standalone="no"?><!DOCTYPE svg PUBLIC "-//W3C//DTD SVG 1.1//EN" "http://www.w3.org/Graphics/SVG/1.1/DTD/svg11.dtd"><svg class="icon" width="200px" height="200.00px" viewBox="0 0 1024 1024" version="1.1" xmlns="http://www.w3.org/2000/svg"><path d="M724.9 450.1C724.9 677.2 570.1 819 488 819S251.2 655.5 251.2 450.1s153.3-365 236.9-365c92.7 0 236.8 159.7 236.8 365z" fill="#FFCC66" /><path d="M303.3 317.8c0.3-3.4-4.6-4.3-5.5-1-16.8 60.5-47.1 222.3 50.2 374.8 122.8 192.4 41.5-5.7 41.5-5.7s-107.8-88.5-86.2-368.1zM638 220.7c-0.9-3.3 3.8-5 5.3-1.9 27.2 56.6 85.8 210.4 17.1 377.7-86.7 211.1-41.9 1.8-41.9 1.8s90.4-106.4 19.5-377.6zM449.3 131c2.2-2.4-1-6-3.6-4-23.5 16.9-61.2 48.4-77.8 86-25.2 56.8 0.7 23.4 6.7 13.3 5-8.6 44-61 74.7-95.3zM473.5 133c0.5-2.5-2.8-3.7-4-1.5-14 26.3-47 90.9-46.1 113.7 1.1 28.9 12.4 8.5 15.8 5.1 2.8-2.9 27-84 34.3-117.3zM524.8 126.2c-2.2-2.4 1-6 3.6-4 23.5 16.9 61.2 48.4 77.8 86 25.2 56.8-0.7 23.4-6.7 13.3-5-8.6-44-61.1-74.7-95.3zM499.4 131.1c-0.5-2.5 2.8-3.7 4-1.5 14 26.3 47 90.9 46.1 113.7-1.1 28.9-12.4 8.5-15.8 5.1-2.9-2.8-27-84-34.3-117.3zM387.5 546c0.1-3.4 5-3.8 5.7-0.4 7.1 36.2 23.8 112 42.3 128.3 24.5 21.5-18.9 7.9-18.9 7.9s-21.8-46.8-26.9-90.5c-2.4-19.6-2.6-34.6-2.2-45.3zM470 301.8c0.8-1.6 3.2-0.7 2.7 1-5.3 21.3-16 70.5-13.1 109.4 2.1 28.4-18.2 1.5-8.2-50 6.1-31.1 13.6-50.2 18.6-60.4zM556.4 517.4c0.9-2.9 5.3-2.2 5.2 0.8-0.6 26.4-4.1 76.7-21.2 110.5-24.2 47.5-9.1-30.6-9.1-30.6l25.1-80.7z" fill="#FFE6A4" opacity=".38" /><path d="M411.2 475.2s3.1 55.1 32 52.6 24.3-58.1 24.3-58.1" fill="#DD2A00" /><path d="M421.5 471.1l6.7 30.3c0.2 1 1.1 1.7 2.1 1.7h5.1c1.2 0 2.1-1 2.1-2.1l0.5-22.4 2.3 23.7c0.3 0.9 1.2 1.5 2.1 1.5l6.9 0.1c1.1 0 2.9-1.8 3-2.9l2.2-34.4-19.6-4.6-13.4 9.1z" fill="#FFFFFF" /><path d="M410.4 477.7c-6.3 0-12.3-1.5-16.5-3.2-2.4-1-3.6-3.8-2.6-6.2 1-2.4 3.8-3.6 6.2-2.6 1 0.4 23.9 9.5 32.8-10 0.7-1.5 2-2.5 3.6-2.7 1.6-0.2 3.2 0.3 4.3 1.5 0.7 0.8 17.5 18.8 40.4 6.2 2.3-1.3 5.2-0.4 6.5 1.9s0.4 5.2-1.9 6.5c-19.8 10.9-37.6 3.8-47.3-3.8-6.6 9.4-16.4 12.4-25.5 12.4z"  /><path d="M442.7 507.7c-8.3 0-15.7 3.5-20.2 8.9 4.7 7.4 11.3 12.5 20.6 11.7 8.7-0.7 14.3-6.3 18-13.6-4.5-4.3-11.1-7-18.4-7z" fill="#FF6666" /><path d="M441.2 532.7c-6 0-11.4-2.1-16.1-6.2-16.5-14.3-18.6-49.5-18.7-51-0.1-2.6 1.9-4.9 4.5-5 2.6-0.1 4.9 1.9 5 4.5 0 0.3 2 32.7 15.5 44.4 3.3 2.9 7.1 4.1 11.4 3.8 23.5-2 20-52.5 20-53-0.2-2.6 1.7-4.9 4.4-5.1 2.6-0.2 4.9 1.7 5.1 4.4 0.2 2.5 4.6 60.4-28.6 63.3-0.9-0.2-1.7-0.1-2.5-0.1z"  /><path d="M352.4 368.1c-5.1-5.4-13.9-4.6-17.8 1.7-6.3 9.9-18.6 22.3-33.5 18.6-21.7-5.4-4.3-62.9 47.7-65 52-2.2 61.8 30.2 61.8 41.2 0 10.3-4.2 24.5-23.8 24.4-20.2-0.1-26.5-12.5-34.4-20.9z" fill="#FFFFFF" /><path d="M306.4 393.8c-2.2 0-4.4-0.3-6.5-0.8-8.9-2.2-13.8-10.9-12.5-22.7 2.1-20.5 22.5-50 61.2-51.7 23.1-1 40.9 4.4 52.9 16 10.2 9.8 13.9 22.3 13.8 30 0 6.4-1.4 15.3-7.9 21.8-4.9 4.9-11.8 7.4-20.4 7.4h-0.3c-18.9-0.1-27.2-10-33.9-18-1.3-1.6-2.5-3-3.8-4.4-1.4-1.5-3.4-2.2-5.4-2-2 0.2-3.8 1.3-4.9 3-2.4 3.8-7.5 10.8-14.9 15.8-5.7 3.7-11.5 5.6-17.4 5.6z m47.3-65.8c-1.6 0-3.2 0-4.8 0.1-19.3 0.8-49.3 15.1-52.1 43.1-0.3 3.3-0.5 11.1 5.4 12.5 3.6 0.9 16.3 2.4 28.3-16.5 2.7-4.2 7.1-6.9 12.1-7.4s9.8 1.3 13.3 5c1.4 1.5 2.8 3.2 4.1 4.7 6.3 7.5 12.2 14.5 26.7 14.6h0.2c6 0 10.6-1.6 13.7-4.6 4.4-4.4 5.1-11.3 5.1-15.1 0-4.7-2.3-14.8-10.9-23.1-9.3-8.8-23.1-13.3-41.1-13.3z"  /><path d="M353.3 339.2c0 4.7-4.2 10.2-9.4 10.2s-9.4-5.5-9.4-10.2 4.2-7.2 9.4-7.2 9.4 2.5 9.4 7.2z"  /><path d="M544.7 369c-5.1-5.4-13.9-4.6-17.8 1.7-6.3 9.9-18.6 25.1-33.5 21.4-21.7-5.4-4.3-62.9 47.7-65 52-2.2 61.8 30.2 61.8 41.2 0 10.3-4.2 24.5-23.8 24.4-20.2-0.2-26.5-15.3-34.4-23.7z" fill="#FFFFFF" /><path d="M579.2 397.4h-0.3c-18.2-0.1-26.8-11.3-33.1-19.5-1.6-2.1-3.1-4.1-4.6-5.7-1.4-1.5-3.4-2.2-5.4-2-2 0.2-3.8 1.3-4.9 3-11.7 18.4-25.4 26.8-38.7 23.5-8.9-2.2-13.8-10.9-12.5-22.7 2.1-20.5 22.5-50 61.2-51.7 23.1-1 40.9 4.4 52.9 16 10.2 9.8 13.9 22.3 13.8 30 0 6.4-1.4 15.3-7.9 21.8-5 4.8-11.9 7.3-20.5 7.3z m-31-31.7c1.8 1.9 3.5 4.1 5.2 6.4 5.9 7.7 12.1 15.7 25.6 15.8h0.2c6 0 10.6-1.6 13.7-4.6 4.4-4.4 5.1-11.3 5.1-15.1 0-4.7-2.3-14.8-10.9-23.1-10.1-9.7-25.5-14.2-45.9-13.3-19.3 0.8-49.3 15.1-52.1 43.1-0.3 3.3-0.5 11.1 5.4 12.5 12.1 3 22.9-10.8 28.3-19.3 2.7-4.2 7.1-6.9 12.1-7.4s9.8 1.4 13.3 5z"  /><path d="M552.2 340.4c0 4.7-4.2 10.2-9.4 10.2s-9.4-5.5-9.4-10.2c0-4.7 4.2-7.2 9.4-7.2s9.4 2.5 9.4 7.2zM388.4 293.1c-0.9 0-1.7-0.1-2.3-0.3-4.8-1.1-7.9-3.7-10.1-5.6-1.3-1.1-2.2-1.8-2.9-2-0.5 0.5-1.2 1.4-1.6 2-1.6 2.2-3.8 5.2-7.5 5.7-2.3 0.3-4.6-0.5-6.8-2.4-2.4-1.8-16.3-1.3-29.2 1.1-2.6 0.5-5.1-1.2-5.5-3.8-0.5-2.6 1.2-5.1 3.8-5.5 8.6-1.6 29.2-4.7 36.6 0.7 0.3-0.4 0.7-0.9 0.9-1.2 1.7-2.4 4.4-6 8.9-6 4.2 0 7.1 2.4 9.4 4.3 1.9 1.6 3.6 3 6.1 3.6 1.9 0.4 4.9-4.3 6-7.6 0.9-2.5 3.6-3.8 6.1-2.9 2.5 0.9 3.8 3.6 2.9 6.1-0.1 0.4-1.4 3.8-3.6 7.1-4 5.4-8.2 6.7-11.2 6.7z m-24.7-9.5zM520.8 298.5c-3 0-7.2-1.3-11.1-6.9-2.3-3.3-3.5-6.7-3.6-7.1-0.9-2.5 0.4-5.2 2.9-6.1 2.5-0.9 5.2 0.4 6.1 2.9 1.2 3.3 4.2 8 6 7.6 2.5-0.6 4.2-1.9 6.1-3.6 2.3-1.9 5.2-4.3 9.4-4.3 4.6 0 7.2 3.6 8.9 6l0.9 1.2c7.4-5.3 27.9-2.3 36.6-0.7 2.6 0.5 4.3 3 3.8 5.5-0.5 2.6-3 4.3-5.5 3.8-13-2.4-26.7-2.9-29.2-1.1-2.1 1.8-4.4 2.6-6.7 2.4-3.7-0.4-5.9-3.4-7.5-5.6-0.4-0.6-1.1-1.6-1.6-2-0.7 0.2-1.6 1-2.9 2-2.3 1.9-5.3 4.5-10.1 5.6-0.8 0.3-1.6 0.4-2.5 0.4z m24.7-9.5z"  /><path d="M293.5 437.5c10.1-8.1 34.1-12 55.4-10.3 24.1 1.9 38.3 11 36.2 20.8-0.8 3.7-3.4 7.4-8.7 10.4-8.8 4.9-24.5 7.2-39.3 6.8-20.7-0.6-40.3-6.5-46.1-14.6-3.6-4.8-2.2-9.3 2.5-13.1z" fill="#FF6666" /><path d="M320.8 450.7c-0.7 0-1.4-0.2-1.9-0.7-1.2-1.1-1.3-2.9-0.2-4 1.6-1.8 3.1-3.7 4.4-5.8 0.8-1.3 2.6-1.7 3.9-0.9 1.3 0.8 1.7 2.6 0.9 3.9-1.5 2.3-3.1 4.5-4.9 6.6-0.6 0.6-1.4 0.9-2.2 0.9zM332.6 455.6c-0.6 0-1.1-0.2-1.6-0.5-1.3-0.9-1.6-2.7-0.7-4 3.4-4.9 6.7-10.1 9.6-15.3 0.8-1.4 2.5-1.9 3.9-1.1 1.4 0.8 1.9 2.5 1.1 3.9-3 5.4-6.4 10.7-9.9 15.8-0.6 0.8-1.5 1.2-2.4 1.2zM350.6 451.2c-0.6 0-1.3-0.2-1.8-0.7-1.2-1-1.4-2.8-0.4-4 1.7-2 3.1-4.2 4.3-6.6 0.7-1.4 2.4-2 3.8-1.2 1.4 0.7 2 2.4 1.2 3.8-1.4 2.7-3.1 5.3-5 7.6-0.5 0.7-1.3 1.1-2.1 1.1z" fill="#FFFFFF" /><path d="M515.1 444.2c10.1-8.1 34.1-12 55.4-10.3 24.1 1.9 38.3 11 36.2 20.8-0.8 3.7-3.4 7.4-8.7 10.4-8.8 4.9-24.5 7.2-39.3 6.8-20.7-0.6-40.3-6.5-46.1-14.6-3.6-4.8-2.2-9.3 2.5-13.1z" fill="#FF6666" /><path d="M578.2 458.7c-0.8 0-1.6-0.3-2.1-1-1.8-2-3.5-4.2-4.9-6.6-0.8-1.3-0.4-3.1 0.9-3.9 1.3-0.8 3.1-0.4 3.9 0.9 1.3 2 2.7 4 4.4 5.8 1.1 1.2 1 3-0.2 4-0.6 0.5-1.3 0.8-2 0.8zM566.4 463.6c-0.9 0-1.8-0.4-2.3-1.2-3.5-5.1-6.9-10.4-9.9-15.8-0.8-1.4-0.3-3.1 1.1-3.9 1.4-0.8 3.1-0.3 3.9 1.1 3 5.2 6.2 10.4 9.6 15.3 0.9 1.3 0.6 3.1-0.7 4-0.5 0.3-1.1 0.5-1.7 0.5zM548.5 459.1c-0.8 0-1.6-0.4-2.2-1-1.9-2.3-3.6-4.9-5-7.6-0.7-1.4-0.2-3.1 1.2-3.8 1.4-0.7 3.1-0.2 3.8 1.2 1.2 2.3 2.7 4.6 4.3 6.6 1 1.2 0.8 3-0.4 4-0.4 0.4-1.1 0.6-1.7 0.6z" fill="#FFFFFF" /><path d="M494.1 68.1c-104.5 0-262.6 176.7-262.6 382 0 162.7 90.2 289 171.9 346.8 29.5 22.4 58 28.7 80.3 28.7 1.6 0 3.2-0.1 4.9-0.2 1.9 0.1 3.7 0.2 5.5 0.2 114.4 0 263-154.1 263-375.5 0-95.8-36.5-186.8-85.1-256.6-55.6-79.9-127.1-125.4-177.9-125.4z m-6 17c82.4 0 205.3 124.6 231.7 297.8 5.5 35.9 3.6 72.6-6.6 107.5-5.6 19-14 39-26.6 58.3-17.7 27.2-34.5-2.7-37.3-8.2-0.2-0.3-0.6-0.3-0.7 0.1-1.4 4.7-9.6 26.9-40.5 44.4-32.8 18.5-41-14.1-41.8-17.8 0-0.2-0.2-0.3-0.4-0.3-6.9 1.1-116.1 18.9-167.5 85.9-53.1 69.3-112.8-40.4-124.2-65-18.9-40.8-23-89-23-137.7 0-205.3 153.3-365 236.9-365z" fill="#DC9442" /><path d="M757.1 450.1c0-73.7-32.5-164-64.6-224.6 44.3 89.3 64 250.3 32.4 338.2-5.5 15.3-89.8 225.8-263.8 247.5-7.9 1-27.5 3.1-76.5-28.8 9.6 7.7 48.1 33.7 99 43.1 1.6 0.3 3.2-0.1 4.9-0.2 1.9 0.1 3.7 0.2 5.5 0.2 114.5 0.1 263.1-154 263.1-375.4z" fill="#BC7120" /><path d="M494.1 830.4c-1.5 0-3-0.1-4.5-0.1h-1.2c-0.5 0-54.2-4-87.8-29.5-45.4-32.2-87.3-80.3-117.9-135.6-36.6-66-55.9-140.4-55.9-215 0-49.4 9-99 26.6-147.4 15.8-43.3 38.8-85.4 66.5-121.6 53.7-70.3 120.4-114 174.3-114 26.7 0 58.6 11.2 89.7 31.6 33.7 22 65.5 53.9 92.1 92 55.5 79.7 86 171.8 86 259.3 0 102.1-31.8 199.3-89.6 273.6-25.4 32.7-55.3 59.8-86.4 78.4-31 18.5-62.8 28.3-91.9 28.3z m0-753.7c-24.7 0-53.2 10.2-82.5 29.4-29.6 19.5-58.7 47.4-84.2 80.8-27.1 35.5-49.6 76.7-65.1 119.1-17.3 47.4-26 95.8-26 144.1 0 73.1 18.9 145.8 54.7 210.4 30 54.1 70.9 101.1 115.2 132.4l0.1 0.1c28.1 21.3 74.5 27.3 82.5 27.6l1.3 0.1c1.4 0.1 2.8 0.1 4.1 0.1 27.4 0 57.4-9.3 86.9-26.9 30.1-17.9 59-44.2 83.7-76 56.5-72.7 87.6-167.8 87.6-267.8 0-85.6-29.9-175.8-84.3-253.9-25.9-37.2-56.8-68.1-89.5-89.5-29.6-19.3-59.6-30-84.5-30zM360.8 680.1c-1.5 0-3.1-0.1-4.6-0.3-18.1-2-36.9-15.5-56-40.3-17.1-22.2-28.2-45.4-30.3-49.8-20.8-44.8-23.5-98.2-23.5-139.7 0-125.3 55.2-218.2 88-262.4C383 122.5 443.3 80.3 488.1 80.3c42.9 0 95.5 32 140.5 85.6 49.6 59.1 83.7 135.9 96 216.2 5.8 37.8 3.5 74.7-6.8 109.5-6.4 21.7-15.5 41.8-27.1 59.6-6.1 9.3-12.9 13.8-20.4 13.4-8.9-0.5-15.9-7.8-20.5-14.4-5 9.8-16.1 25.7-39.2 38.7-11.7 6.6-22.1 8-30.8 4.1-10.1-4.5-14.9-14.9-16.9-21-20.5 3.7-114.8 23.7-160.6 83.5-12.6 16.4-26.5 24.6-41.5 24.6zM488.1 89.8c-19.8 0-43.9 9.4-69.5 27.3-26.7 18.6-53.1 45-76.4 76.3-32.3 43.3-86.2 134.2-86.2 256.7 0 77.1 12.1 113 22.6 135.7 12.9 27.7 45.8 81 78.7 84.6 13.3 1.5 25.9-5.5 37.4-20.6 22-28.7 56.5-52 102.6-69.3 35.1-13.2 64.7-18 68-18.5 2.7-0.4 5.2 1.3 5.8 4 0.3 1.5 3.4 14.3 12.6 18.4 5.8 2.6 13.3 1.3 22.2-3.7 29.4-16.6 37-37.6 38.3-41.6 0.6-2 2.4-3.4 4.4-3.6 2.1-0.2 4.1 0.9 5 2.8 4.2 8.2 11.1 16.6 17.2 16.9 3.9 0.2 7.9-2.9 11.9-9.1 11.1-17 19.8-36.2 26-57 9.9-33.5 12-69 6.5-105.4-12-78.6-45.3-153.8-93.8-211.5-43.4-51.6-93.2-82.4-133.3-82.4z m78.6 481.7z"  /><path d="M233.8 333.6c-29.6 0-58-10.3-82.9-30.4-23.3-18.7-35.3-39-35.8-39.9-1.3-2.3-0.6-5.2 1.7-6.5 2.3-1.3 5.2-0.6 6.5 1.7 0.1 0.2 11.8 19.9 33.8 37.5 29.2 23.3 61.7 32.2 96.8 26.4 2.6-0.4 5 1.3 5.5 3.9 0.4 2.6-1.3 5-3.9 5.5-7.3 1.2-14.6 1.8-21.7 1.8zM899.7 561c-2.6 0-4.8-2.1-4.8-4.8 0-21.6-8.1-41.1-24.1-57.8-13-13.7-31.3-25.6-54.3-35.5-39.6-17.1-79.9-22.1-80.3-22.1-2.6-0.3-4.5-2.7-4.2-5.3 0.3-2.6 2.7-4.5 5.3-4.2 1.7 0.2 41.9 5.2 82.7 22.8 24.2 10.4 43.6 23.1 57.6 37.7 17.8 18.6 26.8 40.3 26.8 64.5 0 2.6-2.1 4.7-4.7 4.7zM699.8 921.8c-0.4 0-0.8-0.1-1.2-0.2-2.5-0.7-4.1-3.3-3.4-5.8 2.1-7.9 10.4-9.7 17.8-11.4 8.7-2 14.6-3.7 16.8-9.3 0.8-2 1.6-10-1.3-25.5-2-11-6.4-28.5-15.8-50-18.8-42.9-48.4-81.7-85.6-112l-28.4-23.2c-2-1.7-2.3-4.7-0.7-6.7 1.7-2 4.7-2.3 6.7-0.7l28.4 23.2c38.4 31.3 68.9 71.3 88.3 115.6 16.2 37 21.6 71.8 17.2 82.8-4.2 10.8-14.9 13.2-23.5 15.1-4.9 1.1-10.1 2.3-10.7 4.6a4.8 4.8 0 0 1-4.6 3.5zM305.3 842.1c-1.7 0-3.3-0.9-4.1-2.4-1.3-2.3-0.5-5.2 1.8-6.5 0.4-0.3 12-7.6 4.8-28.5-3.6-10.4-34.2-32-58.9-49.3-39-27.4-56-40.5-55.9-50.7 0-2.9 1.4-5.4 4-7.1 46.8-31.1 169.4 19.6 174.6 21.8 2.4 1 3.6 3.8 2.6 6.2-1 2.4-3.8 3.6-6.2 2.6-0.3-0.1-31.4-13.1-67.5-22.2-46.5-11.7-80.3-12-97.7-0.7 0.5 1.4 2.9 5.6 15.1 15.5 9.9 8 22.9 17.2 36.7 26.8 35 24.6 58.2 41.7 62.4 54 9.8 28.7-8.3 39.4-9.1 39.9-1 0.4-1.8 0.6-2.6 0.6z"  /></svg>