<?xml version="1.0" standalone="no"?><!DOCTYPE svg PUBLIC "-//W3C//DTD SVG 1.1//EN" "http://www.w3.org/Graphics/SVG/1.1/DTD/svg11.dtd"><svg class="icon" width="200px" height="200.00px" viewBox="0 0 1024 1024" version="1.1" xmlns="http://www.w3.org/2000/svg"><path d="M734.5 489c0 63-20.2 95.5-36 142.2-16.9 49.7-30.3 112.4-60.3 140.8-34.9 33-76.9 50.7-122.2 50.7-43.6 0-67.6-23.1-101.7-53.9-22.2-20-58.2-39.3-73.9-70.8-14.7-29.6-10-72.3-33.4-102.6-20.3-26.3-9.4-68-9.4-106.3 0-31.5 2.3-63.1 6.4-94 4.7-34 32.6-65.3 41.8-96.7 9.3-32-0.3-64.2 12.9-91.5C398.3 124.8 454.1 69.1 516 69.1c14.1 0 27.9 2.9 41.2 8.3 14.4 5.9 21.2 31.1 34.5 42.4 11 9.4 28.6 4.2 38.6 16.9 13.2 16.7 25.4 35.9 36.6 57.2 12.7 24.3 24 51.3 33.5 80.1 9.5 28.8 2 76.5 7.6 108.1 7.3 40.2 26.5 65 26.5 106.9z" fill="#D2C11C" /><path d="M515.9 827.2c-43.8 0-69.1-22.9-101.1-51.8l-3.6-3.2c-6.3-5.7-13.7-11.3-21.6-17.2-19.6-14.8-41.8-31.6-53.4-55-6.4-12.9-9.2-27.7-12.1-43.3-3.9-20.6-7.9-41.8-20.8-58.6-16.1-20.8-13.9-50.4-11.8-79 0.7-9.9 1.5-20.2 1.5-30.1 0-30.9 2.2-62.7 6.5-94.6 2.8-20.1 13.2-39.1 23.3-57.4 7.6-13.8 14.8-26.9 18.6-40 4.1-13.9 4.4-28.2 4.7-41.9 0.4-17.7 0.8-34.4 8.5-50.2 20.8-42.9 44.8-76.9 71.5-101.1 28.7-26.1 59-39.3 90.1-39.3 14.4 0 28.9 2.9 42.9 8.7 9.5 3.9 15.8 14.2 21.8 24.3 4.3 7.1 8.7 14.4 13.9 18.8 4.1 3.5 9.7 4.6 15.6 5.8 8 1.6 17.1 3.4 23.7 11.7 13 16.4 25.5 35.9 37.1 57.8 12.9 24.6 24.2 51.8 33.8 80.8 5.6 16.9 5.5 39.8 5.5 61.9 0 16.4-0.1 33.4 2.3 46.8 2.9 16.1 7.8 29.9 12.5 43.2 7.2 20.1 13.9 39.1 13.9 64.6 0 48.9-12 79.7-24.6 112.3-3.9 10-7.9 20.3-11.6 31.3-3.6 10.6-7 21.7-10.6 33.3-13 42.4-26.5 86.2-50.9 109.3-36.2 34.2-79.5 52.1-125.6 52.1z m0.1-753.6c-28.7 0-57 12.4-84 36.9-25.4 23.1-49.4 57.1-69.4 98.3-6.8 14.1-7.2 29.8-7.6 46.5-0.3 14.4-0.7 29.2-5.1 44.3-4.1 14.1-11.9 28.2-19.4 41.9-9.7 17.6-19.7 35.7-22.2 54.2-4.3 31.5-6.4 62.9-6.4 93.3 0 10.2-0.8 20.6-1.5 30.7-2 28.1-4 54.7 10 72.8 14.3 18.5 18.5 40.8 22.6 62.4 2.8 15 5.5 29.1 11.3 40.9 10.7 21.5 32 37.6 50.7 51.8 8 6.1 15.6 11.8 22.2 17.7l3.6 3.2c31.8 28.7 54.8 49.5 95.1 49.5 43.7 0 84.9-17.1 119.1-49.5 22.7-21.5 35.8-64.1 48.5-105.4 3.4-11.2 7-22.8 10.6-33.6 3.8-11.2 7.8-21.6 11.7-31.7 12.4-31.8 24-61.9 24-109 0-24-6.5-42.2-13.4-61.6-4.9-13.7-9.9-27.8-12.9-44.7-2.5-14.2-2.5-31.6-2.5-48.4 0.1-21.4 0.1-43.5-5-59-9.4-28.5-20.6-55.2-33.3-79.4-11.3-21.5-23.5-40.5-36.1-56.4-4.5-5.7-10.9-7-18.3-8.5-6.8-1.4-13.8-2.8-19.7-7.8-6.3-5.4-11.1-13.3-15.8-21-5.5-9.2-10.8-17.8-17.5-20.6-12.8-5.1-26.1-7.8-39.3-7.8z"  /><path d="M688.3 485c0 60.7-17.8 92.1-31.8 137.1-14.9 47.9-26.7 108.5-53.1 135.8-30.8 31.9-53.1 59.2-92.9 59.2-38.4 0-74.2-32.6-104.3-62.3-19.5-19.2-51.3-37.9-65.1-68.4-12.9-28.5-8.8-69.8-29.5-99-18-25.4-8.3-65.6-8.3-102.5 0-30.4 2-60.8 5.7-90.7 4.1-32.7 34.2-63 42.2-93.3 8.1-31-0.2-61.9 11.4-88.2 35-79.3 92.4-138 146.8-138 12.4 0 16.4 6.5 28.2 11.8 12.7 5.7 13.2 31.3 24.8 42.2 9.7 9.1 25.1 4 33.9 16.3 11.6 16.1 22.4 34.6 32.2 55.2 11.2 23.5 21.1 49.5 29.5 77.3 8.3 27.8 1.8 73.8 6.7 104.3 6.7 38.9 23.6 62.9 23.6 103.2z" fill="#EDD232" /><path d="M637.2 485c0 60.7-13.2 92.1-23.5 137.1-11 47.9-19.7 108.5-39.4 135.8-22.7 31.9-24.1 58.6-53.7 58.6-28.5 0-70.2-32-92.4-61.6-14.5-19.2-38-37.9-48.2-68.4-9.6-28.5-6.5-69.8-21.8-99-13.3-25.4-6.2-65.6-6.2-102.5 0-30.4 1.5-60.8 4.3-90.7 3.1-32.7 25.3-63 31.3-93.3 6.1-31-0.2-61.9 8.4-88.2 25.9-79.3 58.3-133 98.6-133 9.2 0 18.2 2.8 26.9 8 9.3 5.7 13.9 30 22.5 40.9 7.1 9.1 18.7 4 25.2 16.3 8.6 16.1 16.6 34.6 23.9 55.2 8.3 23.5 15.7 49.5 21.8 77.3 6.3 27.8 1.3 73.8 5.1 104.3 4.7 38.9 17.2 62.9 17.2 103.2z" fill="#F4D84E" /><path d="M590.2 485c0 60.7-8.8 92.1-15.7 137.1-7.3 47.9-13.2 108.5-26.3 135.8-15.2 31.9-7.7 58.6-27.5 58.6-19 0-55.3-32-70.1-61.6-9.7-19.2-25.4-37.9-32.2-68.4-6.4-28.5-4.4-69.8-14.6-99-8.8-25.4-4.2-65.6-4.2-102.5 0-30.4 1-60.8 2.8-90.7 2-32.7 17-63 20.9-93.3 4.1-31-0.1-61.9 5.7-88.2 17.4-79.3 39-133 65.9-133 6.2 0 12.1 2.8 18 8 6.3 5.7 9.2 30 15.1 40.9 4.8 9.1 12.4 4 16.8 16.3 5.8 16.1 11.1 34.6 16 55.2 5.6 23.5 10.4 49.5 14.6 77.3s0.9 73.8 3.4 104.3c3 38.9 11.4 62.9 11.4 103.2z" fill="#F9E075" /><path d="M524.3 485c0 60.7-2.9 92.1-5.2 137.1-2.4 47.9-4.4 108.5-8.6 135.8-5 31.9 16.7 58.6 10.2 58.6-6.3 0-37.3-32-42.2-61.6-3.2-19.2-8.3-37.9-10.6-68.4-2.1-28.5-1.4-69.8-4.8-99-2.9-25.4-1.4-65.6-1.4-102.5 0-30.4 0.3-60.8 0.9-90.7 0.7-32.7 5.6-63 6.8-93.3 1.3-31 0-61.9 1.9-88.2 5.7-79.3 29.3-138 38.1-138 2 0-3.8 8.8-1.8 14.1 2.1 5.7-5.8 29-3.8 39.9 1.6 9.1 4.1 4 5.6 16.3 1.9 16.1 3.7 34.6 5.3 55.2 1.8 23.5 3.5 49.5 4.8 77.3 1.3 27.8 0.3 73.8 1.1 104.3 0.9 38.8 3.7 62.8 3.7 103.1z" fill="#F9E48F" /><path d="M186.5 538.8c-46.9 0-83-33.9-84.6-35.5-1.8-1.7-1.9-4.6-0.2-6.4 1.7-1.8 4.6-1.9 6.4-0.2 0.4 0.4 43.4 40.6 93.5 31.6 35.9-6.4 67.1-36 92.7-88 1.1-2.2 3.8-3.2 6.1-2.1 2.2 1.1 3.2 3.8 2.1 6.1-27 54.8-60.4 86-99.3 92.9-5.7 1.1-11.3 1.6-16.7 1.6zM869.9 548.2c-2.2 0-4.1-1.6-4.5-3.8-8.5-54.3-31-92.4-66.6-113.2-34.1-19.9-74.6-20.3-102.5-17.1-30.6 3.5-53.3 11.9-53.5 12-2.3 0.9-5-0.3-5.8-2.6-0.9-2.3 0.3-4.9 2.6-5.8 1-0.4 23.8-8.8 55.4-12.5 29.4-3.4 72-3 108.3 18.2 38.2 22.2 62.1 62.5 71 119.7 0.4 2.5-1.3 4.8-3.8 5.2-0.1-0.1-0.4-0.1-0.6-0.1zM589.3 958.9c-1.2 0-2.4-0.5-3.3-1.5-26.9-29.4-39.8-62-38.1-96.8 1.7-35.9 18.8-67.4 32.8-87.6 15.1-21.8 29.7-35 30.3-35.5 1.9-1.7 4.7-1.5 6.4 0.3 1.7 1.9 1.5 4.7-0.3 6.4-0.6 0.5-57 52.3-60.1 116.9-1.5 32.3 10.5 62.6 35.8 90.2 1.7 1.8 1.6 4.7-0.3 6.4-1 0.8-2.1 1.2-3.2 1.2zM443.6 926.2c-1 0-2.1-0.4-2.9-1.1-31.5-26.9-47.2-54.7-46.9-82.8 0.5-36.6 28.2-59.5 29.4-60.4 1.9-1.6 4.8-1.3 6.4 0.7 1.6 1.9 1.3 4.8-0.7 6.4-0.4 0.4-25.7 21.4-26.1 53.6-0.3 25.2 14.4 50.7 43.7 75.7 1.9 1.6 2.1 4.5 0.5 6.4-0.8 1-2.1 1.5-3.4 1.5z"  /><path d="M426.7 358.4s-0.1 0 0 0c-2.6 0-4.6-2.1-4.5-4.6 0.2-14.8-11.7-27-26.5-27.3h-0.3c-14.6 0-26.7 11.8-26.9 26.5 0 2.5-2.1 4.4-4.5 4.4h-0.1c-2.5 0-4.5-2.1-4.4-4.6 0.3-19.6 16.5-35.4 36-35.4h0.4c19.8 0.3 35.7 16.7 35.4 36.4-0.1 2.6-2.1 4.6-4.6 4.6zM540.7 360.2c-2.6 0-4.6-2.1-4.5-4.6 0.2-14.8-11.7-27-26.5-27.3h-0.3c-14.6 0-26.7 11.8-26.9 26.5 0 2.5-2.1 4.4-4.5 4.4h-0.1c-2.5 0-4.5-2.1-4.4-4.6 0.3-19.6 16.5-35.4 36-35.4h0.4c19.8 0.3 35.7 16.7 35.4 36.4-0.1 2.6-2.1 4.6-4.6 4.6zM446.4 450.4h-0.4c-19.8-0.3-35.7-16.7-35.4-36.4 0-2.5 2.1-4.5 4.5-4.5h0.1c2.5 0 4.5 2.1 4.5 4.6-0.2 14.8 11.7 27 26.5 27.3 14.8 0.2 27-11.7 27.2-26.5 0-2.5 2.1-4.4 4.5-4.4h0.1c2.5 0 4.5 2.1 4.4 4.6-0.3 19.5-16.4 35.3-36 35.3z" opacity=".8" /><path d="MNaN NaNaNaN NaN NaN 1 0 NaN NaN NaN NaN NaN 1 0 NaN NaNZ" fill="#FF6666" opacity=".8" /><path d="M553.1 418h-0.6c-15.9-0.2-28.7-9.7-28.6-21 0.2-11.2 12.9-20.1 28.6-20.1h0.6c15.9 0.2 28.7 9.7 28.6 21-0.2 11.1-13 20.1-28.6 20.1z m-28.3-21c-0.2 10.8 12.3 19.9 27.7 20.1 15.4 0.3 28.1-8.4 28.3-19.2 0.2-10.8-12.3-19.9-27.7-20.1h-0.6c-15.2-0.1-27.6 8.5-27.7 19.2z" opacity=".8" /><path d="MNaN NaNaNaN NaN NaN 1 0 NaN NaN NaN NaN NaN 1 0 NaN NaNZ" fill="#FF6666" opacity=".8" /><path d="M356.6 418h-0.6c-7.7-0.1-14.9-2.4-20.3-6.3-5.4-4-8.4-9.2-8.3-14.7 0.1-5.5 3.2-10.7 8.7-14.5 5.5-3.8 12.7-5.8 20.5-5.7 7.7 0.1 14.9 2.4 20.3 6.3 5.4 4 8.4 9.2 8.3 14.7-0.1 5.5-3.2 10.7-8.7 14.5-5.4 3.7-12.4 5.7-19.9 5.7z m-0.6-40.3c-7.3 0-14.1 1.9-19.3 5.5-5.3 3.6-8.3 8.5-8.3 13.7-0.1 5.2 2.7 10.2 7.9 14 5.2 3.8 12.3 6 19.8 6.1 7.5 0.1 14.6-1.8 19.9-5.5 5.3-3.6 8.3-8.5 8.3-13.7 0.1-5.2-2.7-10.2-7.9-14-5.2-3.8-12.3-6-19.8-6.1h-0.6z" opacity=".8" /></svg>