<?xml version="1.0" standalone="no"?><!DOCTYPE svg PUBLIC "-//W3C//DTD SVG 1.1//EN" "http://www.w3.org/Graphics/SVG/1.1/DTD/svg11.dtd"><svg class="icon" width="200px" height="200.00px" viewBox="0 0 1024 1024" version="1.1" xmlns="http://www.w3.org/2000/svg"><path d="M719.6 452c0 215.3 0.2 389.7-197.2 389.8-178.7 0.1-171.5-174.5-171.5-389.8S444.3 62.2 522.4 62.2c70.8 0 197.2 174.5 197.2 389.8z" fill="#F4D9B3" /><path d="M522.4 62.2H521c-2 0.1-4.1 0.2-6.5 0.6C438.2 74 350.9 243.9 350.9 452c0 195.9-5.9 358.2 127.8 385.7 15.8 1.1 30.5 4.8 47.7 4.1-51.3-1-186-35.4-171.8-335.8C358.5 75.6 522.4 62.2 522.4 62.2z" fill="#575651" /><path d="M672.1 455.8c0 191.3 0.2 346.3-149.6 346.3-135.6 0.1-149.6-155.1-149.6-346.3s90.4-346.3 149.6-346.3c53.7 0 149.6 155.1 149.6 346.3z" fill="#FFF9E1" /><path d="M522.4 841.8c197.4-0.1 197.2-174.5 197.2-389.8 0-130.3-46.3-245.6-98.5-316.4-38.3-47.1-77.1-73.4-98.7-73.4 0 0 123.9 142.7 106.2 428.2-13.9 222.7-106.2 351.4-106.2 351.4z" fill="#FCEAD4" /><path d="M522.4 841.8c197.4-0.1 197.2-174.5 197.2-389.8 0-130.3-46.3-245.6-98.5-316.4-38.3-47.1-77.1-73.4-98.7-73.4 0 0 176.6 116.1 161.5 430C669 802.8 522.4 841.8 522.4 841.8z" fill="#494A48" /><path d="M478.6 924.5c-0.4 0-0.8 0-1.1-0.2-46.3-12.4-73.7-31.9-81.4-57.9-4.3-14.5-2.2-31.1 6.1-48 6.2-12.5 13.5-20.7 13.8-21.1 1.6-1.8 4.4-2 6.3-0.3 1.8 1.6 2 4.4 0.3 6.3-0.2 0.2-7 7.9-12.6 19.3-7.3 15-9.1 28.9-5.4 41.4 6.8 22.9 32.1 40.3 75.2 51.8 2.4 0.6 3.8 3.1 3.1 5.4-0.5 2-2.3 3.3-4.3 3.3zM621.2 959.3c-0.7 0-1.3-0.1-2-0.5-29.7-14.8-47.8-35.6-53.8-62-5.4-23.6-0.7-52.1 13.5-82.3 10.6-22.6 22.6-38.1 23.1-38.7 1.5-1.9 4.3-2.3 6.2-0.8 1.9 1.5 2.3 4.3 0.8 6.2-0.5 0.6-46.9 61-34.9 113.7 5.4 23.7 21.9 42.5 49.1 56 2.2 1.1 3.1 3.8 2 6-0.8 1.5-2.4 2.4-4 2.4zM298.6 476.1c-3.9 0-7.8-0.1-11.8-0.4-39.7-2.8-70.3-19.8-91.1-50.7-1.4-2-0.8-4.8 1.2-6.2 2-1.4 4.8-0.8 6.2 1.2 45 66.9 127.7 45.7 158.8 37.7 8.6-2.2 11.2-2.8 13.4-2.2 2.4 0.7 3.7 3.1 3.1 5.5-0.6 2.2-2.8 3.5-5 3.2-1.3 0.1-5.3 1.1-9.3 2.1-13.9 3.5-38.2 9.8-65.5 9.8z m74.2-12.1zM829.5 497.9c-1.7 0-3.3-1-4-2.6-33.3-73.4-118.3-66.3-150.3-63.6-8.8 0.7-11.5 0.9-13.5 0-2.2-1-3.2-3.7-2.1-5.9 1-2.1 3.3-3 5.4-2.3 1.3 0.1 5.5-0.2 9.5-0.6 16.3-1.4 46.6-3.9 77.7 3.6 38.7 9.3 66 31.3 81.4 65.2 1 2.2 0 4.9-2.2 5.9-0.7 0.1-1.3 0.3-1.9 0.3z m-164.1-74.3z m-0.6-0.2z"  /><path d="M561.9 333.9c-1 0-2.1-0.4-2.9-1.1l-19.8-17.1c-1.8-1.6-2.1-4.4-0.5-6.2l17.5-20.6c1.6-1.9 4.4-2.1 6.3-0.5 1.9 1.6 2.1 4.4 0.5 6.3L548.4 312l16.4 14.2c1.9 1.6 2.1 4.4 0.5 6.3-1 0.9-2.2 1.4-3.4 1.4zM461.2 333.9c-1.2 0-2.5-0.5-3.4-1.5-1.6-1.9-1.4-4.7 0.5-6.3l16.4-14.2-14.6-17.3c-1.6-1.9-1.4-4.7 0.5-6.3 1.9-1.6 4.7-1.4 6.3 0.5l17.5 20.6c1.6 1.9 1.4 4.6-0.5 6.2l-19.8 17.1c-0.8 0.9-1.9 1.2-2.9 1.2z" fill="#000333" /><path d="M552.9 360.4a27.3 15.1 0 1 0 54.6 0 27.3 15.1 0 1 0-54.6 0Z" fill="#FF6666" opacity=".8" /><path d="M414.9 358.6a27.3 15.1 0 1 0 54.6 0 27.3 15.1 0 1 0-54.6 0Z" fill="#FF6666" opacity=".8" /><path d="M522.6 406.5h-0.9c-4.8-0.4-9.2-3.8-13-10.1-0.3-0.5-0.6-1-0.8-1.5-6.2 6.8-11.9 9.5-17.3 8.2-9-2.1-11.4-14.6-11.6-16-0.4-2.4 1.2-4.7 3.6-5.1 2.4-0.4 4.7 1.2 5.1 3.6 0.6 3.4 2.6 8.3 4.9 8.9 0.7 0.2 4.6 0.4 12.7-10.5 1-1.3 2.6-2 4.2-1.7 1.6 0.3 3 1.4 3.5 2.9 1.8 5.1 5.9 12.3 9.2 12.5 1.8 0.2 4.9-2.3 8.7-9.5 1.1-2.2 3.8-3 6-1.9s3 3.8 1.9 6c-4.9 9.5-10.2 14.2-16.2 14.2z" fill="#000333" /></svg>