<?xml version="1.0" standalone="no"?><!DOCTYPE svg PUBLIC "-//W3C//DTD SVG 1.1//EN" "http://www.w3.org/Graphics/SVG/1.1/DTD/svg11.dtd"><svg class="icon" width="200px" height="200.00px" viewBox="0 0 1024 1024" version="1.1" xmlns="http://www.w3.org/2000/svg"><path d="M777.1 464.5c-1.2 48.7-6.9 94-17.4 134.5-10.8 42.1-26.8 79.1-48 110-15.4 22.4-33.7 41.4-54.8 56.6-22.9 16.4-49 28.4-78.8 35.2-21.3 4.9-40.2-12.5-65.1-13.1-18.8-0.5-40.6 16.9-57 13-35.7-8.5-65.9-24.8-91-47.5-22-19.8-21.8-47-36.2-75.5-16.3-32.2-46.2-67-53.6-107.5-4.8-26.4 9.8-62.8 8.4-91.8-0.9-18.1-18.7-28.2-18.3-46.9 0.6-22.6-10.9-51.6 4.3-66.1 21.5-20.4 4.7-36.4 8.2-53.8 3.5-17.8 7.8-34.9 12.9-51.3 6.9-22.3 25.2-26.6 35-45.8 12-23.6 16.1-61.1 32.7-79 10.8-11.7 22.6-22 35.5-30.9 12.5-8.6 25.9-15.9 40.4-21.6 14.4-5.7 30-9.9 46.4-12.6 14.5-2.3 29.8-3.2 45.9-2.8 17.4 0.4 33.8 2.6 49.3 6.4 15.4 3.7 30 9.1 43.6 15.9 15.4 7.7 26.5 37.4 39.6 48.5 21.6 18.5 43.1 21.1 58.5 47.4 13.6 23.4 9.8 57.8 33.8 77.6 29.6 24.4 19.5 78.4 23.2 121.1 2.4 25.9 3.2 52.8 2.5 80z" fill="#DD1B1B" /><path d="M570.5 805.9c-9.7 0-19-3.4-28.1-6.7-9.3-3.4-18.9-6.9-29.4-7.2-7.9-0.2-16.9 3.3-25.6 6.7-10.9 4.2-22.2 8.6-32.3 6.2-35.3-8.4-66.6-24.8-92.9-48.5-14.8-13.3-20.1-29.7-25.7-46.9-3.1-9.7-6.4-19.7-11.5-29.9-5.1-10-11.4-20.2-18.1-31-15.1-24.2-30.6-49.1-35.9-77.7-2.8-15.2 0.5-33.4 3.7-51 2.6-14.2 5.2-28.8 4.6-41.4-0.4-7.5-4.3-13.7-8.4-20.3-4.9-7.8-10.1-15.9-9.8-27 0.2-6.7-0.8-14.3-1.8-21.7-2.3-17.7-4.6-35.9 7.4-47.4 12.4-11.7 10.4-21.2 8.1-32.1-1.3-6.2-2.6-12.6-1.3-19.4 3.7-18.7 8-35.6 13-51.7 4.2-13.5 12.1-20.9 19.9-28.1 5.9-5.4 11.4-10.6 15.4-18.4 4.6-9 7.9-20.1 11.5-31.8 5.5-18 11.2-36.6 21.9-48.2 11-11.9 23.2-22.5 36.2-31.5 12.9-8.9 26.8-16.4 41.2-22.1C447.4 73 463.3 68.7 480 66c14.9-2.3 30.6-3.3 46.7-2.9 17.4 0.4 34.3 2.6 50.2 6.5 15.3 3.7 30.2 9.2 44.5 16.2 9.9 4.9 17.6 17 25.1 28.7 5.3 8.3 10.3 16.1 15.4 20.4 7.6 6.5 15.3 11.1 22.8 15.4 13.5 8 26.3 15.5 36.7 33.1 5.7 9.7 8.5 21.1 11.2 32.2 4.2 17.1 8.1 33.2 21.6 44.3 23.6 19.4 23.7 55.3 23.8 90 0 11.4 0.1 23.3 1 34.1 2.5 25.3 3.4 52.5 2.7 80.6-1.2 49.7-7.1 95.3-17.5 135.5-11 43-27.4 80.5-48.6 111.4-15.9 23.1-34.7 42.5-55.8 57.6-23.8 17.1-50.9 29.2-80.3 35.9-3.3 0.6-6.2 0.9-9 0.9z m-58.2-22.6h0.9c12 0.3 22.2 4.1 32.2 7.7 11.5 4.2 21.4 7.9 31.8 5.5 28.3-6.5 54.3-18 77.2-34.5 20.3-14.6 38.4-33.2 53.7-55.5 20.7-30.1 36.6-66.6 47.4-108.6 10.3-39.6 16.1-84.5 17.2-133.6 0.7-27.8-0.2-54.5-2.6-79.6-1-11.2-1-23.2-1-34.8-0.1-32.7-0.2-66.5-20.6-83.3-15.7-12.9-20.2-31.2-24.5-48.9-2.7-10.9-5.2-21.2-10.2-29.8-9.2-15.7-20.5-22.3-33.6-30-7.8-4.6-15.8-9.3-24-16.3-6.1-5.2-11.4-13.5-17.1-22.4-6.8-10.7-13.9-21.7-21.6-25.6-13.7-6.8-28-12-42.7-15.6-15.3-3.8-31.6-5.9-48.4-6.3-15.5-0.4-30.7 0.6-45.1 2.8-16 2.6-31.3 6.7-45.5 12.3-13.8 5.5-27.1 12.6-39.5 21.1-12.4 8.6-24.1 18.8-34.7 30.3-9.3 10.1-14.7 27.7-19.9 44.8-3.5 11.6-7.2 23.5-12.1 33.2-4.7 9.2-11 15.1-17.2 20.8-7.2 6.7-14 13-17.5 24.3-4.9 15.8-9.1 32.4-12.8 50.8-1 5.1 0.1 10.4 1.2 15.9 2.4 11.8 5.2 25.1-10.7 40.2-8.9 8.5-6.9 23.8-4.8 40 1 7.7 2 15.6 1.8 23-0.2 8.4 4 15 8.5 22.1 4.6 7.2 9.3 14.7 9.8 24.5 0.6 13.7-2.1 28.8-4.8 43.4-3.1 16.8-6.2 34.2-3.7 47.8 5 27 20.1 51.2 34.7 74.7 6.8 11 13.3 21.3 18.5 31.6 5.4 10.7 8.8 21.1 12 31.1 5.4 16.8 10.2 31.3 23.2 43.1 25.2 22.8 55.2 38.4 89.1 46.5 7.5 1.8 17-1.9 27.1-5.8 9.5-3.2 19-6.9 28.3-6.9z"  /><path d="M723.3 461.3c-1.2 47.3-6.2 91.2-15.3 130.6-9.4 40.9-23.2 76.9-41.5 106.8-13.4 21.7-29.1 40.3-47.2 55.1-19.6 16-26.9 22.9-52.4 29.7-18.4 4.8-49.8-7.3-71.2-7.8-16.1-0.4-34.9 16.5-48.9 12.8-30.6-8.2-56.6-24-78-45.9-18.9-19.2-18.6-45.6-30.9-73.2-13.9-31.2-39.5-64.8-45.8-104.2-4.1-25.6 8.5-61 7.6-89.1-0.7-17.6-16-27.3-15.5-45.6 0.5-21.9-9.2-50 3.9-64.1 18.6-19.8 4.2-35.4 7.2-52.2 3-17.3 6.8-33.9 11.2-49.8 5.9-21.6 21.7-25.9 30.1-44.5 10.3-22.9 14-59.3 28.3-76.7 9.3-11.4 19.5-21.4 30.5-30.1 10.7-8.4 22.3-15.5 34.8-21.1s25.7-9.7 39.9-12.3c12.5-2.3 25.6-3.2 39.4-2.8 14.9 0.4 29 2.5 42.3 6 13.4 3.5 25.7 8.7 37.4 15.3 13.2 7.4 22.7 36.2 33.9 46.9 18.6 17.9 37 20.4 50.1 45.9 11.7 22.7 8.2 56.1 28.8 75.1 25.3 23.6 16.5 76 19.6 117.4 1.7 25.5 2.3 51.5 1.7 77.8z" fill="#9E1818" /><path d="M684 460.2c-1.1 45.5-5.6 87.7-13.5 125.7-8.2 39.4-20.2 74-36 102.8-11.6 20.9-25.1 38.8-40.9 53.1-17 15.4-36.4 26.7-58.5 33.2-15.8 4.7-29.8-11.5-48.2-11.9-13.9-0.3-30.1 16-42.2 12.4-26.4-7.8-48.7-22.9-67.2-44-16.2-18.5-15.9-43.8-26.5-70.3-11.9-30-33.9-62.3-39.2-100.2-3.4-24.6 7.6-58.6 6.7-85.7-0.5-16.9-13.7-26.2-13.3-43.8 0.5-21.1-7.9-48.1 3.5-61.7 16-19.1 3.7-34 6.3-50.2 2.7-16.6 5.9-32.6 9.7-47.9 5.2-20.8 18.8-24.9 26.1-42.9 9-22 12.2-57.1 24.6-73.8 8.1-10.9 16.9-20.6 26.4-29.1 9.2-8.2 19.2-14.9 30-20.3 10.7-5.4 22.2-9.4 34.5-11.9 10.7-2.2 22.1-3.1 34-2.8 12.9 0.3 25 2.3 36.4 5.7 11.4 3.4 22.2 8.3 32.2 14.6 11.4 7.1 19.5 34.8 29.1 45.1 15.9 17.1 31.8 19.5 43.1 44 10 21.8 7 53.9 24.6 72.2 21.8 22.6 14 73.1 16.6 112.8 1.8 24.6 2.2 49.6 1.7 74.9z" fill="#FFE6B3" /><path d="M448.4 780.4c-1.7 0-3.3-0.2-5-0.7-26.4-7.8-49.7-23-69.2-45.3-10.9-12.5-14.8-27.6-18.8-43.6-2.3-9.1-4.7-18.5-8.5-27.9-3.7-9.4-8.4-18.9-13.4-29.1-11-22.4-22.4-45.5-26.1-72.1-2-14.1 0.6-31 3-47.3 2-13.3 4-27 3.6-38.9-0.2-7.2-3.1-13-6.2-19.1-3.6-7.3-7.4-14.8-7.1-25 0.1-6.3-0.5-13.3-1.2-20.2-1.6-16.4-3.3-33.4 5.8-44.2 9.3-11.1 7.8-20 6.2-30.3-0.9-5.7-1.8-11.5-0.9-17.7 2.7-16.7 6-33 9.8-48.3 3.1-12.6 9.1-19.5 14.9-26.3 4.4-5.1 8.5-9.9 11.5-17.2 3.5-8.4 6-18.8 8.7-29.8 4.1-16.8 8.4-34.2 16.5-45 8.2-11.1 17.3-21.1 27-29.7 9.5-8.4 19.9-15.4 31-21 11.2-5.7 23.2-9.8 35.6-12.3 11.1-2.2 22.9-3.2 34.9-2.9 13 0.3 25.6 2.3 37.6 5.9 11.7 3.5 22.9 8.6 33.3 15.1 7.6 4.7 13.3 16.1 18.8 27.1 3.7 7.3 7.5 14.8 11.1 18.7 5.5 5.9 11.2 10.1 16.6 14.1 10.1 7.4 19.6 14.5 27.3 31 4.1 9 6.2 19.6 8.1 29.9 2.9 15.2 5.9 30.9 15.7 41.1 17.4 18 17.3 51.3 17.2 83.5 0 10.8-0.1 21.9 0.6 32 1.6 23.5 2.1 48.8 1.5 75.3-1.1 45.7-5.6 88.3-13.5 126.5-8.5 40.4-20.7 75.4-36.5 104-12 21.7-26.1 39.9-41.7 54.2-17.8 16.2-38.1 27.7-60.2 34.2-10.2 3-19.5-1.2-28.4-5.3-6.7-3.1-13.7-6.3-21.1-6.4-5.4-0.1-11.9 3.1-18.2 6.2-6.8 3.4-13.7 6.8-20.3 6.8z m47.9-685.2c-10 0-19.8 0.9-29 2.8-11.6 2.3-22.9 6.2-33.4 11.5-10.4 5.2-20.2 11.8-29.1 19.7-9.3 8.2-18 17.8-25.8 28.4-7 9.4-11.1 25.9-15 41.9-2.7 10.8-5.4 22-9.1 31-3.5 8.6-8.3 14.2-12.9 19.6-5.3 6.2-10.4 12.1-13 22.7-3.8 15.1-7 31.1-9.6 47.6-0.8 4.8 0 9.8 0.9 15 1.7 10.9 3.7 23.2-8.1 37.3-6.7 8-5.2 23.1-3.8 37.7 0.7 7.1 1.4 14.5 1.3 21.3-0.2 8.1 2.9 14.3 6.2 20.9 3.3 6.7 6.8 13.6 7.1 22.7 0.4 12.7-1.7 26.8-3.7 40.4-2.3 15.7-4.8 32-3 44.8 3.5 25.2 14.6 47.7 25.3 69.5 5 10.3 9.8 20 13.6 29.7 4 10 6.4 19.7 8.8 29 4 15.6 7.4 29.1 16.9 40 18.4 21 40.3 35.4 65.1 42.7 4.9 1.5 11.7-1.9 18.8-5.4 7.2-3.6 14.7-7.3 22.2-7.1 9.2 0.2 17.4 3.9 24.5 7.2 8.2 3.7 15.2 7 22.4 4.9 20.9-6.1 40-17 56.8-32.2 15-13.7 28.4-31.2 40-52C646 658.7 658 624.5 666.2 585c7.8-37.7 12.3-79.7 13.4-124.9 0.6-26.2 0.1-51.3-1.5-74.5-0.7-10.4-0.6-21.7-0.6-32.6 0.1-30.5 0.2-62-14.8-77.5-11.7-12-14.9-29.1-18-45.5-1.9-10.2-3.8-19.8-7.5-27.9-6.7-14.5-15-20.6-24.5-27.6-5.8-4.3-11.7-8.7-17.8-15.2-4.5-4.9-8.4-12.6-12.5-20.7-4.8-9.5-10.2-20.2-15.7-23.6-9.7-6.1-20.2-10.8-31.2-14.2-11.2-3.4-23.1-5.2-35.3-5.5-1.2-0.1-2.5-0.1-3.9-0.1z"  /><path d="M626.5 458c-1.1 43.5-4.9 83.9-11.6 120.2-7 37.6-17 70.8-30.1 98.4-9.6 20-20.9 37.2-34 50.9-14.1 14.8-30.2 25.6-48.5 31.9-13.1 4.5-24.5-10.8-39.9-11.2-11.5-0.3-25 15.4-35.1 12-21.8-7.4-40.3-21.7-55.5-41.8-13.4-17.6-13.1-41.8-21.7-67.2-9.8-28.7-27.9-59.4-32.1-95.6-2.7-23.6 6.5-56.1 5.8-82-0.4-16.1-11.3-25-10.9-41.8 0.5-20.1-6.4-46 3.1-59 13.4-18.4 3.1-32.5 5.4-48 2.3-15.9 5-31.2 8.2-45.9 4.3-19.9 15.6-24 21.8-41.1 7.5-21.1 10.3-54.6 20.6-70.7 6.7-10.5 14-19.8 22-27.8 7.8-7.8 16-14.3 24.9-19.5 8.9-5.2 18.5-9.1 28.6-11.5 8.9-2.1 18.3-3 28.2-2.8 10.7 0.3 20.7 2.1 30.1 5.3 9.4 3.2 18.4 8 26.6 13.8 9.4 6.8 16 33.2 24 43 13.2 16.3 26.3 18.6 35.5 41.9 8.2 20.8 5.6 51.6 20.1 68.9 18 21.5 11.4 69.8 13.5 107.9 1.3 23.5 1.6 47.4 1 71.7z" fill="#FFF9E1" /><path d="M633.3 956.4c-1.2 0-2.4-0.5-3.2-1.4-26.6-29.1-39.3-61.3-37.7-95.7 1.7-35.5 18.6-66.7 32.4-86.7 15-21.5 29.3-34.6 29.9-35.2 1.8-1.6 4.5-1.5 6.1 0.3 1.6 1.8 1.5 4.5-0.3 6.1-0.6 0.5-56.5 51.8-59.5 115.8-1.5 32 10.4 62.1 35.4 89.3 1.6 1.8 1.5 4.5-0.3 6.2-0.7 0.9-1.8 1.3-2.8 1.3zM528.2 901.9h-0.5c-40.7-4.7-69-18.9-84.2-42.1-19.8-30.2-9.6-64.3-9.2-65.7 0.7-2.3 3.1-3.6 5.4-2.9 2.3 0.7 3.6 3.1 2.9 5.4-0.1 0.3-9.3 31.7 8.2 58.5 13.7 20.9 39.9 33.7 77.9 38.1 2.4 0.3 4.1 2.4 3.8 4.8-0.2 2.2-2.1 3.9-4.3 3.9zM204 497.9c-27.1 0-51.3-6.2-65.1-9.7-4-1-8.1-2.1-9.3-2.1-2.2 0.3-4.3-1-4.9-3.1-0.7-2.3 0.7-4.7 3-5.4 2.2-0.6 4.7 0 13.4 2.2 31 7.9 113.3 29 158.1-37.6 1.3-2 4-2.5 6-1.2s2.5 4 1.2 6c-20.7 30.7-51.2 47.7-90.6 50.5-4 0.3-8 0.4-11.8 0.4z m-74-12zM858.2 490.1c-1.4 0-2.8-0.7-3.6-1.9-44.8-66.6-127.1-45.5-158.1-37.6-8.6 2.2-11.2 2.8-13.4 2.2-2.3-0.7-3.7-3.1-3-5.4 0.6-2.1 2.7-3.5 4.9-3.1 1.3-0.1 5.4-1.1 9.3-2.1 15.8-4 45.1-11.6 76.9-9.3 39.5 2.8 69.9 19.8 90.6 50.5 1.3 2 0.8 4.7-1.2 6-0.8 0.5-1.6 0.7-2.4 0.7z m-172.8-45.6z"  /><path d="M456.1 479.4a9.6 16 0 1 0 19.2 0 9.6 16 0 1 0-19.2 0Z" fill="#DD2A00" /><path d="M465.7 499.7c-7.8 0-14-8.9-14-20.3s6.1-20.3 14-20.3c7.8 0 14 8.9 14 20.3s-6.2 20.3-14 20.3z m0-31.9c-2.1 0-5.2 4.6-5.2 11.6s3.2 11.6 5.2 11.6 5.2-4.6 5.2-11.6-3.1-11.6-5.2-11.6zM429.3 379c-2.6 0-5.9-0.6-10-2.4-7.2-3.1-42.4-1.4-62.9 0.3-2.4 0.2-4.5-1.6-4.7-4-0.2-2.4 1.6-4.5 4-4.7 9.2-0.8 55.8-4.5 67.1 0.3 5.9 2.5 8 1.6 8.3 1.4 1.3-1.7 3.7-2.3 5.7-1.1 2.1 1.2 2.8 3.9 1.6 6-0.5 0.6-2.9 4.2-9.1 4.2z m1.4-8.6z m0 0z m0 0z"  /><path d="M420.7 384.7c-2.9 8.6-8.2 14.4-19.3 14.4s-19.1-5.6-20.9-14.4c-3.2-15.9-31.5-8.4-20.5-10 40.5-5.7 71.9 0.5 65.4 1.5-3 0.4-3.2 4.1-4.7 8.5zM569.5 379.9c-2.6 0-5.9-0.6-10-2.4-7.2-3.1-42.4-1.4-62.9 0.3-2.4 0.2-4.5-1.6-4.7-4-0.2-2.4 1.6-4.5 4-4.7 9.2-0.8 55.8-4.5 67.1 0.3 4.8 2.1 7.1 1.8 7.9 1.6 0.3-0.1 0.5-0.2 0.5-0.2l-0.1 0.1c0 0.1-0.3 0.4-0.3 0.4l7.5 4.4c-0.4 0.6-2.8 4.2-9 4.2z"  /><path d="M560.9 385.5c-2.9 8.6-8.2 14.4-19.3 14.4-11.1 0-19.1-5.6-20.9-14.4-3.2-15.9-31.5-8.4-20.5-10 40.5-5.7 71.9 0.5 65.4 1.5-3 0.5-3.2 4.2-4.7 8.5zM419.4 326.5c-2.4 0-4.4-1.9-4.4-4.4 0-2.4 1.9-4.4 4.4-4.4 3.9 0 6.8-2 8.7-6.1 1.7-3.4 2-6.9 2-7 0.2-2.4 2.3-4.2 4.7-4 2.4 0.2 4.2 2.3 4 4.7-0.6 7.4-5.4 21.2-19.4 21.2zM502.3 323.4c-4.9 0-9-1.3-12.2-4-6.5-5.4-6.3-14.1-6.3-14.4 0.1-2.4 2-4.2 4.3-4.2h0.1c2.4 0.1 4.3 2.1 4.2 4.4 0 0.1 0 4.9 3.2 7.6 3.1 2.5 8.3 2.1 12.1 1.2 2.4-0.5 4.7 1 5.2 3.3s-1 4.7-3.3 5.2c-2.5 0.6-5 0.9-7.3 0.9zM482.5 434.2c-2.3 0-4.3-1.8-4.3-4.2-0.5-11.5-14.9-13.2-16.1-13.4-2.2 0.3-8 6.8-12 13.4-1.3 2-3.9 2.7-6 1.4-2-1.3-2.7-3.9-1.4-6 3.4-5.5 12.1-18.2 20.1-17.5 8.1 0.7 23.5 6.1 24.1 21.7 0.1 2.4-1.8 4.4-4.2 4.5 0 0.1-0.1 0.1-0.2 0.1z"  /></svg>