<?xml version="1.0" standalone="no"?><!DOCTYPE svg PUBLIC "-//W3C//DTD SVG 1.1//EN" "http://www.w3.org/Graphics/SVG/1.1/DTD/svg11.dtd"><svg class="icon" width="200px" height="200.00px" viewBox="0 0 1024 1024" version="1.1" xmlns="http://www.w3.org/2000/svg"><path d="M314.6 412.9c-0.6 0-1.3-0.1-2.1-0.3-12.4-3.4-71.4-35.5-75.3-81.7-3.4-40.2 34.2-78.9 111.9-115.3 2.1-1 4.7-0.1 5.7 2.1 1 2.1 0.1 4.7-2.1 5.7-41.1 19.2-70.9 39.2-88.4 59.4-14.3 16.5-20.5 33.1-18.4 49.5 5.1 39.7 57.8 68.6 68 71.8 1.6-0.3 3.4 0.3 4.4 1.8 1.1 1.6 1.1 3.6 0 5.1-0.6 1-1.8 1.9-3.7 1.9z m-3.3-2.1z"  /><path d="M712.7 446.2c0 200.4 0.8 356.1-216.8 356.1-210.1 0-182.3-162.5-182.3-362.9S395.2 76.5 495.9 76.5s216.8 169.3 216.8 369.7z" fill="#6D200E" /><path d="M495.9 806.6c-63.3 0-108.4-14.6-138.1-44.7-52.2-53.1-50.8-148.6-49.1-259.3 0.3-20.5 0.6-41.6 0.6-63.1 0-97.6 19.1-189.4 53.8-258.5 35.2-70.1 82.3-108.7 132.7-108.7 25.4 0 52.7 10.5 78.9 30.5 25.4 19.3 49.9 47.4 70.8 81.3 21.5 34.8 39.3 75.9 51.4 118.8 13.2 46.6 19.9 94.9 19.9 143.5v2.2c0 101.4 0 189-27.4 253.4-30.4 71.3-91.9 104.6-193.5 104.6z m0-725.8c-23.6 0-46.5 9.3-68.2 27.5-21.3 17.9-40.4 43.6-56.9 76.4-34.1 68-52.9 158.4-52.9 254.7 0 21.6-0.3 42.8-0.6 63.3-1.7 108.8-3.1 202.7 46.7 253.2 28 28.4 71.1 42.2 132 42.2 51.8 0 92.1-8.7 123.2-26.7 28.1-16.2 48.6-40.1 62.6-72.9 26.8-62.7 26.7-149.5 26.7-250v-2.2c0-47.8-6.6-95.3-19.5-141.2-11.9-42.2-29.4-82.5-50.4-116.6C596.8 121 543.5 80.8 495.9 80.8z"  /><path d="M651.6 751.8c29-71.5 33.5-171.1 33.5-281.3 0-211.8-87.6-384.5-197.6-393.6-96.8 8.7-173.9 167.7-173.9 362.5 0 200.4-27.8 362.9 182.3 362.9 74.7 0 123.6-18.3 155.7-50.5z" fill="#883E25" /><path d="M495.9 806.6c-63.3 0-108.4-14.6-138.1-44.7-52.2-53.1-50.8-148.6-49.1-259.3 0.3-20.5 0.6-41.6 0.6-63.1 0-97.6 19.1-189.4 53.8-258.5 35.2-70.1 82.3-108.7 132.7-108.7 25.4 0 52.7 10.5 78.9 30.5 25.4 19.3 49.9 47.4 70.8 81.3 21.5 34.8 39.3 75.9 51.4 118.8 13.2 46.6 19.9 94.9 19.9 143.5v2.2c0 101.4 0 189-27.4 253.4-30.4 71.3-91.9 104.6-193.5 104.6z m0-725.8c-23.6 0-46.5 9.3-68.2 27.5-21.3 17.9-40.4 43.6-56.9 76.4-34.1 68-52.9 158.4-52.9 254.7 0 21.6-0.3 42.8-0.6 63.3-1.7 108.8-3.1 202.7 46.7 253.2 28 28.4 71.1 42.2 132 42.2 51.8 0 92.1-8.7 123.2-26.7 28.1-16.2 48.6-40.1 62.6-72.9 26.8-62.7 26.7-149.5 26.7-250v-2.2c0-47.8-6.6-95.3-19.5-141.2-11.9-42.2-29.4-82.5-50.4-116.6C596.8 121 543.5 80.8 495.9 80.8z"  /><path d="M344.5 446.2a150.9 334.3 0 1 0 301.8 0 150.9 334.3 0 1 0-301.8 0Z" fill="#FCECCF" /><path d="M495.4 784.8c-50 0-86.3-12.2-111-37.2-21.8-22.1-34.8-54.1-40.8-100.6-5.3-41.4-4.6-90.5-3.9-142.6 0.3-18.8 0.5-38.3 0.5-58.2 0-89.9 15.8-174.5 44.6-238.2 29.2-64.8 68.5-100.4 110.6-100.4S576.8 143.3 606 208c28.7 63.7 44.6 148.3 44.6 238.2 0 23.4 0.5 46.1 0.9 68.2 1 49.7 2 96.6-2.9 136.1-5.5 44.4-17.9 75.2-39 96.7-24.9 25.3-62.2 37.6-114.2 37.6z m0-668.7c-19.2 0-38 8.5-55.8 25.1-17.6 16.5-33.4 40.1-47 70.3-28.2 62.6-43.8 145.9-43.8 234.7 0 19.9-0.3 39.4-0.5 58.3-1.4 102.8-2.6 191.7 42.2 237.1 23 23.3 57.3 34.7 104.9 34.7 49.6 0 84.9-11.5 108.1-35.1 19.7-20.1 31.3-49.2 36.6-91.7 4.8-38.9 3.9-85.5 2.9-134.8-0.5-22.1-0.9-44.9-0.9-68.4 0-88.7-15.6-172.1-43.8-234.7-13.6-30.2-29.4-53.8-47-70.3-17.9-16.7-36.7-25.2-55.9-25.2z"  /><path d="M613.7 439.4c0-161.4-56-295.5-129.5-322.3-15.3 2.6-30.3 10.7-44.6 24.1-17.6 16.5-33.4 40.1-47 70.3-28.2 62.6-43.8 145.9-43.8 234.7 0 19.9-0.3 39.4-0.5 58.3-1.4 102.8-2.6 191.7 42.2 237.1 8 8.1 17.4 14.8 28.3 20 11.6 2.8 24.4 4.5 38.4 4.9 86.4 2.6 156.5-146.4 156.5-327.1z" fill="#FFF9E1" /><path d="M712.7 446.2c0 200.4 0.8 356.1-216.8 356.1-134.2 0-199.8-67.1-183.6-258.8l69.7 95.7 37.8-74.5 45 38.8 53.6-55.5 44.3 47.5 45.7-81.9 57.4 62.1 46.9-129.5z" fill="#691805" /><path d="M495.9 806.6c-65.9 0-112.9-16.3-143.8-49.9-38.3-41.7-52.7-111.6-44.1-213.6l1-11.4 72.3 99.3 37.1-73.1 46.1 39.7 53.9-55.8 43.4 46.5 45.7-82 56.6 61.3 52.7-145.8v26.6c0 101.4 0 189-27.4 253.4-30.4 71.5-91.9 104.8-193.5 104.8zM315.7 555.4c-6.4 93.2 7.6 157.3 42.7 195.5 29.1 31.7 74.1 47.1 137.5 47.1 51.8 0 92.1-8.7 123.2-26.7 28.1-16.2 48.6-40.1 62.6-72.9 24.8-58.1 26.6-136.7 26.7-227.8l-40.9 113.1-58.1-62.9-45.7 81.9-45.3-48.5-53.3 55.2-44-37.9-38.5 75.8-66.9-91.9z"  /><path d="M481.3 780.6c98.7 0 181.1-101 200.1-235.3l-13.9 38.5-58.1-62.9-45.7 81.9-45.3-48.5-53.3 55.2-44-37.9-38.5 75.8-67-92c-3 43.3-1.6 80.3 4.3 111.3 37.5 69.3 95.8 113.9 161.4 113.9z" fill="#883E25" /><path d="M491.6 530.6c-10.5 0-21.2-0.8-31.9-2.5-2.3-0.4-3.9-2.6-3.6-4.9 0.4-2.3 2.6-3.9 4.9-3.6 35.6 5.6 70.4 1.5 103.5-12.4 26.5-11.2 52-28.6 75.8-51.7 40.6-39.6 62.1-82.7 62.3-83.1 1-2.1 3.6-3 5.7-1.9 2.1 1 3 3.6 1.9 5.7-0.9 1.8-22.4 44.8-64 85.4-24.5 23.9-50.9 41.9-78.5 53.5-24.4 10.3-50 15.5-76.1 15.5z"  /><path d="M455.1 313.2s-0.1 0 0 0c-2.4 0-4.3-2-4.3-4.3 0.1-6.8-2.5-13.3-7.2-18.2-4.8-4.9-11.2-7.7-18-7.8-14.1-0.2-25.8 11.1-26 25.2 0 2.3-1.9 4.2-4.3 4.2h-0.1c-2.4 0-4.3-2-4.2-4.3 0.3-18.7 15.6-33.6 34.2-33.6h0.5c9.1 0.1 17.6 3.8 24 10.4 6.4 6.6 9.8 15.2 9.6 24.3 0 2.3-1.9 4.1-4.2 4.1zM563.6 315s-0.1 0 0 0c-2.4 0-4.3-2-4.3-4.3 0.1-6.8-2.5-13.3-7.2-18.2-4.8-4.9-11.2-7.7-18-7.8-14.1-0.2-25.8 11.1-26 25.2 0 2.4-2 4.3-4.3 4.2-2.4 0-4.3-2-4.2-4.3 0.3-18.8 15.9-34 34.7-33.6 9.1 0.1 17.6 3.8 24 10.4 6.4 6.6 9.8 15.2 9.6 24.3-0.1 2.2-2 4.1-4.3 4.1z" fill="#000333" /><path d="MNaN NaNaNaN NaN NaN 1 0 NaN NaN NaN NaN NaN 1 0 NaN NaNZ" fill="#FF6666" opacity=".7" /><path d="MNaN NaNaNaN NaN NaN 1 0 NaN NaN NaN NaN NaN 1 0 NaN NaNZ" fill="#FF6666" opacity=".7" /><path d="M474.1 412.6h-1.2c-7.1-0.5-13.7-5.6-16-12.4-1.4-4-1.1-8 0.8-11.7 1.8-3.5 4.8-6.2 7.8-8.2-3.4-2.5-6-6-7.6-10.3-2.8-7.7-1.1-16 4.4-21.7 3.5-3.6 8.2-5.5 13.4-5.2 6.2 0.3 12.5 3.7 16.7 9 1.5 1.9 1.1 4.5-0.7 6-1.9 1.5-4.5 1.1-6-0.7-2.6-3.4-6.6-5.6-10.4-5.7-2.7-0.1-5 0.7-6.8 2.6-3.3 3.4-4.2 8.2-2.5 12.8 1.4 3.7 4.8 8 10.5 8.6 2 0.2 3.6 1.8 3.8 3.8 0.2 2-1.1 3.9-3 4.5-2.5 0.8-9.7 3.9-11.9 8.3-0.8 1.6-0.9 3.2-0.3 5 1.2 3.6 4.8 6.4 8.5 6.6 3.7 0.2 7.1-2.1 9.4-6.8 1.1-2.1 3.6-3 5.7-1.9s3 3.6 1.9 5.7c-3.7 7.5-9.7 11.7-16.5 11.7z" fill="#000333" /><path d="M375 925.3c-1.3 0-2.7-0.6-3.5-1.8-20.6-29.3-28.3-57.8-23-84.8 7.8-39.5 40.5-60.9 41.9-61.8 2-1.3 4.6-0.7 5.9 1.3 1.3 2 0.7 4.6-1.3 5.9-0.4 0.3-31.2 20.5-38.2 56.3-4.8 24.6 2.5 50.8 21.6 78.1 1.4 1.9 0.9 4.6-1 6-0.7 0.6-1.6 0.8-2.4 0.8zM645.3 916.4c-26 0-46.5-7.6-61.2-22.8-14-14.4-22.6-36.1-24.7-62.6-1.6-19.8 0.8-35.2 0.9-35.8 0.4-2.3 2.6-3.9 4.9-3.5 2.3 0.4 3.9 2.6 3.5 4.9-0.1 0.7-9.2 59.5 21.5 91.1 16.4 16.9 41.4 23.2 74.5 18.8 2.3-0.3 4.5 1.3 4.8 3.7 0.3 2.3-1.3 4.5-3.7 4.8-7.2 1-14 1.4-20.5 1.4z"  /></svg>