<?xml version="1.0" standalone="no"?><!DOCTYPE svg PUBLIC "-//W3C//DTD SVG 1.1//EN" "http://www.w3.org/Graphics/SVG/1.1/DTD/svg11.dtd"><svg class="icon" width="200px" height="200.00px" viewBox="0 0 1024 1024" version="1.1" xmlns="http://www.w3.org/2000/svg"><path d="M566 437.4c0-195.8 124.6-326.2-19-364.4-121.8-32.4-310.5 176.7-310.5 426.6 0 313 323 430 437.6 313C813.5 670.3 566 548 566 437.4z" fill="#F4DC76" /><path d="M554.3 862c-33.8 0-70.2-7.3-106.6-22.1-28.8-11.7-56-27.7-80.9-47.3-26.4-20.8-49.7-45.4-69-72.9-20.8-29.6-37-62.6-48.1-97.9-12-38.1-18-79.2-18-122.1 0-78.6 18.7-158.6 54-231.2 31.8-65.4 75.9-121.8 124-158.8 48.7-37.4 97.9-52.1 138.5-41.2 44.1 11.8 66.9 33 71.8 67 4.4 30.6-6.1 69.7-18.2 115-30.9 115.7-30.9 155.3-30.9 187.1 0 39.4 33.5 81.2 68.9 125.4 30.6 38.3 62.3 77.9 75.5 119.7 15.2 48.3 2.9 92-37.6 133.4-29.9 30.2-73.8 45.9-123.4 45.9zM520.8 74.5c-32.3 0-68.7 14.7-105.3 42.7-47 36.1-90 91.3-121.2 155.4-34.7 71.3-53 149.8-53 227 0 41.9 5.9 82 17.6 119.2 10.8 34.4 26.5 66.4 46.7 95.3 36.9 52.6 87.3 93 145.7 116.8 35.2 14.4 70.4 21.4 103 21.4 46.9 0 88.4-14.6 116.3-43.1 84.6-86.4 22-164.6-38.5-240.3-36.5-45.6-71-88.7-71-131.5 0-72.7 17.3-137.6 31.3-189.6 11.8-44.3 22.1-82.5 18-111.1-4.3-30-24.2-48.2-64.7-59-7.9-2.1-16.2-3.2-24.9-3.2z"  /><path d="M520.5 437.4c0-192.2 120.2-321.4-11.5-362.3-29.2 3.1-61.3 17.4-93.4 42.1-47 36.1-90 91.3-121.2 155.4-34.7 71.3-53 149.8-53 227 0 41.9 5.9 82 17.6 119.2 10.8 34.4 26.5 66.4 46.7 95.3 36.9 52.6 87.3 93 145.7 116.8 35 14.3 70.1 21.3 102.5 21.4 29.2-6.5 55-19.7 74.7-39.7C768 670.3 520.5 548 520.5 437.4z" fill="#FFEDA1" /><path d="M515.5 958.5c-1.3 0-2.6-0.5-3.6-1.6-26.5-28.9-39.1-60.9-37.4-95.1 3.2-67.2 59.5-118.7 61.9-120.9 2-1.8 5-1.6 6.8 0.4 1.8 2 1.6 5-0.4 6.8-0.6 0.5-55.7 51.1-58.7 114.2-1.5 31.5 10.3 61.1 34.9 88.1 1.8 2 1.7 5-0.3 6.8-0.8 0.8-2 1.3-3.2 1.3zM441.7 888.5h-0.6c-40.4-4.7-68.5-18.7-83.6-41.8-19.7-30.1-9.6-64.1-9.2-65.5 0.8-2.6 3.5-4 6.1-3.2 2.6 0.8 4 3.5 3.2 6.1-0.1 0.3-9.1 31.2 8.1 57.5 13.5 20.5 39.2 33.1 76.6 37.4 2.7 0.3 4.6 2.7 4.3 5.4-0.4 2.3-2.5 4.1-4.9 4.1zM86.2 518.7c-7 0-12.3-2.2-16.2-4.7-10.2-6.8-14.5-19.2-13.6-25.2 0.4-2.6 2.9-4.4 5.5-4 2.6 0.4 4.4 2.9 4 5.5-0.3 2 2.1 10.9 9.5 15.7 8.3 5.4 20.2 3.5 34.4-5.3 17.9-11.2 26.8-4.4 33.3 0.6 5 3.8 8.2 6.3 15.7 3.4 11.7-4.6 31.2-14.9 48.3-27.7 17.5-13.1 27.5-25 27.5-32.7 0-2.7 2.2-4.8 4.8-4.8s4.8 2.2 4.8 4.8c0 11.3-10.6 24.9-31.4 40.5-15.4 11.5-35.8 23.2-50.6 28.9-12.5 4.9-19.8-0.7-25.1-4.8-6-4.6-10-7.7-22.2-0.1-11.5 7.3-21.1 9.9-28.7 9.9zM739.1 481.3c-1.6 0-3.1-0.8-4-2.1-44.2-65.6-125.3-44.8-155.9-36.9-8.8 2.2-11.1 2.8-13.4 2.2-2.6-0.7-4.1-3.4-3.4-6 0.7-2.4 3-3.8 5.3-3.5 1.3-0.1 5.2-1.1 9-2.1 15.6-4 44.7-11.5 76.2-9.3 39.2 2.7 69.6 19.6 90.1 50.2 1.5 2.2 0.9 5.2-1.3 6.7-0.7 0.5-1.7 0.8-2.6 0.8zM568.4 435z"  /><path d="M277.3 540.1m-10.2 0a10.2 10.2 0 1 0 20.4 0 10.2 10.2 0 1 0-20.4 0Z" fill="#FFFFFF" /><path d="M365.6 747.3c-1.8 0-3.6-0.7-5-2-43.7-41.2-65.2-87.3-75.5-118.7-11.3-34.1-12.2-58.4-12.2-59.4-0.1-4 3-7.4 7-7.5 4-0.2 7.4 3 7.5 7 0 0.2 0.9 23.6 11.7 55.8 9.9 29.7 30.3 73.2 71.5 112.1 2.9 2.8 3.1 7.4 0.3 10.3a7.09 7.09 0 0 1-5.3 2.4z" fill="#FFFFFF" /><path d="M592.1 389.7c5.5-25.4-9.8-50.3-34.2-55.6-16.1-3.5-29.8-0.1-40.4 11.6-5.5 6-12 16.1-13.9 24.7-5.5 25.4 9.8 50.3 34.2 55.6 12.9 2.8 22.1 5.1 32.2-2.3 9.1-6.6 19.5-22 22.1-34zM327.1 339.7c5.5-25.4-9.8-50.3-34.2-55.6-16.1-3.5-29.8-0.1-40.4 11.6-5.5 6-12 16.1-13.9 24.7-5.5 25.4 9.8 50.3 34.2 55.6 12.9 2.8 22.1 5.1 32.2-2.3 9.1-6.6 19.5-22.1 22.1-34z" fill="#FF6666" opacity=".8" /><path d="M383.8 299.5c-4 0-7.7-1.7-9.5-3.9-3.4-4.2-4.6-8.2-5.5-11.4-1.6-5.3-2.4-8-12.5-10.2-18.4-4-26.4 8.7-26.7 9.3-1.4 2.3-4.4 3-6.6 1.6-2.3-1.4-3-4.3-1.7-6.6 0.5-0.8 11.7-19.3 37.1-13.8 14.6 3.2 17.5 9.3 19.7 16.9 0.8 2.7 1.6 5.3 3.6 7.9 0.6 0.3 2.2 0.8 3.3 0.3 1.2-0.6 1.6-2.7 1.7-3.9 0.2-2.7 2.6-4.6 5.2-4.4 2.7 0.2 4.6 2.6 4.4 5.2-0.8 9.1-6.4 11.7-8.8 12.5-1.2 0.4-2.5 0.5-3.7 0.5zM510.3 317.2c-4 0-7.7-1.7-9.5-3.9-3.4-4.2-4.6-8.2-5.5-11.4-1.6-5.3-2.4-8-12.5-10.2-18.6-4.1-26.6 9.1-26.7 9.2-1.4 2.3-4.3 3.1-6.6 1.7-2.3-1.4-3.1-4.3-1.7-6.6 0.5-0.8 11.7-19.3 37.1-13.8 14.6 3.2 17.5 9.3 19.7 16.9 0.8 2.7 1.6 5.3 3.6 7.9 0.6 0.3 2.2 0.8 3.3 0.3 1.2-0.6 1.6-2.7 1.7-3.9 0.2-2.7 2.6-4.6 5.2-4.4 2.7 0.2 4.6 2.6 4.4 5.2-0.8 9.1-6.4 11.7-8.8 12.4-1.2 0.4-2.5 0.6-3.7 0.6z"  /><path d="M265.8 380.2c3.6 30.3 26.9 82.4 120 105.9 110.4 27.8 144.3-58.7 146.4-68s5.6-39.4-30.9-51.1c-36.5-11.7-57.9 17.4-96.7 9-38.7-8.4-46.8-40.3-86.9-49.8-27-6.4-41.3 13.8-47.8 27.7-3.8 8.2-5.2 17.3-4.1 26.3z" fill="#FFFFFF" /><path d="M427.3 496.5c-13.4 0-27.6-1.9-42.6-5.7-102.9-25.9-120.8-85.6-123.7-110-1.2-10 0.4-20 4.6-28.9 15.7-33.7 40.1-33.5 53.3-30.4 21.2 5 33.8 15.9 46 26.3 11.6 10 22.6 19.4 40.8 23.4 17.5 3.8 31-0.6 45.4-5.2 15.5-5 31.5-10.2 51.7-3.7 40.4 13 36.4 46.7 34.2 56.7-1.6 7.1-14.9 40.3-47.7 60.6-18.2 11.2-38.9 16.9-62 16.9zM270.6 379.6c2.7 22.5 19.4 77.3 116.4 101.8 38.2 9.6 70.9 6.3 97.1-10 30.1-18.6 42.2-49.2 43.4-54.4 2.2-10.3 4-35.3-27.7-45.5-17.3-5.6-31.1-1.1-45.8 3.7-14.9 4.8-30.3 9.8-50.4 5.4-20.6-4.5-33-15.2-45-25.5-11.8-10.2-23-19.8-41.9-24.3-22.7-5.4-35.5 10.6-42.3 25.1-3.5 7.3-4.8 15.5-3.8 23.7z"  /><path d="M466 449.7c-1.2 0-2.3-0.7-2.7-1.8-0.6-1.5 0.1-3.2 1.6-3.8 20.8-8.2 30.2-20.7 34-27.4 0.8-1.4 2.6-1.9 4-1.1 1.4 0.8 1.9 2.6 1.1 4-4.1 7.4-14.5 21.2-36.9 30-0.4 0-0.7 0.1-1.1 0.1zM423.4 457.1c-10.7 0-22.1-1.1-33.9-3.3-15.6-2.9-30.6-8.7-44.7-17-1.4-0.8-1.8-2.6-1-4s2.6-1.8 4-1c13.5 8 27.9 13.5 42.8 16.3 15.2 2.9 29.6 3.8 42.7 2.9 1.6-0.1 3 1.1 3.1 2.7 0.1 1.6-1.1 3-2.7 3.1-3.3 0.2-6.8 0.3-10.3 0.3zM327.5 425.4c-0.7 0-1.4-0.3-2-0.8-1.7-1.6-3.6-3.2-5.4-4.8-4.5-3.9-9.1-7.9-12.1-11.5-9.7-11.5-12.4-19.8-12.5-20.2-0.5-1.5 0.4-3.2 1.9-3.6 1.5-0.5 3.2 0.4 3.6 1.9 0 0.1 2.5 7.7 11.4 18.1 2.8 3.3 7.2 7.1 11.5 10.9 1.8 1.6 3.7 3.3 5.5 4.9 1.2 1.1 1.3 2.9 0.2 4.1-0.5 0.7-1.3 1-2.1 1z"  /><path d="M305.9 425.2c-1.4 0-2.7-1.1-2.9-2.5-2.2-15.6 11-37.6 11.6-38.5 0.8-1.4 2.6-1.8 4-1s1.8 2.6 1 4c-0.1 0.2-12.7 21.2-10.8 34.7 0.2 1.6-0.9 3.1-2.5 3.3h-0.4zM385.9 465.2c-0.3 0-0.6 0-0.9-0.2-1.5-0.5-2.3-2.2-1.8-3.7 1.9-5.5 5-30.8 6-40.1 0.2-1.6 1.6-2.7 3.2-2.6 1.6 0.2 2.7 1.6 2.6 3.2-0.2 1.4-3.8 34.1-6.3 41.4-0.4 1.2-1.5 2-2.8 2zM485.3 455.5c-0.4 0-0.9-0.1-1.3-0.3-1.4-0.7-2-2.5-1.3-3.9 3.7-7.3 1.8-29.7 0.7-37.7-0.2-1.6 0.9-3.1 2.5-3.3 1.6-0.2 3.1 0.9 3.3 2.5 0 0.3 1 7.6 1.4 16.3 0.5 12-0.4 20.3-2.6 24.8-0.6 1-1.6 1.6-2.7 1.6z"  /></svg>